<svg xmlns="http://www.w3.org/2000/svg" width="1200" height="430" viewBox="0 0 1200 430" role="img">
<style>
  .panel{fill:#edf3f3;stroke:#8b9494;stroke-width:1}.land{fill:none;stroke:#555f61;stroke-width:.8}.route{fill:none;stroke:#b54736;stroke-width:2.4}.screen-arrow{fill:none;stroke:#6b7280;stroke-width:1.5}.geo-arrow{fill:none;stroke:#156b8a;stroke-width:2}.label{font:600 15px system-ui,sans-serif;fill:#243033}.small{font:12px system-ui,sans-serif;fill:#465558}.legend{font:12px system-ui,sans-serif;fill:#243033}
</style>
<defs>
  <marker id="screen-arrow" viewBox="0 0 10 10" refX="8" refY="5" markerWidth="5" markerHeight="5" orient="auto"><path d="M0 0L10 5L0 10Z" fill="#6b7280"/></marker>
  <marker id="geo-arrow" viewBox="0 0 10 10" refX="8" refY="5" markerWidth="5" markerHeight="5" orient="auto"><path d="M0 0L10 5L0 10Z" fill="#156b8a"/></marker>
</defs>
<rect width="1200" height="430" fill="#ffffff"/>
<text x="20" y="24" class="label">Australia east coast</text><clipPath id="clip-australia-east-equirectangular"><rect x="15" y="42" width="380" height="340"/></clipPath><rect x="15" y="42" width="380" height="340" class="panel"/><g clip-path="url(#clip-australia-east-equirectangular)"><path d="M162.01,99.51L162.9,98.82L163.42,98.24L163.58,97.45L164.11,97.92L165.45,97.45L165.73,96.7L166.58,97.58L166.55,98.46L166.83,99.37L167.25,100.06L168.04,100.23L168.94,100.62L169.33,101.2L169.94,102.16L170.6,102.45L171.45,102.58L171.99,103.59L171.84,104.72L171.67,105.52L171.93,106.26L172.16,106.99L171.77,107.64L172.01,108.43L172.34,109.26L172.59,110.42L172.64,111.22L172.61,112.02L173.19,112.8L173.44,113.74L173.22,114.64L173.2,115.54L173.07,116.47L173.45,117.11L173.87,117.87L174.17,118.51L174.72,119.14L175.18,119.71L175.64,120.34L175.67,121.09L176.32,120.73L177,120.55L177.11,121.24L176.76,121.85L177.27,123.11L177.4,123.82L177.88,124.82L178.21,125.61L178.27,126.43L178.77,127.09L178.45,127.9L178.3,128.69L178.46,129.41L178.19,130.48L177.81,131.25L177.68,132.01L177.83,132.81L178.43,133.57L179.1,133.97L179.31,134.83L180.02,135.05L180.23,135.89L179.93,136.75L179.82,137.8L179.98,138.49L180.86,139.39L181.39,140.04L181.99,140.43L182.76,140.91L183.48,140.83L183.93,141.4L184.48,141.85L185.29,141.81L185.63,141.05L185.87,141.86L186.51,142.92L187.37,143.03L188.75,142.94L188.64,142.19L189.3,143.29L189.76,143.89L189.99,144.71L190.14,145.5L190.81,146.6L191.6,146.67L191.36,145.97L192.07,145.78L192.18,146.57L192.72,147.21L193.42,147.3L194.17,147.38L195.26,147.79L195.67,148.42L195.84,149.28L196.47,149.72L196.98,149.18L197.52,148.69L197.77,149.41L198.18,149.98L198.62,150.53L199.39,150.24L199.66,150.95L199.93,151.83L200.49,152.28L199.74,152.46L199.04,152.2L198.74,152.9L198.7,153.64L199.06,154.45L199.68,154.81L199.93,155.5L200.75,155.79L201.53,156.03L201.3,156.72L202.27,156.89L202.9,157.72L202.63,158.52L202.86,159.33L203.44,159.93L203.76,160.67L203.38,161.43L204.12,161.34L204.45,162.07L204.72,163.08L204.5,163.89L204.83,164.54L204.87,165.31L205.19,165.99L205.58,167.14L205.85,167.89L206.26,168.62L206.6,169.46L206.28,170.09L207.07,169.66L207.59,169.16L207.98,169.86L208.63,170.44L208.91,171.1L208.56,169.27L208.37,168.5L208.6,167.69L209.05,167.11L209.71,167.66L210.13,168.29L210.42,169.08L211.25,169.42L211.93,169.84L212.51,170.34L213.67,171.12L213.4,170.41L213.09,169.5L213.34,168.59L213.87,169.1L214.42,169.62L214.56,170.32L214.53,171.09L214.88,170.45L215,171.26L215.37,171.89L215.2,172.9L215.08,173.65L214.96,174.35L214.86,175.62L215.11,176.29L215.42,176.98L215.27,178.18L215.75,178.74L215.83,179.59L216.61,179.52L217.27,180.05L217.84,180.8L218.09,181.52L218.76,181.81L219.38,182.37L219.88,182.92L220.61,183.31L220.91,184L221.59,183.81L221.9,183.17L222.36,183.88L222.95,184.43L223.52,184.89L224.08,185.44L224.57,186.98L225,187.89L225.5,188.58L226.93,189.74L227.7,189.96L228.21,190.46L228.45,191.23L228.45,191.99L229.06,193.05L229.52,193.59L229.83,194.31L230.58,194.51L231.58,194.68L231.82,195.85L231.34,196.37L232.06,196.03L231.72,196.96L231.65,197.85L231.79,198.7L232.52,199.44L232.61,200.17L232.87,199.42L233.22,200.26L233.96,200.41L233.58,201.29L233.35,201.98L232.96,203.46L233.05,204.21L233.24,205.02L233.22,206.69L233.48,207.44L233.5,208.25L233.55,209.14L233.97,210.2L233.27,210.59L232.73,211.14L233.24,211.93L232.86,212.53L233.54,212.9L233.79,213.57L234.39,214.06L234.74,214.82L234.82,215.57L235.19,216.25L235.5,216.93L235.73,218.04L235.87,219.25L236.3,219.91L236.9,220.78L236.76,222.67L236.86,223.8L237.28,224.44L237.06,225.32L237.09,226.25L236.43,226.92L235.9,227.73L235.83,228.65L235.25,229.55L235.02,230.26L235.17,231.05L235.04,232.14L234.93,232.87L234.87,233.57L234.61,234.34L234.48,235.37L234.11,236.12L233.96,236.88L233.84,237.77L233.43,238.51L233.05,239.66L232.75,240.4L232.54,241.3L232.44,242.01L232.26,242.71L232.4,243.6L232.97,244.04L232.72,244.98L232.82,245.72L232.2,246.51L232.12,247.3L231.83,248.27L231.88,249.05L231.39,249.74L231.08,250.55L230.71,251.25L230.36,252.03L229.96,252.84L229.3,253.38L228.81,254.24L228.57,255.06L228.95,255.67L228.65,256.34L228.71,257.11L227.69,258.17L226.84,258.79L226.19,259.41L225.45,259.85L226.09,260.29L225.54,260.79L224.42,260.89L223.57,261.28L222.97,261.73L222.49,262.42L222.05,263.11L221.78,263.94L221.34,264.6L220.87,265.48L220.18,265.61L220.3,266.37L220.1,267.16L219.41,267.5L218.65,267.26L218.49,267.97L219.14,268.28L219.11,269.01L219.11,269.94L218.86,270.93L218.15,271.16L217.47,271.61L218.45,271.7L217.89,272.17L217.48,272.91L216.8,273.42L216.26,274.14L216.01,275.07L215.93,275.9L215.17,276.31L215.8,276.7L215.54,278.1L215,278.59L214.59,279.18L215.06,279.81L215.56,280.42L215.22,281.26L215.01,280.54L214.28,280.63L214.41,281.35L213.89,281.87L213.24,282.17L212.81,282.84L212.75,283.54L212.29,284.17L212.11,285.03L211.51,285.92L211.19,286.66L210.4,286.69L210.77,287.33L210.1,288.17L210.13,289.32L209.55,289.84L209.85,290.63L210.04,291.33L209.91,292.08L209.46,292.68L209.35,293.41L209.35,294.28L208.87,295.15L208.75,295.89L208.44,296.62L208.16,297.28L208.34,298.07L208.01,298.71L208.89,299.24L209.33,300.28L208.53,300.42L208.57,301.24L208.79,302.28L208.1,302.75L207.18,302.81L206.76,303.38L206.39,304L205.74,304.39L205.06,304.62L203.76,304.85L202.45,304.88L200.65,304.87L199.42,304.95L198,305.06L195.67,305.17L194.3,305.47L192.62,306.01L191.38,306.59L190.07,307.44L188.55,308.66L186.87,310.23L186.11,310.89L185.33,311.77L184.64,312.31L183.03,312.72L182.14,312.92L181.23,312.98L180.52,312.9L179.64,312.91L179.07,313.39L179.53,313.94L179.81,314.65L180.56,314.29L181.14,313.69L181.31,314.38L181.19,315.09L181.12,315.8L181.04,316.65L180.27,316.58L179.98,315.87L179.61,315L179.06,314.38L178.36,313.95L177.68,314.35L177.03,314.71L176.84,314.03L176.25,313.05L175.75,312.54L176.5,312.9L175.9,312.37L174.83,312.69L173.97,311.95L173.33,311.58L173.22,310.78L173.9,310.36L173.87,309.61L173.55,308.88L172.82,308.79L171.95,308.78L171.64,309.42L171.58,310.13L170.71,310.31L170.12,310.97L169.4,311.22L167.71,309.82L168.65,310.06L169.46,309.79L170.01,309.22L170.39,308.54L170.84,307.84L170.49,306.93L169.85,306.37L169.54,305.68L168.59,305.78L168.1,306.32L167.45,306.7L166.38,307.14L165.9,307.68L165.1,307.66L166.1,308.29L167.12,307.82L167.63,308.4L167.12,309.03L166.16,309.28L165.31,309.31L164.43,309.87L163.79,310.28L163.08,310.67L162.42,311.01L162.01,311.42M162.01,311.61L162.01,311.63M207.78,60L208.34,60.47L209.32,60.66L209.97,60.93L210.83,61.16L211.57,61.65L212.27,61.78L213.01,61.91L213.68,62.29L214.52,62.28L215.38,62L214.29,62.87L213.59,63.03L212.83,62.79L212.03,62.65L211.62,63.22L212.26,63.54L213.02,63.88L213.97,64.2L214.32,64.91L213.21,65.47L212.5,65.71L211.79,66.06L211.04,66.04L210.32,65.97L209.65,65.64L209.05,65.09L208.32,64.88L209.21,64.4L208.7,63.81L207.98,63.58L207.27,63.2L206.17,62.98L205.39,63.09L204.56,63.04L203.97,62.43L203.23,62.57L202.42,62.2L201.66,62.1L200.99,62.38L200.09,62.1L199.37,62.13L198.98,61.54L198.62,60.92L198.29,61.62L197.58,61.53L196.57,61.71L195.83,61.44L195.2,61.03L194.55,60.68L193.71,61.19L192.96,61.37L192.47,60.8L191.6,60.48L190.93,60.13L190.64,60M193.26,352.81L192.53,352.37L191.88,352.67L190.93,352.22L190.65,351.5L190.34,350.86L190.76,350.25L191.42,351.11L192.17,351.18L191.97,350.46L191.44,349.92L190.75,349.81L190.2,349.25L189.49,349.42L189.83,350.58L189.01,351.12L189.1,350.31L188.54,349.7L187.8,348.92L188.09,349.75L188.05,350.59L187.45,351.02L187.47,351.79L187.47,352.52L187.26,353.25L186.59,352.88L186.29,352.15L185.6,351.77L185.2,352.54L185.95,353.02L185.43,353.57L185.5,354.43L185.02,354.98L184.63,355.7L184.33,356.42L183.58,356.18L182.4,355.71L182.12,355L181.47,355.52L180.6,355.44L179.82,355.41L179.12,355.54L178.42,355.61L177.88,355.04L177.21,354.19L178.31,353.9L178.91,354.45L179.5,353.95L179.05,353.28L178.51,353.74L177.68,353.53L177.36,352.78L176.7,353.02L176.1,352.62L175.57,352.05L175.1,351.39L174.5,350.53L173.52,350.03L173.03,348.98L172.85,348.27L172.4,347.69L172.16,346.9L171.66,346.06L171.54,345.23L171.41,344.15L172.1,344.42L172.63,344.88L173.23,345.31L173.35,346.08L173.95,345.44L173.68,344.78L173,344.36L172.53,343.58L171.88,343.92L171.91,343.06L171.79,342.34L171.44,341.68L170.4,340.72L169.77,339.74L169.16,339.23L168.78,337.96L168.35,337.36L167.87,336.81L168.01,336.12L167.49,335.3L167.36,334.38L167.14,333.59L167.02,332.8L167.46,332.16L167.4,330.56L168.11,330.73L169.01,330.91L169.71,330.91L170.42,331.46L171.6,331.38L171.78,330.66L171.94,331.37L172.61,331.8L173.29,332L174,332.15L174.68,332.48L175.39,332.55L176.01,333.31L176.88,333.5L177.77,333.93L178.58,334.22L179.32,334.53L180.41,334.64L181.49,334.49L182.22,334.75L182.71,334.03L183.46,333.74L183.99,334.32L184.72,334.52L184.09,334.04L184.53,333.39L185.25,333.16L186.8,333.22L187.7,332.64L188.53,332.97L189.25,333.04L190,332.03L190.69,331.62L191.35,331.9L192.1,332.18L192.72,331.65L192.95,330.97L193.68,331.13L194.3,331.62L195.52,332.48L195.87,333.18L195.55,334.1L195.4,334.94L195.75,335.64L195.29,336.21L195.88,335.73L195.46,337.13L195.47,337.89L195.71,338.71L195.67,339.77L195.38,340.41L195.72,341.04L195.62,341.98L196.12,342.94L196.12,343.77L195.79,344.42L195.65,343.71L195.78,343.02L195.05,342.63L195.17,341.89L194.42,341.96L194.49,342.67L193.89,343.19L193.58,343.94L193.15,344.78L193.37,345.88L193.24,346.59L192.51,346.75L192.83,347.5L192.91,348.32L192.35,348.86L192.06,349.6L192.78,349.53L193.3,350.02L192.99,350.88L193.07,351.65L193.26,352.33L193.26,352.81M169.94,330.24L169.26,330.72L169.18,329.84L169.8,330.21L169.94,330.24M169.05,328.48L168.84,327.8L169.43,328.21L169.05,328.48M184.37,140.33L184.37,140.33M233.8,71.26L233.26,70.71L234.2,70.91L233.8,71.26M230.86,65.57L230.51,66.21L229.57,65.94L228.77,65.57L229.49,65.61L230.4,65.58L230.86,65.57M217.31,65.34L216.37,65.6L217.02,65.31L217.31,65.34M182.73,137.06L182.15,136.56L182.73,137.06M188.09,353.78L188.15,354.57L187.84,355.27L187.31,354.75L186.63,355.2L186.13,354.57L186.81,354.83L186.84,354.13L187.45,353.51L188.09,353.78M188.6,351.94L188.83,352.67L187.95,352.34L188.15,351.51L188.6,351.94M194.38,347.29L193.85,347.85L193.5,348.46L193.38,347.71L193.9,347.08L194.38,347.29M196.64,327.64L196.6,328.36L195.94,328.79L195.59,328.18L194.81,328.24L193.92,328.35L193.26,328.03L193.85,327.44L194.62,327.44L195.46,327.27L196.34,327.49L196.64,327.64M173.28,309.51L172.77,310.39L172.05,310.27L172.12,309.52L173.15,309.5L173.28,309.51M236.16,213.46L236.33,214.24L235.92,216.15L235.47,215.59L235.55,214.75L235.5,214.01L235.75,213.26L236.16,213.46M235.57,212.79L235.38,212.07L235.2,211.24L235.22,210.51L235.79,210L235.68,211.39L235.63,212.19L235.71,212.92L235.57,212.79M218.83,180.42L219.05,181.14L218.4,181.41L217.97,180.66L217.55,180.08L216.89,179.27L216.87,178.54L217.83,178.85L218.59,178.86L218.49,179.69L218.83,180.42M180.14,133.87L180.15,134.59L179.39,134.59L179.2,133.8L178.58,133.13L179.34,132.94L179.44,132.24L179.97,132.7L180.06,133.59L180.14,133.87M242.37,71.88L241.72,72.33L240.92,72.59L240.31,72.23L241.09,72.09L241.57,71.55L242.26,71.75L242.37,71.88M195.61,344.66L195.61,344.66M182.54,313.39L181.86,313.75L182.54,313.39M232.06,194.55L232.06,194.55M219.63,181.78L219.63,181.78M206.78,168.74L206.81,169.51L206.78,168.74M211.2,163.46L211.2,163.46M211.25,162.91L211.25,162.91M201.83,151.8L201.73,152.52L201.83,151.8M196.8,147.81L196.95,148.54L196.8,147.81M243.23,157.19L243.23,157.19M225.28,63.54L225.28,63.54M223.52,63.04L223.52,63.04M223.39,62.29L223.39,62.29M236.67,164.96L236.67,164.96M236.7,164.95L236.7,164.95M236.32,164.78L236.32,164.78M237.37,164.49L237.37,164.49M238.3,162.53L238.3,162.53M197.31,129.31L197.31,129.31M196.72,128.17L196.72,128.17M196.63,127.46L196.63,127.46M208.28,121.36L208.28,121.36M208.91,121.12L208.91,121.12M192.35,117.1L192.35,117.1M208.91,114.9L208.91,114.9M208.98,114.05L208.98,114.05M208.84,114.05L208.84,114.05M236.17,164.4L236.17,164.4M208.72,115.45L208.72,115.45M194.17,328.97L195.24,328.66L194.91,329.3L194.21,329.27L194.17,328.97M168.19,328.06L168.19,328.77L167.99,329.5L167.68,328.8L168.09,327.97L168.19,328.06M172.45,311.21L171.62,311.33L170.84,311.4L171.29,310.84L172.01,310.7L172.45,311.21M213.1,168.17L212.78,168.83L212.77,167.99L213.1,168.17M208.26,166.11L208.34,166.81L208.19,167.65L207.89,166.99L208.08,166.28L208.26,166.11M201.62,150.89L200.87,150.95L200.85,150.21L200.97,149.45L201.12,150.14L201.62,150.66L201.62,150.89M200.76,149.38L200.36,148.78L200.76,149.38M215.75,64.73L215.86,65.45L215.11,65.64L215.11,64.92L215.75,64.73M193.39,325.67L192.9,325.11L192.38,324.62L192.43,323.75L191.38,323.28L192.13,322.83L192.22,322.08L192.91,321.81L194.38,323.46L194.92,323.92L195.56,324.89L195.03,325.46L195.78,325.54L195.83,326.31L195.04,326.15L194.42,326.68L193.67,326.47L193.39,325.8L193.39,325.67M162.84,323.4L163.1,324.18L162.65,324.75L162.01,325.15M162.01,320.65L162.67,321.05L162.84,321.9L163,322.65L162.84,323.4M235.25,192.08L235.06,192.89L234.45,194.43L233.61,196.25L233.01,198.04L233.14,198.85L232.35,198.59L232.23,197.86L231.95,197.04L232.36,196L232.75,195.4L232.79,194.58L232.52,193.92L233.51,193.18L234.12,192.42L234.23,191.41L233.87,190.77L233.88,189.96L234.49,189.53L234.55,190.93L234.79,191.65L235.25,192.08M238.31,73.97L237.68,74.32L236.96,74.31L236.32,73.99L235.47,73.72L235.04,73.12L234.39,72.64L233.88,72.05L234.67,71.92L235.31,72.33L236.27,72.82L237.79,73.4L238.31,73.97M219,60L218.59,61.17L217.15,61.04L216.4,60.92L216.51,60.17L216.64,60M217.14,60L217.78,60.37L217.81,60M192.13,326.92L192.13,326.92M191.33,324.65L191.33,324.65M188.27,319.65L188.27,319.65M216.52,176L216.52,176M215.92,175.11L215.92,175.11M230.2,168.91L230.2,168.91M230.29,168.79L230.29,168.79M209.13,166.7L208.53,167.22L208.97,166.64L209.13,166.7M207.95,165.65L207.95,165.65M228.27,165.59L228.27,165.59M210.33,165.5L210.33,165.5M227.81,163.9L227.81,163.9M228.05,163.89L228.05,163.89M207.45,162.14L207.45,162.14M206.48,159.68L206.48,159.68M208.2,156.98L208.2,156.98M204.63,156.11L204.63,156.11M204.34,156.08L204.34,156.08M205.88,155.63L205.88,155.63M203.26,155.18L203.26,155.18M203.4,155.04L203.4,155.04M204.78,154.58L204.78,154.58M202.27,153.98L202.27,153.98M200.16,151.44L200.16,151.44M199.92,150.37L199.92,150.37M206.5,148.36L206.5,148.36M178.98,131.86L178.98,131.86M178.99,130.23L178.99,130.23M177.54,121.06L177.54,121.06M173.5,101.08L173.5,101.08M169.54,99.65L169.54,99.65M164.09,96.71L164.09,96.71M163.86,96.63L163.86,96.63M165.99,96.33L165.99,96.33M162.14,74.11L162.14,74.11M234.31,71.41L234.31,71.41M225.6,71.15L225.6,71.15M231.75,70.27L231.75,70.27M230.54,70.18L230.54,70.18M232.49,70.17L232.49,70.17M232.91,70.13L232.91,70.13M227.18,69.99L227.18,69.99M230.04,69.98L230.04,69.98M229.1,69.53L229.1,69.53M225.95,67.18L225.95,67.18M223.93,67.17L223.93,67.17M222.09,66.77L222.09,66.77M227.71,66.72L227.71,66.72M219.13,66.63L219.13,66.63M218.62,66.36L218.62,66.36M227.61,66.24L227.61,66.24M218.97,65.48L218.97,65.48M218.6,65.36L218.6,65.36M218.23,65.13L218.23,65.13M214.67,65.42L214.67,65.42M219.92,63.44L219.92,63.44M216.9,62.37L216.9,62.37" class="land"/><path d="M183.51,257.6L183.51,233.6" class="screen-arrow" marker-end="url(#screen-arrow)"/><path d="M183.51,257.6L183.51,233.6" class="geo-arrow" marker-end="url(#geo-arrow)"/><path d="M223.91,157.28L223.91,133.28" class="screen-arrow" marker-end="url(#screen-arrow)"/><path d="M223.91,157.28L223.91,133.28" class="geo-arrow" marker-end="url(#geo-arrow)"/></g><text x="23" y="62" class="label">Equirectangular</text><clipPath id="clip-australia-east-sinusoidal"><rect x="410" y="42" width="380" height="340"/></clipPath><rect x="410" y="42" width="380" height="340" class="panel"/><g clip-path="url(#clip-australia-east-sinusoidal)"><path d="M572.23,99.51L573.25,98.82L573.8,98.38L573.97,97.56L574.65,97.92L576.16,97.45L576.51,96.82L577.38,97.58L577.21,98.27L577.49,99.37L577.9,100.06L578.63,100.12L579.14,100.6L579.87,100.73L580.07,101.65L580.64,102.16L581.34,102.45L582.04,102.64L582.76,103.59L582.48,104.72L582.23,105.52L582.44,106.26L582.62,106.99L582.13,107.64L582.33,108.43L582.6,109.26L582.77,110.42L582.74,111.22L582.63,112.02L583.18,112.8L583.36,113.74L583.04,114.64L582.92,115.54L582.68,116.47L583.03,117.11L583.41,117.87L583.74,118.65L584.29,119.2L584.71,119.78L585.18,120.44L585.11,121.18L585.76,120.73L586.46,120.59L586.49,121.33L586.06,122.03L586.53,123.11L586.59,123.82L587,124.82L587.27,125.61L587.24,126.43L587.71,127.09L587.32,127.71L587.24,128.46L587.16,129.2L587,129.89L586.21,131.25L585.98,132.01L586.05,132.81L586.61,133.57L587.27,133.84L587.4,134.83L588.13,135.05L588.26,135.89L587.83,136.75L587.59,137.8L587.7,138.53L588.5,139.39L588.99,140.04L589.58,140.43L590.35,140.91L591.12,140.83L591.53,141.4L592.29,141.99L593.23,141.53L593.72,142.32L594.08,142.92L594.81,142.94L596.46,142.94L596.44,142.19L597,143.29L597.41,143.89L597.54,144.71L597.6,145.5L598.16,146.6L598.99,146.67L598.83,145.97L599.45,145.6L599.62,146.57L600.11,147.21L600.8,147.33L601.62,147.38L602.72,147.79L603.07,148.42L603.12,149.28L603.73,149.72L604.35,149.28L604.99,148.69L605.15,149.41L605.82,149.71L605.89,150.44L606.55,150.14L606.9,150.82L607.03,151.56L607.62,152.28L607.09,152.77L606.86,152.04L606.13,152.25L605.67,152.9L605.53,153.64L605.78,154.45L606.39,154.81L606.55,155.5L607.37,155.79L608.16,156.03L607.81,156.72L608.8,156.89L609.34,157.72L608.93,158.52L609.05,159.33L609.58,159.93L609.79,160.67L609.26,161.19L610.07,161.34L610.3,162.07L610.42,163.08L610.06,163.71L610.28,164.38L610.18,165.12L610.45,165.85L610.45,166.58L610.48,167.31L610.79,167.99L611.14,168.62L611.35,169.46L610.92,170.09L611.82,169.66L612.3,169.07L612.7,169.76L613.31,170.44L613.66,171.33L613.75,170.62L613.43,169.27L613.36,168.5L613.74,167.69L614.3,167.11L614.9,167.66L615.24,168.29L615.41,169.08L616.21,169.42L616.85,169.84L617.37,170.34L618.44,171.12L618.28,170.41L618.11,169.5L618.54,168.59L618.96,169.15L619.54,169.66L619.35,170.4L619.34,171.24L619.81,170.45L619.8,171.26L620.06,172.03L619.72,172.9L619.47,173.65L619.22,174.35L618.89,175.62L619.02,176.43L619.02,177.19L618.87,178.18L619.29,178.86L619.19,179.59L620.01,179.52L620.59,180.05L621.05,180.8L621.17,181.52L621.8,181.81L622.34,182.37L622.88,183.14L623.54,183.39L623.63,184.1L624.35,183.81L624.79,183.17L625.13,183.88L625.63,184.43L626.18,184.89L626.8,186.98L627.07,187.89L627.45,188.58L628.68,189.74L629.43,189.96L629.95,190.83L629.78,191.99L630.19,193.05L629.96,193.75L630.63,194.19L631.44,194.51L632.43,194.68L632.43,195.85L631.83,196.37L632.49,196.03L632.09,196.96L631.83,197.85L631.79,198.7L632.38,199.44L632.32,200.17L632.78,199.56L632.91,200.26L633.63,200.41L633.06,201.29L632.67,201.98L631.96,203.46L631.89,204.21L631.91,205.02L631.51,206.69L631.62,207.44L631.46,208.25L631.31,209.14L631.49,210.2L630.7,210.59L630.12,211.03L630.38,211.93L629.86,212.53L630.56,213L630.58,213.76L631.13,214.41L631.12,215.44L631.31,216.17L631.49,216.93L631.47,218.04L631.32,219.25L631.6,219.91L631.98,220.78L631.4,222.67L631.23,223.8L631.47,224.49L631.06,225.32L630.87,226.25L630.06,226.92L629.34,227.73L629.05,228.65L628.26,229.55L627.86,230.26L627.82,231.05L627.59,231.74L627.24,232.4L626.98,233.08L626.63,233.9L626.42,234.7L626.08,235.37L625.54,236.12L625.21,236.88L624.86,237.77L624.28,238.51L623.63,239.66L623.16,240.4L622.72,241.3L622.44,241.97L622.11,242.71L622.01,243.6L622.5,244.12L621.98,244.98L621.89,245.72L621.1,246.51L620.78,247.16L620.72,247.86L620.11,248.53L620.04,249.3L619.18,250.06L618.89,250.82L618.48,251.5L617.92,252.03L617.33,252.84L616.56,253.38L615.87,254.24L615.52,254.88L615.52,255.59L615.19,256.34L615.05,257.11L613.8,258.17L612.84,258.79L612.05,259.41L611.41,259.73L611.61,260.54L610.93,260.85L610,260.89L609.09,261.28L608.41,261.73L607.9,262.29L607.41,262.92L606.85,263.64L606.47,264.35L605.93,264.82L605.48,265.48L604.78,265.71L604.59,266.51L604.3,267.21L603.59,267.5L602.79,267.38L603.13,268.01L603.01,268.77L602.81,269.55L602.26,270.09L602.2,270.93L601.48,271.16L600.84,271.49L601.62,271.7L601.03,272.1L600.55,272.8L599.82,273.25L599.25,273.79L598.77,274.39L598.48,275.07L598.38,275.76L597.79,276.25L597.71,277L597.26,278.1L596.64,278.59L596.13,279.14L596.39,279.81L596.7,280.48L596.15,281.26L596.15,280.54L595.45,280.63L595.39,281.35L595.21,282.05L594.36,282.02L593.86,282.54L593.34,283.15L592.96,283.85L592.48,284.4L592.27,285.13L591.54,285.92L591.06,286.66L590.33,286.69L590.5,287.43L589.68,288.17L589.41,289.32L588.82,289.76L588.81,290.63L588.77,291.51L588.32,292.2L587.85,292.88L587.56,293.89L587.13,294.6L586.66,295.31L586.29,296.1L585.9,296.77L585.77,297.5L585.56,298.21L585.04,298.71L585.69,299.24L585.81,300.28L585.06,300.42L584.88,301.24L584.8,302.28L584.06,302.75L583.22,302.81L582.7,303.38L582.21,304L581.52,304.39L580.85,304.62L579.63,304.85L578.46,304.88L576.86,304.87L575.74,304.95L574.45,305.06L572.35,305.17L571.05,305.47L569.43,306.01L568.18,306.59L566.81,307.44L565.17,308.66L563.3,310.23L562.47,310.89L561.58,311.77L560.83,312.31L559.32,312.72L558.49,312.92L557.67,312.98L556.96,312.85L556.17,312.94L555.86,313.63L556.04,314.33L556.79,314.29L557.31,313.79L557.42,314.53L557.08,315.23L557.11,316.11L556.65,316.65L555.95,316.47L555.75,315.5L555.45,314.38L554.39,314.05L553.7,314.73L553.57,314.03L553.28,313.05L552.83,312.35L552.11,312.69L551.52,311.95L550.67,311.51L551.07,310.92L551.69,310.46L552.06,309.83L551.83,308.88L550.95,308.79L550.27,309.06L549.78,309.58L549.8,310.37L549.01,310.31L548.34,310.97L547.65,311.22L546.46,309.82L547.24,310.06L548.01,309.79L548.63,309.22L549.11,308.54L549.66,307.84L549.55,306.93L549.09,306.37L548.8,305.56L548.1,305.78L547.55,306.32L546.89,306.7L545.85,307.14L545.38,307.71L544.6,307.66L545.36,308.29L546.36,307.82L546.64,308.57L546.11,309.03L545.2,309.28L544.45,309.31L543.55,309.87L542.9,310.28L542.19,310.67L541.54,311.01L541.09,311.42M541.05,311.61L541.05,311.63M625.82,60L626.4,60.47L627.48,60.66L628.18,60.93L629.12,61.16L629.9,61.65L630.61,61.77L631.47,61.91L632.19,62.29L633.13,62.28L633.83,62.21L634.5,61.98L632.82,62.87L632.03,63.03L631.21,62.79L630.33,62.65L629.83,63.22L630.51,63.54L631.2,63.78L632.35,64.2L632.69,64.91L631.41,65.47L630.72,65.57L630.05,66L628.96,66.04L628.17,65.97L627.49,65.68L626.75,65.39L626.15,64.95L625.43,64.85L626.03,64.48L627.06,64.4L626.55,63.81L625.81,63.67L625.01,63.2L623.8,62.98L623.04,63.04L622.34,62.99L621.41,62.43L620.57,62.57L619.7,62.2L618.95,62.09L618.2,62.3L617.12,62.1L616.33,62.13L615.93,61.54L615.58,60.92L615.17,61.62L614.38,61.53L613.25,61.71L612.53,61.55L611.87,61.14L611.18,60.86L610.12,61.19L609.42,61.47L609.04,60.86L608.47,60.4L607.61,60.53L607.02,60.12L606.79,60M557.78,352.81L557.26,352.27L556.68,352.67L556.03,352.22L555.99,351.5L555.98,350.79L556.52,350.22L556.73,351.11L557.45,351.14L557.55,350.4L557.02,349.9L556.28,349.58L555.59,349.42L555.56,350.58L554.74,351.12L555,350.46L554.73,349.7L554.32,348.92L554.35,349.75L554.09,350.59L553.48,351.02L553.3,351.79L553.1,352.52L552.73,353.25L552.01,352.89L552.23,352.15L551.54,351.84L551.23,352.54L551.81,353.14L551.15,353.57L550.98,354.43L550.44,354.98L549.93,355.7L549.5,356.42L548.6,356.33L548.11,355.71L548.06,355L547.56,355.49L546.7,355.44L546.06,355.12L545.47,355.54L544.77,355.54L544.61,354.76L544.21,354.11L545.23,353.9L545.96,354.08L545.99,353.28L545.43,353.74L544.73,353.42L544.6,352.64L544.02,353.19L543.6,352.44L543.5,351.66L543.05,351L542.45,350.45L542.17,349.75L542.09,348.98L542.12,348.27L541.83,347.57L541.74,346.72L541.79,345.75L541.75,344.94L541.9,344.15L542.52,344.5L543.09,345.24L543.06,346.08L543.71,345.44L543.18,344.36L542.98,343.58L542.35,343.92L542.58,343.06L542.65,342.34L542.28,341.23L541.83,340.69L541.56,339.74L541.18,339.15L541.15,337.96L540.87,337.09L540.94,336.38L540.66,335.3L540.76,334.38L540.75,333.59L540.82,332.8L541.25,332.22L541.57,331.49L541.65,330.56L542.55,330.7L543.43,330.91L544.02,331.46L545.05,331.38L545.37,330.66L545.34,331.37L546.03,331.81L546.93,331.8L547.42,332.48L548.11,332.62L548.36,333.31L549.05,333.5L549.71,333.93L550.87,334.53L551.77,334.64L552.72,334.49L553.39,334.7L553.88,334.03L554.59,333.74L554.81,334.54L555.53,334.55L555.04,334.04L555.59,333.39L556.25,333.16L557.56,333.22L558.47,332.64L559.09,332.97L560,332.74L560.59,332.03L561.28,331.62L561.9,332L562.61,332.05L563.2,331.36L563.81,330.9L564.36,331.62L565.17,332.48L565.28,333.18L564.76,334.1L564.44,334.76L564.59,335.53L564.01,336.03L564.75,335.73L563.88,337.13L563.7,337.81L563.66,338.71L563.34,339.77L562.92,340.41L563.04,341.1L562.7,341.98L562.86,342.94L562.63,343.77L562.18,344.42L562.25,343.71L562.55,343.02L561.66,342.49L562.3,342.04L561.65,342.37L561.11,342.85L560.82,343.61L560.33,344.22L559.87,344.78L559.76,345.88L559.46,346.59L558.72,346.77L558.87,347.5L558.72,348.32L558.1,348.86L557.74,349.48L558.46,349.61L558.54,350.35L557.98,351.31L557.77,352.03L557.78,352.81M543.89,330.24L543.2,330.72L543.34,329.84L543.89,330.24M543.53,328.48L543.55,327.76L543.53,328.48M592.13,140.33L591.56,140.75L592.13,140.33M653.69,71.26L653.15,70.71L654.16,70.91L653.69,71.26M650.96,65.57L650.51,66.21L649.5,65.94L648.64,65.57L649.44,65.61L650.14,65.74L650.96,65.57M635.96,65.34L635.54,65.91L634.9,65.6L635.5,65.21L635.96,65.34M590.79,137.06L590.1,137.2L590.27,136.5L590.79,137.06M553.27,353.78L553.11,354.57L552.76,355.19L552.26,354.68L551.7,355.2L551.53,354.4L552.13,354.03L552.82,353.51L553.27,353.78M554.19,351.94L554.18,352.67L553.54,352.34L553.8,351.67L554.19,351.94M560.22,347.29L559.62,347.85L559.17,348.46L559.27,347.71L559.77,347.2L560.22,347.29M567.41,327.64L567.19,328.36L566.51,328.79L565.87,328.42L564.89,328.35L564.6,327.68L565.52,327.39L566.31,327.31L567,327.08L567.41,327.64M551.45,309.51L550.81,310.39L550.18,309.88L550.9,309.57L551.45,309.51M632.96,213.46L632.94,214.24L632.09,216.15L631.91,215.41L632.09,214.63L632.39,213.77L632.96,213.46M632.51,212.79L632.49,212.07L632.49,211.24L632.67,210.51L633.37,210L632.94,211.39L632.7,212.19L632.62,212.92L632.51,212.79M622.14,180.42L622.23,181.14L621.57,181.42L621.2,180.66L620.69,179.91L620.34,179.27L620.45,178.54L621.39,178.85L622.18,178.86L621.92,179.69L622.14,180.42M588.4,133.87L588.32,134.59L587.51,134.59L587.4,133.8L586.82,133.13L587.65,132.94L587.84,132.24L588.24,132.86L588.34,133.59L588.4,133.87M663.1,71.88L662.52,72.3L661.75,72.5L661.01,72.49L661.66,72.09L662.25,71.55L662.99,71.75L663.1,71.88M561.96,344.66L561.96,344.66M558.74,313.39L558.05,313.75L558.74,313.39M632.94,194.55L632.94,194.55M622.72,181.78L622.72,181.78M611.66,168.74L611.57,169.51L611.66,168.74M617.15,163.46L617.15,163.46M617.29,162.91L617.29,162.91M609.1,151.8L608.89,152.52L609.1,151.8M604.34,147.81L604.41,148.54L604.34,147.81M651.86,157.19L651.86,157.19M644.95,63.54L644.95,63.54M643.04,63.04L643.04,63.04M642.96,62.29L642.96,62.29M643.55,164.96L643.55,164.96M643.58,164.95L643.58,164.95M643.2,164.78L643.2,164.78M644.36,164.49L644.36,164.49M645.7,162.53L645.7,162.53M607.35,129.31L607.35,129.31M606.86,128.17L606.86,128.17M606.85,127.46L606.85,127.46M620.16,121.36L620.16,121.36M620.86,121.12L620.86,121.12M603.47,117.1L603.47,117.1M621.64,114.9L621.64,114.9M621.82,114.05L621.82,114.05M621.67,114.05L621.67,114.05M643.13,164.4L643.13,164.4M621.37,115.45L621.37,115.45M564.94,328.97L565.94,328.66L565.5,329.3L564.94,328.97M542.89,328.06L542.73,328.77L542.39,329.5L542.28,328.8L542.82,327.97L542.89,328.06M550.34,311.21L549.58,311.33L548.88,311.4L549.41,310.84L550.12,310.7L550.34,311.21M618.35,168.17L617.9,168.83L618.03,167.99L618.35,168.17M613.63,166.11L613.61,166.92L613.32,167.65L613.18,166.78L613.63,166.11M609.01,150.89L608.28,150.97L608.29,150.21L608.54,149.45L608.64,150.2L609.08,150.76L609.01,150.89M608.32,149.38L608.01,148.72L608.32,149.38M634.29,64.73L634.35,65.45L633.5,65.64L633.56,64.92L634.29,64.73M565.14,325.67L564.9,324.89L564.82,324.14L564.81,323.42L564.01,323.28L564.78,322.83L565.05,322.08L565.72,321.81L566.57,323.46L567.49,324.01L567.21,324.89L566.6,325.46L567.23,325.89L566.57,326.19L565.92,326.6L565.17,326.47L565.14,325.67M539.29,323.4L539.35,324.18L538.85,324.75L538.21,325.15M539.16,320.65L539.68,321.25L539.59,322.11L539.52,322.84L539.29,323.4M636.71,192.08L636.34,192.89L635.4,194.43L634.16,196.25L633.17,198.04L633.13,198.85L632.39,198.59L632.42,197.86L632.31,197.04L632.95,196L633.46,195.4L633.68,194.58L633.71,193.79L634.71,193.18L635.27,192.68L635.81,191.78L635.58,190.77L635.76,189.96L636.46,189.53L636.24,190.93L636.34,191.65L636.71,192.08M658.4,73.97L657.72,74.21L657.01,74.21L656.32,74L655.59,73.91L655.27,73.26L654.37,73.42L654.2,72.64L653.69,72.05L654.42,71.97L655.16,72.29L656.26,72.82L656.92,73.13L657.89,73.4L658.4,73.97M638.28,60L638.03,60.66L637.7,61.32L636.14,61.04L635.41,60.97L635.42,60.26L635.65,60M636.21,60L636.83,60.37L636.96,60M563.73,326.92L563.73,326.92M563.62,324.65L563.62,324.65M562.23,319.65L562.23,319.65M620.55,176L620.55,176M620.09,175.11L620.09,175.11M636.05,168.91L636.05,168.91M636.17,168.79L636.17,168.79M614.45,166.7L613.74,167.22L614.24,166.68L614.45,166.7M613.39,165.65L613.39,165.65M634.64,165.59L634.64,165.59M615.9,165.5L615.9,165.5M634.46,163.9L634.46,163.9M634.72,163.89L634.72,163.89M613.44,162.14L613.44,162.14M612.81,159.68L612.81,159.68M615.03,156.98L615.03,156.98M611.41,156.11L611.41,156.11M611.11,156.08L611.11,156.08M612.8,155.63L612.8,155.63M610.1,155.18L610.1,155.18M610.28,155.04L610.28,155.04M611.8,154.58L611.8,154.58M609.24,153.98L609.24,153.98M607.39,151.44L607.39,151.44M607.29,150.37L607.29,150.37M614.55,148.36L614.55,148.36M587.4,131.86L587.4,131.86M587.59,130.23L587.59,130.23M587.04,121.06L587.04,121.06M584.63,101.08L584.63,101.08M580.43,99.65L580.43,99.65M574.73,96.71L574.73,96.71M574.48,96.63L574.48,96.63M576.83,96.33L576.83,96.33M574.26,74.11L574.26,74.11M654.23,71.41L654.23,71.41M644.63,71.15L644.63,71.15M651.51,70.27L651.51,70.27M650.19,70.18L650.19,70.18M652.34,70.17L652.34,70.17M652.8,70.13L652.8,70.13M646.48,69.99L646.48,69.99M649.65,69.98L649.65,69.98M648.65,69.53L648.65,69.53M645.38,67.18L645.38,67.18M643.14,67.17L643.14,67.17M641.13,66.77L641.13,66.77M647.37,66.72L647.37,66.72M637.87,66.63L637.87,66.63M637.33,66.36L637.33,66.36M647.29,66.24L647.29,66.24M637.8,65.48L637.8,65.48M637.39,65.36L637.39,65.36M637,65.13L637,65.13M633.04,65.42L633.04,65.42M639.02,63.44L639.02,63.44M635.76,62.37L635.76,62.37" class="land"/><path d="M571.9,257.6L571.9,233.6" class="screen-arrow" marker-end="url(#screen-arrow)"/><path d="M571.9,257.6L576.69,234.08" class="geo-arrow" marker-end="url(#geo-arrow)"/><path d="M631.52,157.28L631.52,133.28" class="screen-arrow" marker-end="url(#screen-arrow)"/><path d="M631.52,157.28L635.51,133.61" class="geo-arrow" marker-end="url(#geo-arrow)"/></g><text x="418" y="62" class="label">Sinusoidal</text><clipPath id="clip-australia-east-laea"><rect x="805" y="42" width="380" height="340"/></clipPath><rect x="805" y="42" width="380" height="340" class="panel"/><g clip-path="url(#clip-australia-east-laea)"><path d="M956.57,114.06L957.22,113.72L957.82,113.15L958.31,112.62L958.53,111.81L959.16,112.21L960.81,111.58L961.16,110.91L962.17,111.57L962.04,112.27L962.43,113.33L962.93,113.98L963.75,113.95L964.35,114.37L965.1,114.35L965.47,115.3L966.14,115.74L966.94,115.95L967.72,116.06L968.6,116.92L968.38,118.08L968.15,118.9L968.44,119.6L969.14,119.35L968.59,120.03L968.34,120.8L968.47,121.59L968.75,122.32L969.12,123.69L969.15,124.48L969.09,125.28L969.77,125.99L970.04,126.9L969.75,127.83L969.68,128.73L969.49,129.68L969.93,130.27L970.42,130.97L970.85,131.71L971.51,132.19L972.02,132.71L972.6,133.3L972.58,134.05L973.27,133.53L973.97,133.39L973.99,134.15L973.7,134.95L974.33,135.78L974.76,136.89L975.09,137.54L975.36,138.67L975.89,139.45L975.59,140.21L975.56,140.96L975.53,141.7L975.41,142.39L974.63,143.82L974.43,144.59L974.58,145.37L975.27,146.05L976.04,146.24L976.27,147.19L976.97,147.33L977.33,148.13L976.92,149.03L976.73,150.08L976.92,150.79L977.9,151.54L978.51,152.11L979.21,152.43L980.11,152.81L980.98,152.63L981.49,153.14L982.13,153.52L982.9,153.51L983.51,152.92L983.84,153.58L984.5,154.33L985.33,154.26L987.19,154.06L987.09,153.33L987.83,154.33L988.35,154.88L988.57,155.66L988.71,156.42L989.45,157.43L990.38,157.39L990.14,156.17L991.01,156.45L991.08,157.23L991.7,157.79L992.5,157.82L993.15,157.52L994.18,157.93L994.93,158.03L994.76,158.76L995.3,159.44L995.97,159.72L996.62,159.39L996.43,158.7L997.14,158.8L997.73,159.52L998.51,159.58L998.54,160.31L999.25,160.05L999.76,160.58L1000.02,161.42L1000.66,161.8L1000.12,162.34L999.78,161.66L999.13,161.97L998.53,162.65L998.44,163.38L998.81,164.14L999.46,164.44L999.73,165.11L1000.45,165.33L1001.24,165.51L1001.82,165.98L1002.57,166.23L1003.16,166.87L1002.77,167.7L1002.99,168.48L1003.66,168.68L1003.66,169.43L1003.42,170.25L1004.2,170.31L1004.57,170.92L1005.17,170.44L1004.82,171.28L1005.01,172.04L1004.59,172.77L1004.93,173.46L1005.24,174.63L1005.31,175.34L1005.43,176.03L1005.84,176.65L1006.32,177.22L1006.64,178.01L1006.21,178.67L1006.86,178.39L1007.57,177.61L1008.17,177.99L1008.97,178.71L1009.46,179.52L1009.49,178.82L1008.99,177.56L1008.82,176.82L1009.17,175.98L1009.59,175.39L1010.29,175.3L1010.62,176.02L1011.19,176.67L1012.16,177.34L1012.93,177.67L1013.57,178.08L1014.87,178.69L1014.62,178.03L1014.32,177.17L1014.71,176.23L1015.39,176.44L1015.89,177.1L1015.83,177.87L1015.91,178.69L1016.3,178.08L1016.46,178.87L1016.76,179.54L1016.53,180.25L1016.32,181.01L1016.11,181.71L1015.88,182.98L1016.11,183.75L1016.2,184.48L1016.13,185.46L1016.65,185.95L1016.66,186.78L1017.34,186.47L1018.06,186.97L1018.69,187.35L1018.98,188.07L1019.82,188.58L1020.5,188.89L1021.1,189.52L1021.78,189.78L1022.2,190.45L1023.02,190.16L1023.45,189.48L1023.92,190.12L1024.56,190.59L1025.18,190.96L1025.78,191.43L1026.19,192.88L1026.6,193.72L1027.12,194.33L1028.66,195.29L1029.54,195.39L1030.24,196.16L1030.19,197.29L1030.78,198.26L1030.61,198.96L1031.33,199.18L1032.16,199.45L1032.93,199.23L1033.66,199.53L1033.69,200.63L1033.12,201.11L1033.78,200.8L1033.44,201.75L1033.25,202.64L1033.31,203.45L1034.08,204.09L1034.1,204.79L1034.56,204.14L1034.88,204.92L1035.64,204.84L1035.08,205.76L1034.73,206.47L1034.1,207.98L1034.12,208.71L1034.23,209.48L1033.99,211.12L1034.21,211.83L1034.13,212.62L1034.07,213.49L1034.41,214.48L1033.55,214.95L1032.94,215.45L1033.35,216.28L1032.82,216.78L1033.56,217.19L1033.81,217.98L1034.45,218.31L1034.71,218.97L1034.75,219.73L1035.31,220.5L1035.49,221.28L1035.13,221.96L1035.38,223.1L1035.79,223.69L1036.35,224.46L1035.92,226.33L1035.87,227.43L1036.25,228.04L1035.88,228.88L1035.78,229.79L1034.93,230.53L1034.45,231.06L1034.02,231.73L1033.94,232.43L1033.19,233.24L1032.81,233.97L1032.87,234.72L1032.56,235.79L1032.32,236.46L1032.15,237.2L1031.75,237.87L1031.54,238.56L1031.27,239.37L1030.79,239.96L1030.51,241.01L1029.74,242.18L1029.14,243.34L1028.67,244.1L1028.29,245L1028.05,245.66L1027.75,246.39L1027.76,247.24L1028.4,247.66L1027.91,248.53L1027.9,249.24L1027.08,250.07L1026.78,250.72L1026.36,251.82L1026.29,252.57L1025.62,253.28L1025.14,254.11L1024.6,254.82L1024.07,255.61L1023.49,256.44L1022.66,257.03L1021.96,257.92L1021.62,258.55L1021.88,259.27L1021.43,259.95L1021.36,260.68L1020.03,261.81L1018.97,262.5L1018.39,262.95L1017.87,263.51L1017.16,263.71L1017.81,263.98L1017.2,264.5L1015.89,264.78L1014.87,265.24L1014.12,265.74L1013.58,266.31L1013.08,266.95L1012.51,267.68L1012.15,268.38L1011.57,268.87L1011.12,269.53L1010.33,269.73L1010.32,270.44L1009.95,271.09L1009.32,271.46L1008.58,271.77L1008.01,272.21L1008.71,271.83L1008.76,272.63L1008.58,273.38L1008.25,274L1007.93,274.92L1007.27,275.16L1006.7,275.57L1007.43,275.68L1006.79,275.99L1006.19,276.82L1005.37,277.31L1004.76,277.87L1004.27,278.47L1004.01,279.13L1003.77,279.92L1002.86,280.38L1003.5,280.68L1002.95,282.04L1002.26,282.55L1001.72,283.11L1002.11,283.69L1002.58,284.27L1002.02,285.05L1002,284.27L1001.19,284.43L1001.11,285.21L1000.44,285.75L999.66,286.09L999.07,286.76L998.87,287.46L998.25,288.06L997.89,288.89L997.06,289.78L996.58,290.5L995.7,290.6L996,291.25L995.1,292.01L994.92,293.09L994.27,293.45L994.43,294.16L994.45,294.97L994.17,295.69L993.56,296.29L993.31,296.97L993.15,297.78L992.45,298.64L992.18,299.34L991.65,299.87L991.27,300.69L991.31,301.41L990.89,301.97L991.7,302.44L991.97,303.37L991.21,303.43L990.97,304.33L991.01,305.28L990.16,305.77L989.14,305.91L988.58,306.47L988.05,307.07L987.37,307.41L986.53,307.71L985.02,308.07L984.37,308.42L983.58,308.21L981.62,308.35L980.26,308.52L978.69,308.74L976.13,309.02L974.57,309.41L972.64,310.03L971.18,310.67L969.59,311.54L967.72,312.78L965.61,314.34L964.66,315L963.66,315.86L962.8,316.41L962.23,316.83L960.98,316.9L959.97,317.14L958.98,317.26L958.25,317.29L957.26,317.31L956.56,317.78L957.13,318.24L957.2,318.96L957.85,318.59L958.46,318.23L958.89,318.83L958.46,319.4L958.64,320.1L958.13,320.62L957.41,320.68L957.11,319.98L956.86,319.22L956.38,318.68L955.69,318.34L954.94,318.61L954.25,319.14L953.77,317.99L953.15,317.35L953.84,317.52L953.28,317.08L952.05,317.44L951.24,316.83L950.14,316.49L950.57,315.94L951.29,315.48L951.68,314.89L951.29,314.06L950.51,314.03L949.77,314.05L949.21,314.48L948.93,315.33L948.16,315.49L947.45,315.88L946.47,316.37L944.75,315.31L945.74,315.46L946.67,315.16L947.37,314.6L947.89,313.96L948.49,313.29L948.26,312.49L947.64,312.02L947.18,311.32L946.35,311.57L945.72,312.1L944.95,312.49L943.71,312.96L943.18,313.5L942.22,313.52L943.23,314.02L944.42,313.53L944.84,314.18L944.23,314.63L943.13,314.92L942.4,314.96L941.15,315.56L940.39,315.98L939.54,316.37L938.77,316.72L938.26,317.13M938.23,317.3L938.23,317.32M1012.58,67.45L1013.25,67.84L1014.44,67.86L1015.15,68.03L1015.86,67.93L1016.48,68.31L1017.54,68.57L1018.25,68.43L1018.98,68.49L1019.68,68.79L1020.7,68.64L1021.46,68.46L1022.17,68.12L1021.58,68.52L1020.42,69.28L1019.73,69.55L1018.86,69.47L1018.09,69.46L1017.39,69.73L1017.97,70.32L1018.73,70.45L1020.03,70.71L1020.45,71.37L1019.11,72.14L1018.36,72.35L1017.84,72.87L1017.13,72.75L1016.49,73.09L1015.62,73.14L1014.86,72.95L1014.13,72.82L1013.59,72.33L1012.85,72.45L1013.43,71.86L1014.29,71.72L1013.69,71.2L1013.21,71.77L1012.82,71.08L1011.96,70.81L1011.25,70.65L1010.31,70.87L1009.53,70.98L1008.85,71.14L1007.98,70.57L1007.28,70.84L1006.1,70.59L1005.28,70.59L1004.59,70.81L1003.93,71.07L1003.17,70.85L1002.42,71L1001.95,70.47L1001.51,69.89L1001.21,70.54L1000.48,70.71L999.78,70.91L999.04,71.02L998.24,70.96L997.49,70.64L996.78,70.46L996.03,70.82L995.22,70.89L994.48,70.9L993.67,70.85L993.02,70.54L992.44,71L992.21,70.28L991.86,70.19M963.91,352.42L963.25,352.07L962.51,352.38L961.62,352.03L961.36,351.35L961.67,350.68L962.25,350.27L962.37,351.01L963.13,351.03L963.32,350.33L962.65,349.95L961.95,349.89L961.42,349.39L960.72,349.62L960.82,350.64L959.85,351.17L960.12,350.43L959.51,349.9L959.05,349.28L959.19,349.99L958.96,350.75L958.24,351.17L958,351.98L957.84,352.95L957.05,353.12L956.8,352.43L956.11,352.52L956.47,353.25L955.79,353.52L955.49,354.32L954.78,354.48L955.47,354.82L954.77,354.99L954.63,355.79L953.85,356.15L953.12,355.99L951.99,355.63L951.72,354.96L951.06,355.52L950.18,355.5L949.47,355.56L948.73,355.6L947.99,355.54L947.26,355.84L947.44,355.05L946.9,354.57L948.12,354.26L948.85,354.44L949.35,353.93L948.53,354.02L947.82,354.06L947.31,353.5L946.61,353.57L945.88,353.1L945.66,352.43L945.01,351.88L944.18,351.44L943.75,350.85L943.51,350.05L943.35,349.08L942.71,348.75L942.73,347.98L942.71,346.94L942.78,345.98L943.46,346.18L944.41,346.85L944.46,347.59L945.1,347.25L945.52,346.63L944.8,346.49L944.32,345.92L944.07,345.26L943.5,345.7L943.52,344.98L943.28,343.77L942.36,342.98L941.86,342.14L941.31,341.64L941.14,340.61L940.7,339.86L940.65,339L940.23,338.3L940.26,337.49L940.17,336.79L940.17,336.09L940.64,335.55L940.97,334.89L940.97,334.06L941.7,334.17L942.63,334.28L943.38,334.24L944.05,334.69L945.33,334.54L945.65,333.88L945.75,334.58L946.6,334.86L947.74,334.78L948.42,335.34L949.17,335.36L949.69,336.01L950.59,336.12L951.46,336.46L952.26,336.67L952.99,336.9L954.13,336.93L955.3,336.73L956.04,336.91L956.56,336.4L957.28,336.05L958.01,336.27L958.74,336.55L958.16,336.16L958.76,335.54L959.57,335.29L961.21,335.24L962.28,334.66L963.1,334.9L963.85,334.91L964.86,333.95L965.51,333.57L966.32,333.74L967.06,333.95L967.83,333.43L968.21,332.79L968.96,332.89L969.61,333.36L970.64,333.99L970.65,334.71L970.33,335.45L970,336.22L969.81,337.07L970.52,336.89L969.61,338.19L969.61,339.17L969.27,339.95L969.15,340.67L968.89,341.41L968.95,342.14L968.64,342.95L968.61,343.78L968.69,344.48L967.98,344.55L968.45,344.02L968.12,343.26L968.29,342.51L967.49,342.62L967.89,343.33L967.09,343.37L966.58,344.13L966.05,344.71L965.54,345.24L965.54,346.21L965.24,346.86L964.53,347L964.62,347.7L964.53,348.42L963.82,348.94L963.36,349.62L964.04,349.37L964.59,349.88L964.19,350.52L963.82,351.2L964.09,351.85L963.91,352.42M943.75,333.62L942.94,334.1L943.01,333.31L943.75,333.62M943.1,332.1L943.21,331.39L943.1,332.1M982.07,152.02L981.47,152.5L982.07,152.02M1043.79,74.4L1043.15,73.94L1043.86,73.76L1043.79,74.4M1040.31,69.09L1039.89,69.82L1038.77,69.71L1037.8,69.48L1038.54,69.42L1039.44,69.4L1040.07,69.04L1040.31,69.09M1024.04,71.29L1023.64,71.94L1022.91,71.73L1023.53,71.24L1024.04,71.29M980.28,148.99L979.51,149.2L979.65,148.5L980.28,148.99M958.32,353.59L958.21,354.29L957.73,354.93L957.15,354.45L956.64,354.93L956.12,354.41L956.83,354.56L956.96,353.82L957.71,353.39L958.32,353.59M959.25,351.92L959.33,352.75L958.63,352.88L958.32,352.24L958.88,351.56L959.25,351.92M966.3,347.41L965.61,347.94L965.12,348.51L965.19,347.69L965.84,347.25L966.3,347.41M972.82,329.51L972.49,330.29L971.84,330.61L971,330.33L969.77,330.35L969.22,329.9L969.89,329.53L970.62,329.46L971.41,329.31L972.06,329.02L972.75,329.48L972.82,329.51M950.89,314.65L950.19,315.48L949.42,315.43L949.62,314.74L950.35,314.75L950.89,314.65M1036.52,217.38L1036.61,218.12L1035.87,220.05L1035.57,219.38L1035.68,218.61L1035.91,217.75L1036.52,217.38M1035.92,216.8L1035.72,216.05L1035.7,215.33L1035.82,214.61L1036.55,214.03L1036.24,215.41L1036.07,216.2L1036.07,216.91L1035.92,216.8M1020.12,187.19L1020.3,187.88L1019.65,188.2L1019.07,187.55L1018.41,186.89L1017.94,186.32L1017.98,185.6L1018.7,185.75L1019.42,185.9L1019.78,186.52L1020.12,187.19M977.31,146.14L977.29,146.85L976.52,147.02L976.23,146.31L975.47,145.6L976.4,145.31L976.54,144.6L977.21,144.87L977.01,145.64L977.31,146.14M1054.04,73.41L1053.45,73.94L1052.79,74.23L1052.05,74.39L1051.6,73.78L1052.3,73.83L1053.08,73.23L1053.9,73.3L1054.04,73.41M968.16,344.97L968.16,344.97M960.33,317.54L959.69,317.91L959.03,317.55L959.95,317.5L960.33,317.54M1034.12,199.32L1034.12,199.32M1020.93,188.42L1020.93,188.42M1006.92,177.27L1006.89,178.03L1006.92,177.27M1012.59,171.43L1013.3,171.23L1012.58,171.49L1012.59,171.43M1012.69,170.88L1012.69,170.88M1002.29,161.14L1002.13,161.87L1002.29,161.14M996.54,157.85L996.68,158.55L996.54,157.85M1050.97,160.34L1050.97,160.34M1033.63,68.03L1033.63,68.03M1031.52,67.83L1031.52,67.83M1031.36,67.08L1031.36,67.08M1042.56,169.19L1042.56,169.19M1042.6,169.17L1042.6,169.17M1042.16,169.07L1042.16,169.07M1043.43,168.61L1043.43,168.61M1044.7,166.5L1044.7,166.5M998.19,139.32L998.19,139.32M997.54,138.26L997.54,138.26M997.46,137.56L997.46,137.56M1011.74,129.75L1011.74,129.75M1012.5,129.41L1012.5,129.41M992.77,127.77L992.77,127.77M1012.78,123.15L1012.78,123.15M1012.89,122.28L1012.89,122.28M1012.73,122.29L1012.73,122.29M1042.03,168.7L1042.03,168.7M1012.53,123.73L1012.53,123.73M969.92,330.9L971.12,330.54L970.64,331.15L969.91,331.19L969.92,330.9M942.25,331.77L942.09,332.47L941.59,333.15L941.47,332.4L942.15,331.69L942.25,331.77M949.7,316.26L948.78,316.42L947.92,316.53L948.5,315.99L949.25,315.84L949.7,316.26M1014.46,175.84L1014.02,176.55L1014.07,175.71L1014.46,175.84M1008.88,174.47L1008.94,175.26L1008.69,176L1008.43,175.18L1008.76,174.55L1008.88,174.47M1002.1,160.26L1001.39,160.34L1001.05,159.66L1001.43,158.92L1001.62,159.64L1002.17,160.12L1002.1,160.26M1001.17,158.88L1000.47,158.9L1000.87,158.19L1001.17,158.88M1022.17,70.94L1022.3,71.66L1021.58,71.9L1021.35,71.17L1022.05,71.04L1022.17,70.94M969.75,327.96L969.35,327.28L969.16,326.51L968.42,326.15L968.95,325.46L969.19,324.78L969.99,324.48L971.25,325.88L972.46,326.29L972.22,327.09L971.54,327.65L972.22,327.39L972.33,328.12L971.59,328.3L970.84,328.72L970.06,328.76L969.72,328.07L969.75,327.96M937.26,327.9L937.41,328.59L936.84,329.12L936.08,329.52M936.81,325.47L937.46,325.79L937.5,326.55L937.49,327.39L937.26,327.9M1038.11,196.42L1037.85,197.07L1036.91,198.86L1035.72,200.78L1034.81,202.63L1034.86,203.41L1034.11,203.47L1033.93,202.57L1033.7,201.79L1034.18,201.25L1034.48,200.51L1035.02,199.72L1035.11,199.02L1035.97,197.76L1036.55,197.2L1036.95,196.6L1036.88,195.64L1036.41,195.11L1036.85,194.47L1037.51,194L1037.44,195.38L1037.63,196.06L1038.11,196.42M1049.15,76.36L1048.55,76.74L1047.8,76.87L1047.07,76.86L1046.46,76.46L1045.76,76.63L1045.25,76.09L1044.59,75.87L1044.07,75.34L1044.83,74.93L1045.48,75.2L1046.16,75.43L1047.17,75.75L1048.54,75.87L1049.15,76.36M1026.1,65.51L1025.89,66.22L1025.54,66.85L1024.83,67.02L1023.86,66.91L1023.07,66.95L1023.02,66.22L1023.25,65.93M1023.85,65.84L1024.55,66.12L1024.67,65.72M968.15,329.18L968.15,329.18M967.73,327.17L967.73,327.17M965.4,322.85L965.4,322.85M1017.8,183.13L1017.8,183.13M1017.18,182.33L1017.18,182.33M1034.58,174.12L1034.58,174.12M1034.69,173.99L1034.69,173.99M1009.87,174.93L1009.32,175.43L1009.83,174.94L1009.87,174.93M1008.55,174.05L1008.55,174.05M1032.6,171.1L1032.6,171.1M1011.39,173.58L1011.39,173.58M1032.2,169.49L1032.2,169.49M1032.49,169.44L1032.49,169.44M1008.24,170.64L1008.24,170.64M1007.28,168.33L1007.28,168.33M1009.51,165.42L1009.51,165.42M1005.33,165.04L1005.33,165.04M1004.99,165.05L1004.99,165.05M1006.86,164.39L1006.86,164.39M1003.76,164.3L1003.76,164.3M1003.94,164.14L1003.94,164.14M1005.62,163.49L1005.62,163.49M1002.67,163.25L1002.67,163.25M1000.32,161L1000.32,161M1000.11,159.97L1000.11,159.97M1008.1,157.07L1008.1,157.07M976.02,144.29L976.02,144.29M976.09,142.66L976.09,142.66M974.74,133.7L974.74,133.7M970.49,114.21L970.49,114.21M965.72,113.28L965.72,113.28M959.16,111L959.16,111M958.88,110.95L958.88,110.95M961.48,110.38L961.48,110.38M957.14,88.48L957.14,88.48M1044.4,74.46L1044.4,74.46M1033.97,75.8L1033.97,75.8M1041.35,73.77L1041.35,73.77M1039.9,73.89L1039.9,73.89M1042.23,73.53L1042.23,73.53M1042.73,73.41L1042.73,73.41M1035.86,74.32L1035.86,74.32M1039.3,73.79L1039.3,73.79M1038.18,73.5L1038.18,73.5M1034.42,71.65L1034.42,71.65M1031.99,72.01L1031.99,72.01M1029.78,71.92L1029.78,71.92M1036.53,70.86L1036.53,70.86M1026.22,72.3L1026.22,72.3M1025.62,72.12L1025.62,72.12M1036.41,70.38L1036.41,70.38M1026.04,71.15L1026.04,71.15M1025.59,71.09L1025.59,71.09M1025.15,70.92L1025.15,70.92M1020.87,71.84L1020.87,71.84M1027.2,68.89L1027.2,68.89M1023.57,68.31L1023.57,68.31" class="land"/><path d="M970.09,265.73L970.09,241.73" class="screen-arrow" marker-end="url(#screen-arrow)"/><path d="M970.09,265.73L973.5,241.98" class="geo-arrow" marker-end="url(#geo-arrow)"/><path d="M1028.15,163.45L1028.15,139.45" class="screen-arrow" marker-end="url(#screen-arrow)"/><path d="M1028.15,163.45L1030.04,139.53" class="geo-arrow" marker-end="url(#geo-arrow)"/></g><text x="813" y="62" class="label">LAEA</text><path d="M20,408L20,388" class="screen-arrow" marker-end="url(#screen-arrow)"/><text x="30" y="402" class="legend">screen-axis up</text><path d="M170,408L178,389" class="geo-arrow" marker-end="url(#geo-arrow)"/><text x="190" y="402" class="legend">geo-axis true north</text>
</svg>
