<svg xmlns="http://www.w3.org/2000/svg" width="1200" height="430" viewBox="0 0 1200 430" role="img">
<style>
  .panel{fill:#edf3f3;stroke:#8b9494;stroke-width:1}.land{fill:none;stroke:#555f61;stroke-width:.8}.route{fill:none;stroke:#b54736;stroke-width:2.4}.screen-arrow{fill:none;stroke:#6b7280;stroke-width:1.5}.geo-arrow{fill:none;stroke:#156b8a;stroke-width:2}.label{font:600 15px system-ui,sans-serif;fill:#243033}.small{font:12px system-ui,sans-serif;fill:#465558}.legend{font:12px system-ui,sans-serif;fill:#243033}
</style>
<defs>
  <marker id="screen-arrow" viewBox="0 0 10 10" refX="8" refY="5" markerWidth="5" markerHeight="5" orient="auto"><path d="M0 0L10 5L0 10Z" fill="#6b7280"/></marker>
  <marker id="geo-arrow" viewBox="0 0 10 10" refX="8" refY="5" markerWidth="5" markerHeight="5" orient="auto"><path d="M0 0L10 5L0 10Z" fill="#156b8a"/></marker>
</defs>
<rect width="1200" height="430" fill="#ffffff"/>
<text x="20" y="24" class="label">New Zealand</text><clipPath id="clip-new-zealand-equirectangular"><rect x="15" y="42" width="380" height="340"/></clipPath><rect x="15" y="42" width="380" height="340" class="panel"/><g clip-path="url(#clip-new-zealand-equirectangular)"><path d="M213.96,268.34L213.97,269.08L213.86,270.67L213.67,271.51L213.99,272.77L214.51,273.97L215.47,274.86L213.77,275.11L212.76,275.62L213.46,275.85L214.23,275.55L215.55,275.42L216.08,276.06L216.57,275.12L217.15,275.54L217.13,276.44L217.88,275.9L218.65,275.92L219.43,275.91L220.19,276.53L220.29,277.24L220.58,278.32L220.38,279.48L219.49,280.18L218.73,280.48L218.12,279.97L218.1,279.22L217.77,278.53L217.28,277.98L217.19,279.14L217.36,280.24L217.92,280.97L216.27,280.95L215.61,280.43L214.6,279.98L213.9,279.38L214.23,278.73L213.42,278.95L211.96,279.12L210.41,279.42L208.83,279.89L208.1,279.99L208.9,279.39L211.61,278.62L210.72,278.13L210.07,277.63L209.44,277.3L208.51,277.52L207.71,277.83L207.46,278.93L207.5,279.72L205.58,280.46L204.68,280.83L203.85,281.06L201.61,282.05L198.14,284.12L197.3,284.14L195.47,285.05L194.52,285.26L193.91,285.77L192.93,286.18L192.1,286.64L191.34,287.11L190.02,288.21L189.22,288.31L188.6,288.81L187.56,290.46L187.49,291.85L187.16,292.53L186.63,293.04L186.32,293.73L185.65,294.02L186.15,295.12L186.15,296.64L186.35,297.62L186.29,298.35L185.65,298.86L186.35,299.42L186.18,301.29L185.78,301.99L185.38,302.87L184.17,304.69L182.18,306.34L181.2,308.03L180.77,309.48L180.32,310.41L180.88,310.9L180.18,311.99L180.08,312.71L179.37,313.61L179.13,314.42L178.45,314.76L178.09,315.61L177.21,315.68L177.11,316.97L176.17,317.49L176.56,318.25L177.36,318.27L178.19,318.67L177.01,319.28L176.3,319.87L175.63,320.15L174.73,321.02L175.55,321.09L176.91,320.46L177.43,319.81L178.12,319.39L178.71,320.69L177.9,321.09L177.18,321.35L173.42,321.91L171.89,322.32L170.55,323.09L169.51,324.28L169.16,324.99L168.94,325.97L168.45,326.97L167.67,327.48L166.72,327.79L165.88,328.38L165.23,329.06L162.74,330.46L162.12,331.13L161.88,332.2L161.84,332.94L160.91,333.38L159.85,333.21L158.72,333.38L160.16,333.59L159.8,334.29L158.59,334.79L157.99,335.19L157.27,335.02L156.39,335.05L155.21,335.67L154.5,336.07L153.62,336.51L152.51,336.15L151.58,336.61L150.53,336.86L150.12,336.23L149.44,336.68L148.7,336.93L148.08,336.46L147.71,337.07L146.62,337.16L145.5,336.79L144.58,336.76L143.92,335.25L143.01,334.97L141.17,335.26L140.6,334.58L139.71,334.56L140.19,335.18L139.23,335.92L136.13,335.67L136.61,335.13L137.51,335.07L138.44,335.44L137.82,334.81L136.26,334.84L135.53,334.48L135.13,335.18L135.68,335.73L134.74,335.4L134.13,334.78L133.45,334.37L134.16,334.01L135.52,333.59L135.56,332.39L134.77,331.92L134.74,332.91L134.03,333.16L133.44,332.05L132.48,330.65L131.68,330.29L129.92,330.54L129.66,331.23L128.78,330.96L128.01,330.96L127.41,331.38L126.55,331.25L125.7,331.44L125,330.84L124.14,330.14L124.81,329.43L123.89,328.47L123.44,327.88L122.44,327.23L121.23,326.7L118.91,326.47L118.57,327.14L118.25,328.01L117.64,328.62L116.74,328.66L115.93,329.01L114.83,328.76L114,328.86L113.31,328.7L112.16,328.27L111.24,328.31L110.01,328.04L107.55,328.09L106.34,327.93L105.33,327.34L104.79,326.77L105.33,326.27L106.2,325.54L106.81,324.85L107.32,323.9L107.98,323.31L109.33,322.67L108.28,322.9L107.5,323.13L106.81,323.58L106.81,324.28L106.18,324.81L105.83,324.13L105.02,325.03L103.72,325.25L103.94,324.42L104.48,323.47L105.33,322.9L106.41,322.69L107.18,322.06L105.94,322.46L105.07,322.25L106,321.18L105.3,321.18L104.78,321.71L104.29,322.34L102.25,323.16L101.59,323.65L101.08,323.13L101.03,322.06L101.04,320.23L101.45,319.57L102.61,319.43L103.85,319.43L104.83,319.29L105.95,319.29L107.37,318.94L108.39,318.95L109.17,318.52L110.39,318L111,317.34L110.23,317.58L108.66,317.49L106.98,317.88L106.9,317.17L108.38,316.56L106.93,316.57L106.49,316.02L106.7,315.24L107.6,315.02L108.5,314.64L109.98,314.84L110.86,314.57L109.99,314.5L110.93,313.99L111.61,313.16L109.22,314.17L107.74,314.41L106.75,314.85L105.95,314.97L105.27,314.5L105.94,313.04L106.26,311.82L107.25,311.16L108.12,311.46L108.99,311.91L109.77,312.06L109.29,311.08L108.45,311.15L107.75,310.86L107.13,310.22L108.1,309.11L108.81,309.28L109.89,309.83L109.4,310.4L110.48,310.15L111.48,310.53L111.48,311.36L110.82,311.84L111.6,311.9L112.17,311.32L113.08,311.42L113.38,312.06L113.71,312.75L114.22,312.24L113.29,311.27L111.48,309.83L112.04,309.41L113.87,308.97L114.7,309.65L115.65,309.93L115,309.36L114.81,308.67L113.71,308.6L111.79,308.81L111.28,307.99L110.84,307.37L110.71,306.23L111.24,305.68L112.2,305.93L112.9,306.72L113.69,306.94L113.08,306.23L112.43,305.55L111.61,305.26L112.32,304.33L113.15,304.07L113.83,304.99L113.87,305.78L114.2,305.11L115.56,305.11L114.27,304.55L113.59,304.02L113.35,303.35L114.02,302.9L114.96,303.21L115.81,303.47L116.66,303.95L114.41,302.64L114.58,301.91L115.48,301.29L116.54,301.09L117.56,300.01L118.39,300.6L118.72,301.35L118.66,302.2L118.88,303.04L119.87,303.05L119.62,302.27L119.15,301.65L119.07,300.74L118.68,299.87L118.85,298.93L120.03,298.41L120.6,298.86L120.37,299.7L120.51,300.61L121.02,300.05L121.35,299.43L120.84,298.59L120.49,297.82L121.21,297.45L121.74,297.95L122.37,298.33L121.85,297.63L121.31,297.07L122.7,296.37L123.19,295.77L124.14,295.16L125.2,295.08L125.99,295.66L126.83,296.16L127.39,297.06L127.51,296.21L126.88,295.68L126.3,295.19L126.02,294.29L125.8,293.41L126.08,292.68L127.57,291.3L128.75,290.56L129.11,289.43L130.72,289.43L131.11,288.69L130.46,288.31L131.3,287.94L132.29,287.13L133.41,286.52L134.12,285.95L134.71,285.33L134.95,284.5L135.55,284.09L135.98,283.5L137.09,283.44L138.36,283.06L139.15,282.58L140.21,282.21L140.8,282.71L142.02,283.14L143.05,282.88L144.03,282.38L145.11,281.49L145.94,281.03L146.6,280.55L147.75,280.05L148.14,279.45L148.83,278.92L150.03,278.04L150.71,277.78L152.01,277.06L152.92,276.81L153.62,276.3L154.3,275.8L155.09,275.81L155.73,275.45L156.45,275.28L157.06,274.89L157.79,275.02L159.11,274.38L160.37,273.37L160.76,272.63L161.59,272.21L161.93,271.3L162.7,270.66L165.09,269.67L165.48,268.82L166.14,268.5L166.62,267.77L167.51,267.34L168.25,267.24L170.01,265.95L168.99,266.28L168.16,267.06L168.5,266.18L169.11,265.58L169.75,264.98L171.08,264.76L171.79,264.07L172.32,263.6L172.97,263.32L173.8,262.8L175.41,262.32L176.1,261.86L176.96,261.78L177.53,261.37L178.39,260.96L179.35,259.87L179.98,259.49L181.52,257.27L182.3,256.89L183.02,256.06L183.66,255.65L184.42,254.57L186.02,252.2L186.58,251.53L186.75,250.42L187.63,249.29L188.01,248.37L188.49,245.38L188.81,244.64L189.07,243.69L189.78,242.89L190.22,242.07L190.52,240.79L190.95,239.73L191.32,238.96L190.94,237.66L192.3,237.62L193.55,237.47L194.91,237.16L196.61,236.24L197.22,235.67L198.03,235.14L198.78,234.43L199.44,233.17L199.74,232.51L200.18,231.82L200.87,230.93L201.78,230.53L201.98,229.56L202.08,228.39L202.8,228.05L202.56,227.22L202.4,224.98L202.6,224.27L202.52,223.03L202.52,220.83L202.43,219.84L203.09,219.5L203.75,218.6L204.25,218.07L204.94,217.64L205.82,217.13L207.04,216.38L208.84,214.47L209.62,213.81L210.29,213.59L210,214.25L210.85,214.27L211.75,213.51L211.01,213.36L211.22,212.56L212.04,212.2L215.6,212.04L216.77,212.17L217.84,212.44L214.13,212.36L213.49,213.04L213.3,213.85L212.87,214.43L212.38,214.99L212.72,215.6L212.89,216.74L213.74,217.37L214.36,217.91L215.9,218.97L216.8,218.66L217.47,217.94L218.29,217.69L218.89,218.28L218.9,219.06L219.46,219.53L219.42,220.83L219.28,221.79L218.43,222.48L219.25,223.49L219.59,224.38L219.04,225.16L219.48,225.73L220.15,226.79L220.39,227.5L220.04,228.2L220.75,228.45L221.58,228.46L222.31,228.25L222.97,227.76L223.59,227.43L224.6,226.31L225.71,225.37L226.36,224.91L227.17,225.17L228.01,224.29L228.77,224.02L229.06,223.27L229.93,223.54L230.13,224.29L230.87,224.15L230.87,223.44L231.78,223.11L230.84,222.89L231.04,222.13L231.78,221.72L232.89,221.51L233.38,220.89L233.76,221.56L234.8,221.1L235.28,220.54L236.17,220.13L236.89,220.25L235.91,220.67L235.66,221.51L234.92,221.65L234.4,222.34L233.58,222.13L232.79,222.16L232.7,222.91L232.65,223.81L233.37,223.42L234.57,223.13L235.66,223.32L235.11,223.85L234.35,223.63L234.33,224.37L233.67,224.89L234.08,225.6L233.98,226.55L233.2,227.25L232.22,227.5L232.71,228.04L234.61,227.09L235.28,226.79L234.58,226.69L235.57,226.44L236.57,226.63L237.28,226.38L237.96,226.18L238.87,225.69L236.84,225.73L236.16,226.09L235.07,226.04L234.44,225.4L234.95,224.75L235.45,224.13L236.17,223.86L236.03,225.12L236.5,224.24L237.28,224.02L236.9,223.42L237.21,222.71L236.46,223.21L235.67,222.59L236,221.89L236.74,221.62L237.39,222.2L238.15,222.52L238.77,222.06L239.55,221.89L240.26,222.13L240.24,222.87L241.21,222.77L241.93,222.15L241.27,223.94L241.09,224.7L240.36,225.12L240.11,224.08L239.47,224.48L240.11,225.47L239.61,226.24L238.99,226.65L238.05,226.66L237.28,227.07L236.53,227.21L235.6,227.36L236.41,227.56L237.32,227.39L238.04,227.25L238.96,226.99L239.82,227.45L240.53,227.25L241.57,227L242.31,226.52L241.81,227.5L241.14,228.11L240.31,228.8L239.61,229.16L240.01,228.51L239.25,228.61L238.5,229.13L237.88,230.25L237.37,230.99L237.59,231.99L237.84,232.68L238.14,233.4L238.36,232.54L239.56,233.85L239.75,234.6L240.25,236.31L240.92,237L241.71,236.93L240.33,239.5L237.93,241.77L236.53,243.03L236.01,243.76L235.66,244.64L235.63,245.62L235.22,246.27L234.5,247.28L233.34,248.01L232.4,249.08L231.73,249.52L231.13,250.07L231.48,250.91L230.77,250.86L229.88,251.17L228.52,252.35L228.17,253.13L227.89,254.02L227.46,254.77L226.67,255.11L225.65,257.91L225.46,258.62L224.84,259.41L224.25,259.86L224.35,260.59L223.88,261.2L223.48,261.87L222.7,262.28L221.99,262.4L221.24,262.72L220.85,263.46L219.98,264.02L217.55,264.52L216.47,265.26L215.09,266.09L214.42,267.33L213.91,268.05L213.96,268.34M289.56,193.91L290.2,194.5L290.8,194.92L291.96,194.99L292.15,195.8L291.87,196.46L291.04,196.87L290.5,198.45L290.05,199.08L289.21,201.26L288.83,202.08L288.49,202.88L288.47,203.62L287.91,204.72L287.46,205.47L286.74,206.38L285.96,207.01L285.12,206.87L284.67,207.43L284.45,208.18L285.06,207.75L283.91,209.79L283.71,211.23L282.96,211.71L282.17,211.72L281.12,213.18L280.05,214.11L279.79,214.8L279.34,215.61L278.67,215.98L277.98,217.5L277.57,218.08L276.94,219.43L276.65,220.39L275.49,221.1L274.79,221.93L274.02,224.2L273.64,224.97L271.82,227.14L269.07,229.06L268.41,229.66L267.51,230.22L266.46,230.68L262.5,233.32L261.27,233.73L260.37,234.49L258.71,234.7L258.25,233.94L257.98,233.21L257.7,232.47L257.99,230.96L255.56,229.9L254.61,229.95L253.31,231.01L252.26,230.85L252.22,230.08L252.07,229.38L252.18,228.45L252.58,227.66L252.45,226.68L251.45,226.64L250.79,226.99L250.33,227.76L251.17,227.94L251.19,228.77L250.44,228.75L249.77,229.16L248.95,229.01L248.07,228.63L247.41,228.05L247.24,227.35L247.78,226.79L248.6,226.65L249.59,225.7L250.48,224.49L251.14,224.14L251.8,224.43L252.04,223.59L251.6,223.02L252.26,222.44L252.91,222.16L253.41,221.54L253.52,220.83L253.9,219.91L255.12,218.6L256.13,217.15L256.98,215.53L257.46,214.15L257.81,213.39L257.87,212.25L257.96,211.55L258.27,210.67L258.43,209.84L258.66,208.68L258.73,207.87L258.31,207.01L258.08,205.69L257.74,204.59L257.22,203.6L255.85,202.37L253.85,200.17L252.59,199.49L251.6,199.08L250.34,199.01L248.23,198.55L247.12,198.45L246.23,198.11L244.32,196.53L242.93,194.72L242.19,194.04L241.3,193.6L240.33,193.33L237.26,192.9L236.22,192.59L233.79,191L233.13,190.38L232.58,189.57L232.24,188.63L232.13,187.71L232.22,186.78L232.46,185.81L232.99,184.9L233.81,184.32L235.66,183.59L240.26,181.06L243.05,181.11L243.92,180.85L244.71,180.33L246.87,178.35L247.29,177.18L247.49,176.44L247.56,175.67L247.8,174.87L248.03,170.71L248.18,169.96L248.81,168.67L249.04,167.96L249.18,167.18L249.27,165.99L249.44,165.27L249.38,164.48L249.13,163.76L249.84,163.62L250.58,163.88L251.43,164.31L252.02,163.7L253.08,163.73L252.71,162.91L251.85,162.46L251.28,162.98L250.73,162.43L251.31,161.9L252.11,161.24L252.21,160.32L251.5,160.62L251.12,161.36L250.56,160.66L250.69,158.74L251.18,157.78L252.03,157.51L253.05,157.5L254.02,157.36L253.96,156.54L253.15,156.37L252.05,156.89L250.6,152.59L249.56,150.34L249.36,149.41L250.26,148.72L250.81,147.76L251.48,147.2L250.47,147.35L249.81,148.31L248.89,147.74L248.17,146.19L247.56,144.82L246.62,142.9L247.3,142.42L248.01,142.22L248.25,142.91L249.12,144.63L249.45,145.8L249.73,145.02L250.43,144.65L249.66,144.3L250.59,143.27L251.44,142.95L252.29,142.61L252.97,143.33L253.27,142.61L252.39,142.06L251.6,141.63L251.31,140.94L250.59,141.24L250.76,140.54L251.36,140.13L250.27,139.72L249.06,139.78L247.98,140.26L247.72,141L246.88,141.09L246.24,141.76L245.45,141.72L244.52,139.05L244.13,137.14L243.79,136.23L242.85,134.69L240.38,131.85L239.85,130.92L239.74,129.99L240.23,129.43L240.01,130.26L240.57,129.79L241.35,130.52L242.12,131.5L242.85,131.92L243.29,132.59L243.03,133.38L243.67,133.88L244.4,133.88L244.78,133.04L245.28,132.49L244.92,131.32L244.54,130.19L244.76,129.49L244.47,128.81L244.27,128.04L243.63,128.59L242.41,128.75L241.45,128.29L241.71,127.29L242.44,127.49L243.2,127.44L243.85,127.15L244.9,126.52L245.57,126.04L244.9,125.8L244.12,126.27L243.13,126.63L242.35,126.72L241.85,126.16L242.56,126.23L243.37,125.35L243.9,124.63L244.56,124.11L243.54,123.32L243.39,124.63L242.95,125.18L242.25,124.96L241.71,124.44L241.35,123.79L240.8,123.18L239.74,123.74L240.17,124.44L240.9,124.59L240.97,125.33L241.68,125.07L242.19,125.69L241.44,125.89L240.59,125.88L239.67,125.14L239,124.3L237.81,124.21L237.26,123.64L236.42,123.16L236.29,122L235.66,121.2L235.23,120.36L235.33,119.42L235.42,118.6L234.8,118.17L235.17,118.88L234.38,119.66L235.23,121.17L235.88,122.06L236.1,122.97L236.45,123.6L237.19,124.15L237.69,124.81L238.82,126.31L239.58,126.41L239.91,127.4L239.96,128.27L238.77,128.88L237.89,128.9L237.46,128.19L236.89,126.23L234.56,123.32L233.91,122.13L229.86,117.12L225.8,112.11L225.82,111.4L226.41,110.67L226.59,109.88L226.94,109.14L227.77,109.42L228.22,108.86L228.77,109.3L228.88,108.56L229.27,107.89L230.07,107.34L229.51,106.76L228.64,106.1L228.4,106.77L228.77,107.48L228.02,108.01L227.38,107.72L226.98,108.39L226.15,108.2L225.84,108.88L225.5,110.93L223.59,109.01L223.47,108.13L224.08,107.48L224.21,106.66L223.33,107.06L222.97,108.05L222.21,107.29L222.89,106.47L221.99,106.51L221,105.69L220.29,104.99L220.45,104.22L221.12,104.45L221.71,103.7L222.05,102.74L222.11,101.7L221.87,100.69L221.3,99.42L219.98,98.06L219.09,96.3L214.88,91.43L214.15,90.85L212.62,89.99L213.11,89.3L213.84,89.01L214.89,89.05L216.14,88.96L218.72,88.79L219.42,88.38L219.25,89.32L219.28,90.41L218.73,90.96L218.18,90.27L217.61,90.72L216.98,91.16L217.57,91.82L218.05,91.24L218,91.94L218.55,93.32L219.04,92.26L218.66,91.24L219.4,92.45L219.57,93.64L219.77,94.43L220.36,95.05L221.1,95.66L221.7,96.35L221.87,97.2L221,96.23L221.45,97.39L223.84,98.7L223.41,99.36L223.23,100.58L224.18,100.85L224.62,100.21L225.07,99.3L224.82,98.32L225.25,97.73L226.12,97.42L226.12,96.72L226.66,97.16L227.26,97.58L226.79,98.18L226.04,98.18L225.83,98.96L226.18,99.58L226.73,100.15L227.47,100.41L228.35,100.31L229.02,100.84L228.84,99.98L228.82,99.08L229.5,99.58L230.36,99.9L231.16,99.99L231.86,100.39L232.58,100.69L232.08,101.38L231.51,101.83L232.15,102.5L232.95,101.38L233.38,100.69L234.5,100.55L234.91,101.24L235.64,101.75L236.03,102.57L236.85,103.02L237.88,102.91L238.76,103.3L239.25,104.23L238.5,104.45L238.14,103.75L237.07,103.83L237.39,104.57L236.73,104.93L237.57,105.11L238.36,105.31L238.14,106.1L238.93,107L239.12,107.97L239.48,107.2L240.23,107.48L240.94,107.27L240.37,106.75L239.42,106.41L240.05,105.98L240.97,106.1L241.64,105.85L242.25,104.99L242.79,105.49L242.44,106.37L242.88,107.06L243.67,107.08L244.05,108.11L243.17,107.77L242.44,107.2L243.39,109.02L244.17,109.34L244.84,109.58L245.42,110.44L244.89,111.02L245.83,111.73L246.7,112.58L246.62,113.74L245.54,113.48L246.01,114.15L246.31,114.86L246.82,115.74L246.9,116.69L247.37,117.63L246.51,117.54L245.76,116.95L245.39,116.11L244.66,116.31L243.98,116.11L243.39,116.53L243.36,115.67L242.93,114.99L242.93,116.53L242.75,117.35L243.47,117.36L245.13,117.23L245.81,117.71L245.43,118.51L245.39,119.66L245.39,120.55L246.42,121.35L247.43,121.55L247.68,122.28L247.91,123.22L248.48,123.74L249.49,125.17L250.07,125.76L250.82,126.23L251.19,126.85L250.96,127.59L251.86,127.8L250.26,127.93L250.25,129.1L250.58,129.99L249.81,129.31L249.67,130.03L249.7,130.8L249.22,131.52L249.47,132.42L249.77,133.11L250.69,133.32L251.46,133.04L250.95,133.73L250.22,133.86L249.47,133.59L250.11,134.44L251.18,137.49L250.3,137.12L249.36,136.73L248.85,136.17L248.21,136.47L247.62,136.94L248.41,137L248.23,137.7L248.61,138.91L249.37,138.38L249.96,137.92L251.07,138.05L252.2,138.05L252.53,138.89L252.08,139.45L252.36,140.24L253.15,137.77L253.66,138.73L253.77,139.72L254.64,139.6L254.5,138.62L255.49,138.59L256.09,139.19L255.88,140.12L256.61,140.46L257.54,139.97L258.42,139.87L259.15,140.19L260.17,141.06L260.44,141.79L260.19,143.67L260.48,144.58L261.04,145.27L261.69,145.6L262.49,145.62L263.31,145.43L264,145.13L264.7,144.81L264.84,145.87L265.72,145.97L265.15,145.39L264.9,144.2L264.55,143.33L264.52,141.97L263.92,140.31L263.41,139.64L262.77,139.15L262.28,138.32L263.09,138.27L263.75,137.92L262.88,137.89L263.38,137.35L264.09,136.73L263.5,136.32L263.11,135.08L263.47,134.05L263.03,133.49L262.39,132.78L261.4,132.38L260.86,131.53L260.8,130.75L261.76,130.54L262.47,130.52L262.84,131.15L263.53,131.57L264.33,131.47L264.51,132.5L264.9,133.18L265.36,133.81L265.36,134.59L265.78,135.29L265.73,136.28L266.7,135.82L267.62,135.6L268.39,135.16L269.12,135.47L269.78,135.7L268.99,135.97L268.56,136.66L267.86,136.97L267.35,137.5L267.29,138.23L267.68,138.85L267.95,137.77L269.32,137.54L269.8,138.07L269.85,138.81L270.29,139.57L270.4,140.54L270.34,141.3L270.04,142.15L270.64,141.79L270.91,142.68L270.34,143.67L270.96,144.27L271.02,145.13L270.53,144.44L270.61,145.39L271.01,146.23L271.57,147.58L271.64,148.39L272.04,149.35L272.42,149.97L271.97,150.59L272.86,150.83L273.79,151.35L274.5,152.45L275.16,153.13L274.32,153.16L273.48,152.9L274.23,152.63L273.6,152.23L273.05,151.72L272.23,151.5L271.39,151.64L271.63,152.33L272.29,152.87L272.33,153.77L273.01,153.98L273.7,154.12L274.44,154.66L275.24,154.51L275.93,154.88L276.04,155.66L276.82,155.54L276.57,154.56L276.17,153.96L277.3,154.9L278.23,155.24L279.31,155.71L280.04,155.91L280.69,156.37L281.4,156.59L285.33,158.85L286.05,159.17L287.19,159.34L288.27,159.71L289.49,159.87L290.48,160.43L292.15,160.63L292.83,160.97L291.77,160.97L292.51,161.68L293.24,161.7L293.07,160.97L293.93,161.24L295.11,161.24L295.79,161.46L296.64,160.97L298.25,160.86L299.01,160.36L300.4,159.59L301.14,158.95L301.21,158.25L301.56,157.56L302.42,157.07L302.9,155.97L303.38,155.33L305.46,154.31L306.39,153.97L306.81,153.39L307.89,153.17L308.52,152.61L313.36,152.4L314,152.69L314.31,153.45L315.11,153.74L315.96,153.8L317.1,154.14L317.87,154.49L318.54,155.27L318.02,156.3L317.34,156.94L316.98,157.88L316.08,158.79L315.32,160.51L314.82,161.17L314.76,162.06L315.22,162.93L314.83,163.73L314.29,164.29L314.74,165.15L314.47,165.95L314.09,166.72L314.69,167.47L314.37,168.45L314.25,169.15L314.64,169.85L313.83,170.62L313.76,172.11L311.63,174.27L309.8,175.7L308.78,175.27L307.87,175.29L307.22,175.56L307.56,176.54L307.36,177.5L307.23,179.02L307.04,180.21L306.75,181.6L306.77,182.34L306.39,182.93L307.5,183.45L308.35,184.23L307.37,185.12L306.94,186.14L306.56,187.02L306,187.48L305.51,186.24L305.39,184.99L305.62,184.33L305.96,183.57L305.13,183.75L304.4,183.33L301.28,183.13L298.37,183.06L297.35,183.17L294.02,184.6L291.56,185.64L291.26,186.33L290.83,187.18L289.75,188.31L289.07,189.23L288.66,189.98L288.86,190.85L289.39,191.63L289.5,193.52L289.56,193.91M257.47,135.82L258.3,136.17L257.69,136.71L257.8,137.47L256.98,137.62L256.22,137.61L255.49,137.35L254.82,137.01L254.77,136.23L255.81,136.23L256.67,136.45L257.47,135.82M105.43,315.69L106.01,316.29L106.21,317.19L105.93,317.95L105.22,318.18L104.46,318.22L104.13,317.57L103.85,316.54L102.42,317.62L101.75,317.89L102.22,316.93L102.83,316.11L104.94,315.68L105.43,315.69M232.58,220.25L232.83,219.56L232.58,218.87L233.31,219.51L233.13,218.8L233.35,217.4L234.12,217.07L234.35,217.86L235.14,217.84L235.38,217.16L235.74,216.35L235.84,217.1L235.77,217.83L235.28,218.47L235.16,219.2L234.51,219.48L233.75,219.97L233.22,220.54L232.46,220.54L232.58,220.25M264.12,126.52L264.61,127.08L264.26,127.76L263.63,127.29L262.83,127.29L262.69,126.56L261.91,126.38L261.36,125.95L260.44,125.33L261.08,125L261.25,124.15L260.44,123.47L261.21,123.39L260.98,122.45L261.65,122.07L262.15,122.7L262.77,123.19L263.18,124.09L263.97,124.37L263.56,125.23L263.69,126.04L264.12,126.52M104.1,363.87L104.01,364M103.72,364L104.1,363.87M118.15,348.45L118.79,347.94L118.29,348.69L118.15,348.45M123.37,339.36L122.66,339.51L123.09,338.81L123.37,339.36M139.21,338.31L139.27,339.18L138.72,339.7L138.35,338.86L139.09,338.58L139.21,338.31M243.31,224.29L243.67,224.98L243.43,225.85L242.72,226.26L241.82,226.35L241.2,226.79L240.01,226.8L240.97,226.54L242.07,225.55L242.77,225.69L243.05,224.98L242.31,224.7L243.07,224.38L243.31,224.29M269.67,133.47L268.77,133.4L268.4,132.71L269.12,133.04L269.67,133.47M251.8,128.74L252.56,128.94L252.78,129.7L251.83,129.97L251.75,128.98L251.8,128.74M256.85,124.37L257.22,125.13L256.48,125.43L255.89,124.97L256.61,124.35L256.85,124.37M110.15,306.51L110.31,307.24L110.57,307.93L111.24,309.29L110.4,309.33L109.79,308.92L109.05,308.67L108.66,307.98L110.01,306.23L110.15,306.51M132.18,344.7L133,345.12L132.03,345.09L131.85,345.84L130.1,345.94L128.98,346.09L127.41,347.07L126.83,347.55L125.97,347.26L125.03,347.23L124.52,346.67L123.7,346.84L123.15,347.32L122.23,347.89L123.68,347.89L123.27,348.54L122.7,349.01L121.9,349.08L120.97,349.33L119.99,349.27L120,348.36L120.43,347.55L121.33,347.15L121.76,346.35L121.77,345.55L122.09,344.84L122.7,344.48L123.44,344.54L123.92,343.8L123.87,342.82L124.62,342.72L125.16,342.15L125.21,341.2L124.36,340.05L124.54,339.35L124.32,338.68L124.53,337.89L125.18,337.49L126.21,337.62L126.97,337.35L128.02,337.65L128.67,338.15L130.28,339.91L131.09,340.47L131.82,340.99L132.05,341.65L129.97,341.78L129.08,341.47L128.88,342.22L128,343.18L129.08,342.51L130.15,342.7L131.32,343.04L132.13,343.31L132.85,343.4L133.09,344.42L132.18,344.56L132.18,344.7M203.13,83.2L203.13,83.2M327.57,358.21L327.57,358.21M328.07,358.01L328.07,358.01M328.07,357.95L328.07,357.95M327.3,357.91L327.3,357.91M327.09,357.78L327.09,357.78M123.41,347.52L123.41,347.52M118.02,346.58L118.02,346.58M132.78,341.83L132.78,341.83M109.51,335.03L109.51,335.03M125.87,332.59L125.87,332.59M103.82,325.52L103.82,326.26L103.82,325.52M102.05,324.28L102.05,324.28M102.24,323.84L102.24,323.84M102.92,323.14L102.38,323.59L102.92,323.14M106.41,318.33L104.61,319.02L103.86,319.07L104.87,318.64L105.53,318.38L106.41,318.33M102.09,318.75L101.36,318.79L102.08,318.43L102.09,318.75M108.42,318.27L107.69,318.52L106.97,318.42L108.4,318.01L108.42,318.27M253.26,218.54L252.57,219.86L252.76,219.1L253.26,218.54" class="land"/><path d="M139.83,257.6L139.83,233.6" class="screen-arrow" marker-end="url(#screen-arrow)"/><path d="M139.83,257.6L139.83,233.6" class="geo-arrow" marker-end="url(#geo-arrow)"/><path d="M262.35,157.28L262.35,133.28" class="screen-arrow" marker-end="url(#screen-arrow)"/><path d="M262.35,157.28L262.35,133.28" class="geo-arrow" marker-end="url(#geo-arrow)"/></g><text x="23" y="62" class="label">Equirectangular</text><clipPath id="clip-new-zealand-sinusoidal"><rect x="410" y="42" width="380" height="340"/></clipPath><rect x="410" y="42" width="380" height="340" class="panel"/><g clip-path="url(#clip-new-zealand-sinusoidal)"><path d="M573.22,262.48L572.84,263.15L571.95,264.57L571.38,265.32L570.97,266.46L570.73,267.53L570.3,268.1L570.97,268.33L569.6,268.55L568.59,269.01L569.23,269.31L570.27,268.82L570.8,269.4L571.64,268.56L571.37,269.74L572.2,269.26L573.33,269.26L573.58,270.04L573.17,270.65L572.91,271.42L572.16,272.46L571.15,273.1L570.56,273.54L570.26,272.91L570.64,272.23L570.93,271.35L570.01,272.16L569.56,273.15L569.26,273.78L568.4,273.78L567.75,273.28L567.49,272.38L568.07,271.8L567.37,271.99L566.21,272.15L564.93,272.42L563.53,272.83L566.21,271.7L565.64,271.17L565.31,270.51L564.52,270.71L563.78,270.98L563.03,271.97L562.65,272.68L562.06,273.17L560.87,273.35L560.03,273.68L559.3,273.89L557.17,274.77L553.59,276.62L552.76,276.67L551.18,277.46L550.39,277.65L549.69,278.1L548.77,278.47L547.93,278.88L547.14,279.3L545.63,280.29L544.75,280.5L544.16,281L542.71,282.31L541.96,283.55L541.37,284.16L540.74,284.61L540.17,285.23L539.62,285.86L538.56,287.85L538.21,288.72L537.79,289.38L537.08,289.83L536.94,290.93L536.22,292.01L535.58,292.63L535.05,293.15L533.04,295.06L530.78,296.54L529.23,298.05L528.18,299.35L527.38,300.18L527.27,301.04L526.48,301.6L526.04,302.24L525.57,302.81L524.66,303.33L524.22,303.99L523.56,304.29L522.95,304.92L522.19,304.99L521.76,306.06L520.83,306.53L520.87,307.23L521.66,307.59L520.51,308.13L519.71,308.66L518.67,309.37L518.02,309.69L519.13,309.41L519.83,309.19L520.53,308.6L521.23,308.23L520.98,309.4L520.21,309.75L519.5,310.11L516.64,310.48L515.35,310.85L514.02,311.55L512.68,312.61L512.08,313.25L511.42,314.13L510.57,315.02L509.76,315.48L508.94,315.75L508.06,316.29L507.26,316.9L504.81,318.15L504.03,318.75L503.32,319.7L502.92,320.37L502.05,320.76L501.21,320.57L500.52,320.76L501.42,320.96L500.81,321.58L499.72,322.03L499.1,322.39L498.39,322.14L496.93,322.81L496.23,323.18L495.4,323.57L494.58,323.26L493.93,323.66L493.08,323.88L493.2,323.11L492.64,323.6L491.78,323.94L491.02,324.07L490.22,324.15L489.21,323.83L489.3,322.44L487.39,322.45L486.71,321.82L486.47,322.57L485.71,323.04L483.69,322.81L484.29,322.33L485.06,322.33L484.18,322.07L483.36,322.01L483.34,322.87L482.64,322.44L482.46,321.65L483.13,321.33L484.28,320.96L484.9,319.88L484.08,320.34L483.6,319.57L483.61,318.32L481.88,318.22L481.37,318.84L480.69,318.66L479.9,318.78L479.18,318.85L478.5,319.02L478.3,318.15L478.62,317.45L478.68,316.36L478.84,315.48L478.05,315.17L476.15,314.57L475.6,315.17L475.11,315.71L474.46,316.44L473.59,316.54L472.85,316.85L471.95,316.6L471.18,316.57L470.58,316.18L469.18,315.98L467.43,316.03L466.67,315.88L466.13,314.84L466.75,314.39L467.7,313.74L468.45,313.12L469.25,312.27L469.99,311.74L471.24,311.17L470.4,311.37L469.36,311.75L468.86,312.32L468.02,313.09L467.11,313.28L466.09,313.48L466.45,312.88L467.12,312.28L467.85,311.61L469.18,311.19L470.02,310.62L468.96,310.98L469.61,309.83L468.94,310.06L467.86,310.87L466.04,311.61L465.35,312.05L465.47,311.22L466.55,308.99L467.16,308.39L468.04,308.26L468.91,308.26L469.66,308.14L470.46,308.14L471.62,307.82L472.34,307.83L473.08,307.45L474.19,306.98L474.93,306.39L474.06,306.64L473.21,306.53L471.84,306.88L472.36,306.05L473.45,305.69L472.41,305.71L472.58,304.81L473.23,304.4L474.43,303.98L475.38,304.15L476.13,303.91L476.97,303.11L475.16,303.55L474,303.76L473.09,304.16L472.26,304.25L473.36,302.54L474.16,301.44L475.16,300.86L476.05,301.53L476.65,300.78L475.66,300.58L475.72,299.78L476.72,299.01L477.66,299.66L477.05,300.17L477.93,299.95L478.46,300.46L477.61,301.3L478.37,301.23L478.9,300.66L479.1,301.66L479.33,302.33L479.4,300.95L478.79,299.66L479.39,299.28L480.89,298.89L481.25,299.66L481.99,299.65L481.49,299.05L481.88,298.42L480.95,298.56L479.48,298.75L479.5,298.02L479.54,297.25L479.92,296.44L480.56,295.94L481.26,296.88L481.47,295.83L481.95,294.74L482.67,294.51L482.73,295.32L482.39,296.03L482.93,295.44L483.9,295.44L483.24,294.94L483.01,294.16L483.46,293.57L484.37,293.73L485.02,294.24L484.23,293.22L484.7,292.56L485.63,292.01L486.49,291.83L487.72,290.86L488.07,291.58L487.61,292.41L487.51,293.24L488.14,292.89L488.25,292.07L488.46,291.33L488.66,290.52L489.15,289.9L489.74,289.49L490.44,289.83L489.87,290.59L489.55,291.4L490.18,290.9L490.71,290.34L490.74,289.59L491.16,288.77L491.78,289.23L491.74,288.42L492.32,287.8L493.11,287.6L493.63,287.12L494.71,286.52L495.51,286.44L496.11,287.23L496.15,288.22L496.64,287.46L496.29,286.61L496.48,285.74L496.73,284.95L497.28,284.29L499,283.06L500.2,282.39L500.99,281.38L502.16,281.38L502.79,280.72L503.27,280.04L504.37,279.33L505.47,278.77L506.25,278.26L506.98,277.71L507.54,276.97L508.17,276.6L508.76,276.07L509.59,276.02L510.7,275.67L511.5,275.24L512.44,274.92L512.75,275.65L514.19,275.51L515.14,275.07L516.35,274.27L517.18,273.85L517.89,273.43L518.96,272.97L519.53,272.44L520.29,271.97L521.58,271.18L523.5,270.3L524.28,270.08L525.04,269.62L525.61,269.22L526.35,269.18L526.99,268.85L528.23,268.35L529.01,268.44L529.98,267.9L531.39,266.99L532.02,266.33L532.84,265.95L533.52,265.14L534.4,264.56L536.63,263.68L537.33,262.91L538.24,262.34L539.07,261.83L539.77,261.5L540.45,261.72L542.05,260.35L541.14,260.64L540.59,261.11L541.57,260.01L542.33,259.48L543.42,259.27L544.28,258.66L544.89,258.24L545.66,257.85L546.38,257.52L547.79,257.09L548.54,256.68L549.36,256.58L550.04,256.12L551.04,255.61L551.9,254.9L552.56,254.56L554.78,252.57L555.54,252.22L556.48,251.48L557.16,251.12L558.25,250.14L560.6,248.02L561.34,247.43L562.01,246.43L563.22,245.41L563.95,244.59L565.77,241.91L566.37,241.24L567.03,240.39L567.94,239.68L568.68,238.94L569.52,237.8L570.36,236.85L571.01,236.16L571.36,235L572.4,234.96L573.41,234.83L574.59,234.55L576.32,233.72L577.06,233.21L577.92,232.74L578.83,232.1L579.95,230.97L580.45,230.42L581.02,229.95L581.6,229.27L582.67,228.71L583.25,228.08L583.77,227.52L584.28,226.69L584.99,226.38L585.21,225.64L586.17,223.63L586.67,223L587.21,221.89L588.28,219.91L588.68,219.03L589.35,218.72L590.29,217.92L590.83,217.44L591.47,217.04L592.58,216.6L593.88,215.92L596.18,214.21L597.1,213.62L597.81,214.04L598.35,213.54L598.98,213.18L598.16,213.25L598.93,212.5L599.73,212.18L602.54,212.04L603.38,212.15L604.07,212.39L601.26,212.32L600.44,212.94L599.9,213.65L599.29,214.18L598.64,214.68L598.81,215.4L598.18,216.25L598.73,217.3L599.4,218.24L600.24,217.97L601.1,217.33L601.85,217.1L601.66,218.16L601.83,219.02L601.17,219.91L600.59,220.77L599.6,221.39L599.73,222.29L599.55,223.09L598.75,223.79L598.72,224.51L598.78,225.26L598.47,226L597.99,226.52L599.04,226.75L600.44,226.12L601.46,225.57L602.4,224.82L603.72,223.98L604.44,223.57L605.24,223.65L606,223.01L606.71,222.77L607.31,222.1L607.8,222.66L608.6,222.26L609.46,221.95L608.8,221.71L609.39,221.08L610.16,220.71L611.11,220.52L611.8,219.96L612.03,220.64L612.78,220.15L613.42,219.65L614.3,219.28L613.79,220.01L613.23,220.52L612.62,220.87L611.85,221.27L611.13,221.05L610.39,221.29L610.04,221.93L609.77,222.59L610.52,222.23L611.57,221.98L612.31,222.15L611.63,222.62L610.88,223L610.27,223.43L609.46,223.89L609.9,224.44L609.41,225.04L608.46,225.67L607.59,225.89L609.62,225.52L610.28,225.26L610.98,225.15L611.72,225L612.62,224.7L613.56,224.27L612,224.3L611.3,224.62L610.5,224.58L610.57,223.72L611.31,223.27L611.84,222.82L611.69,223.76L612.49,222.97L613.2,222.77L613.65,221.86L612.85,221.95L613.18,221.28L613.82,220.51L614.2,221.14L614.92,221.34L615.7,221.15L616.14,220.52L616.34,221.33L615.71,221.79L616.82,221.65L617.69,221.09L616.27,222.7L615.74,223.38L614.98,223.76L615.31,222.83L614.63,223.18L614.62,224.07L613.85,224.76L613.17,225.13L612.45,225.14L611.65,225.5L610.85,225.54L609.94,225.94L610.75,225.94L611.52,225.79L612.28,225.68L612.97,225.43L613.54,225.89L614.19,225.63L614.95,225.44L615.76,225.01L614.88,225.89L614.06,226.44L613.08,227.05L612.37,227.37L612.99,226.8L612.06,226.89L611.03,227.87L610.5,228.35L609.93,228.79L609.39,229.91L609.27,230.75L609.82,230.12L609.93,231.58L609.7,232.25L609.2,233.78L609.67,234.44L607.62,236.64L604.65,238.68L602.96,239.81L602.19,240.46L601.48,241.25L600.96,242.12L600.31,242.71L599.25,243.61L598.01,244.27L596.75,245.23L596.03,245.62L595.3,246.12L595.13,246.86L594.24,246.84L593.39,247.29L592.19,248.16L591.52,248.86L590.86,249.65L590.16,250.32L589.39,250.63L587.2,253.14L586.69,253.77L585.83,254.49L585.15,254.89L584.85,255.54L584.34,256.03L583.75,256.56L582.77,257.05L581.47,257.45L580.98,257.99L579.86,258.62L577.82,259.06L576.64,259.72L575.2,260.47L574.07,261.58L573.48,262.07L573.22,262.48M668.83,195.79L669.23,196.6L670.14,196.76L669.86,197.49L669.31,198.07L668.45,198.44L667.2,199.86L666.63,200.37L664.75,202.38L664.02,203.11L663.49,203.59L663.1,204.28L662.51,204.85L661.93,205.48L661.19,206.15L660.16,206.97L659.23,207.53L658.01,207.91L657.45,208.57L658.15,208.19L656.19,210.02L655.29,211.31L654.46,211.74L652.28,213.06L650.97,213.89L650.41,214.51L649.64,215.24L648.93,215.57L647.61,216.93L646.98,217.45L645.8,218.66L645.07,219.52L643.82,220.15L642.85,220.9L641.07,222.93L640.38,223.62L637.85,225.57L634.76,227.29L633.94,227.83L632.97,228.32L631.93,228.74L627.55,231.1L626.4,231.48L625.33,232.15L623.96,232.34L623.91,231.48L624.18,230.82L625.36,228.99L624.07,228.04L623.33,228.08L621.8,229.04L621.09,228.89L621.45,228.2L621.94,227.13L622.97,226.03L623.38,225.16L622.63,225.12L621.96,225.43L621.21,226.12L621.84,226.46L621.35,227.02L620.56,227.13L619.52,227.25L618.85,226.38L619.44,225.39L620.46,225.13L621.7,224.28L623.01,223.19L623.69,222.88L624.47,222.81L624.57,222.11L625.41,221.35L626.3,220.94L626.89,220.37L627.95,219.08L629.56,217.92L631.07,216.62L632.54,215.17L633.62,213.93L634.27,213.25L634.91,212.22L635.34,211.6L635.91,211.08L636.27,210.38L637.33,209.02L637.8,208.3L637.91,207.53L638.4,206.34L638.7,205.36L638.8,204.47L638.36,203.37L637.91,201.4L637.28,200.79L636.39,200.36L635.25,200.37L634.36,199.95L633.56,199.86L632.33,198.14L632.15,196.51L631.43,195.51L628.63,194.88L627.96,194.61L626.84,193.19L626.6,191.9L626.78,191.06L627.15,190.23L627.67,189.4L628.32,188.53L629.17,187.72L630.09,187.2L631.9,186.55L636.73,184.27L638.9,184.32L639.71,184.09L640.58,183.62L643.24,181.84L644.13,180.8L644.66,180.13L645.09,179.45L645.67,178.73L646.12,178.14L647.85,175L648.34,174.33L649.46,173.18L649.98,172.54L650.47,171.84L651.11,170.77L651.6,170.12L651.93,169.41L652.29,168.5L653,168.6L653.59,169.03L654.4,168.72L655.23,168.75L655.33,168.01L654.53,167.69L654,168.21L654.16,167.38L654.93,167.03L655.65,166.52L656.18,166L655.47,165.96L654.81,166.62L655.73,164.27L656.57,163.42L657.38,163.17L658.2,163.16L659.04,163.04L659.38,162.31L658.54,162.44L657.69,162.62L658.58,158.76L658.81,156.75L659.09,155.92L659.66,155.4L660.36,155.19L661.04,154.43L661.84,153.94L660.96,154.07L659.97,154.93L659.65,153.03L659.81,151.8L659.95,150.08L660.72,149.65L661.56,149.55L661.17,150.2L661.15,151.64L660.87,152.68L661.46,151.98L662.19,151.65L661.55,151.21L662.97,150.41L663.81,150.12L664.65,149.83L665,150.58L665.45,150.04L664.99,149.33L664.64,148.59L663.92,148.59L664.39,147.96L665.07,147.6L664.38,147.23L663.37,147.28L662.28,147.72L661.72,148.38L661,148.46L660.18,149.06L659.56,148.7L660.05,146.63L660.61,144.92L660.76,144.11L660.72,142.72L660.02,140.18L660.01,139.34L660.35,138.51L661,138.01L660.44,138.75L661.11,138.34L661.41,138.99L661.59,139.87L661.56,140.63L661.56,141.38L661.96,142.16L662.65,141.81L663.2,141.12L663.94,139.71L664.16,138.69L664.66,138.06L665.21,137.16L664.42,137.09L663.09,137.41L662.51,136.99L663.19,136.09L664.33,136.23L664.99,135.97L665.6,135.6L666.72,135.03L667.32,134.66L666.52,134.76L665.61,135.18L664.64,135.51L663.8,135.5L664.58,135.4L665.42,134.35L665.99,133.91L666.58,133.15L665.77,133.71L665.16,134.21L664.83,133.56L664.63,132.77L663.19,132.92L663.66,133.57L663.48,134.34L664.17,134.1L663.7,134.81L663.06,135.15L662.5,134.17L662.34,133.41L661.41,133.33L661.06,132.62L661.16,131.35L661.01,130.64L661.04,129.88L661.54,129.04L661.98,128.31L661.37,128.95L660.66,129.25L660.67,130.61L660.8,131.41L660.57,132.22L660.59,132.98L660.88,133.63L661.27,135.22L661.53,135.89L661.62,136.59L660.9,137.22L660.06,137.52L659.35,137.53L659.74,135.15L659.16,132.53L659.16,131.47L658.09,126.98L656.98,122.49L657.31,121.86L658.12,121.2L658.61,120.49L659.23,119.83L659.85,120.26L660.4,119.58L661.08,119.31L661.69,118.71L662.59,118.21L662.4,117.49L661.82,118.23L661.96,117.1L661.47,117.71L661.22,118.67L660.35,118.57L659.74,119.1L658.98,118.99L658.43,119.6L657.26,121.44L656.52,119.72L656.81,118.92L657.6,118.34L658.06,117.61L657.16,117.96L656.43,118.85L656.14,118.17L657.05,117.44L656.29,117.47L655.84,116.74L655.56,115.87L656.28,115.48L657.29,114.95L657.98,114.1L658.49,113.17L658.73,112.25L658.8,111.12L658.29,109.9L658.31,108.33L656.88,103.96L655.62,102.67L656.32,102.06L657.05,101.79L657.91,101.83L658.98,101.75L661.21,101.6L661.97,101.22L661.42,102.07L660.99,103.05L660.29,103.54L660.2,102.84L659.47,103.32L658.75,103.71L659.6,103.79L659.26,104.42L659.13,105.66L659.71,105.24L660.16,104.18L660.21,104.88L659.85,105.94L659.68,106.65L660.25,107.75L660.23,109.13L659.92,108.27L659.8,109.3L661.22,110.47L660.57,111.07L659.89,112.16L660.57,112.4L661.21,111.83L661.97,111.01L662.19,110.13L662.8,109.61L663.66,109.33L664.02,108.58L663.98,109.39L664.73,109.13L663.88,110.01L663.09,110.07L662.75,110.71L662.84,111.54L663.48,112.01L664.24,111.92L664.97,112.01L664.88,111.13L665.79,111.08L666.26,111.63L666.96,111.42L667.24,112.13L666.87,112.87L666.19,113.28L666.76,113.85L667.59,112.87L668.25,112.25L669.23,112.13L669.65,113.21L669.62,113.94L670.99,114.25L671.65,114.97L670.82,115.62L670.37,114.87L669.7,115.19L669.32,115.8L669.9,116.26L669.8,117.1L670.05,117.91L669.77,118.78L670.41,118.09L671.2,117.97L670.71,117.39L671.42,117L672.13,117.1L672.79,116.88L673.68,116.12L674.32,115.74L673.9,116.56L673.22,117.35L673.58,118L673.77,118.9L672.92,118.24L672.82,119.72L673.58,120.09L673.85,121L673.2,121.3L673.61,122.15L673.94,122.91L673.35,123.95L672.58,123.72L672.3,124.45L672.2,125.16L672.61,125.74L672.24,126.6L672.2,127.44L671.41,127.05L671.11,126.37L670.34,126.31L669.44,126.46L669.81,125.68L669.06,126.46L668.55,127.19L669.35,127L670.55,127.08L670.65,127.87L669.72,128.55L669.66,129.26L669.26,130.05L669.73,130.77L670.47,130.95L670.19,131.8L670.22,132.62L670.49,134.19L671.08,135.15L671.01,135.87L671.21,136.55L669.85,136.67L669.3,137.72L669.16,138.51L668.74,139.13L668.89,138.27L668.2,138.86L667.9,139.56L667.22,140.12L666.93,141.06L667.71,141.49L668.45,141.25L667.72,141.86L666.58,141.74L666.71,142.51L666.16,145.24L665.13,145.11L665.09,144.05L664.23,144.32L663.54,144.74L664.37,144.86L663.67,145.28L663.41,146.51L664.02,146.1L664.73,145.72L665.81,145.73L666.72,145.73L666.6,146.49L665.97,146.99L665.83,147.7L667.62,145.48L667.59,146.34L667.21,147.23L667.96,147.13L668.31,146.25L669.13,146.22L668.73,147.59L669.66,147.7L670.89,147.36L671.57,147.79L671.75,148.61L671.37,149.51L670.52,150.78L670.32,151.59L670.8,152.5L672.19,152.35L672.89,152.08L673.53,151.71L673.32,152.39L673.87,152.83L673.93,151.73L674.15,151.02L674.29,150.21L674.81,149.25L675.13,147.76L674.8,146.89L674.83,146.15L675.74,145.93L676.09,145.11L676.96,144.55L676.79,143.81L676.94,143.08L677.72,142.15L677.53,141.43L676.82,140.66L676.78,139.9L677.11,139.19L677.98,139L678.54,139.44L679.55,139.5L679.56,140.3L678.78,141.12L679.5,141.46L679.16,142.4L678.48,142.6L679.17,142.87L678.67,143.63L679.5,143.74L680.35,143.54L681.18,143.14L682.02,143.34L681.28,143.87L680.6,144.49L679.89,144.77L679.23,145.24L678.83,145.9L679.59,145.48L680.8,145.27L680.67,146.22L680.62,147.1L680.24,147.96L679.83,148.65L679.34,149.22L679.62,149.89L678.69,150.78L678.6,151.84L677.94,152.63L678.04,153.57L677.79,154.28L677.46,155L677.32,155.86L677.3,156.56L676.66,156.97L677.45,157.29L677.85,158.1L677.79,158.86L677.92,159.79L677.29,159.27L677.17,158.44L676.79,157.81L675.69,157.92L675.45,158.67L675.62,159.35L675.46,160.04L676.15,159.79L676.26,160.67L677.02,160.82L677.75,160.66L677.46,161.35L678.41,160.53L678.45,159.73L678.83,160.83L680.04,161.56L680.68,162.08L681.34,162.4L683.28,164.38L684.53,164.81L685.21,165.14L686.1,165.29L686.61,165.79L687.84,165.97L687.18,166.32L687.6,166.91L688.32,166.71L689.88,166.52L690.59,166.39L692.58,166.18L693.44,165.73L694.93,165.03L695.58,164.66L696.25,163.84L696.89,163.21L697.82,162.78L698.76,161.79L699.46,161.22L699.98,160.72L701.64,160.3L702.55,160L703.19,159.48L704.16,159.29L704.8,158.96L705.48,158.42L708.93,158.59L709.15,159.54L710.16,159.79L711.03,160.15L711.6,160.8L711.2,161.64L710.66,162.09L709.8,162.66L709.02,163.51L707.84,164.32L706.35,165.86L705.62,166.45L705.11,167.25L705.03,168.03L704.31,168.74L703.59,169.25L703.51,170.01L702.87,170.74L702.18,171.42L702.27,172.35L701.5,172.98L701.04,173.61L700.84,174.49L699.95,174.92L699.13,176.25L696.32,178.19L694.13,179.48L693.55,179.09L692.83,179.1L692.11,179.36L691.94,180.22L691.28,181.09L690.39,182.45L689.62,183.51L689.12,184.05L688.66,184.76L688.3,185.42L687.69,185.95L688.29,186.42L688.55,187.12L687.32,187.91L686.45,188.83L685.99,189.41L685.36,189.79L685.28,188.92L685.83,187.8L686.36,187.21L686.89,186.74L686.17,186.61L683.58,186.13L681.34,186.06L680.48,186.17L677.13,187.45L674.66,188.38L674.08,189L673.31,189.76L672.7,190.22L671.87,190.77L670.87,191.59L670.16,192.27L669.87,193.05L669.89,193.75L668.99,195.44L668.83,195.79M672.03,143.74L671.79,144.54L671.52,145.22L670.79,145.35L669.71,145.11L669.4,144.33L670.49,144.11L672.03,143.74M471.77,304.91L471.79,305.87L471.36,306.65L470.76,307.11L470.03,307.18L470.13,306.23L468.74,306.64L469.14,305.9L469.74,305.29L471.42,304.91L471.77,304.91M611.5,219.39L612.04,218.78L612.76,218.66L612.77,217.79L613.51,216.84L614.27,216.54L614.05,217.25L614.98,217.04L615.42,216.42L615.99,215.79L615.57,216.57L615.15,217.22L614.58,217.69L614,218.45L613.07,218.93L612.41,219.2L611.84,219.66L611.5,219.39M681.78,135.41L681.31,136.51L680.82,135.96L680.57,135.19L679.8,134.89L679.34,134.34L680.02,134.04L680.55,133.28L680.2,132.67L681.12,132.42L681.43,131.47L681.96,131.98L681.8,132.77L682.45,133.38L681.93,134.25L681.66,134.97L681.78,135.41M447.96,348.09L447.83,348.2M447.64,348.2L447.96,348.09M465.01,334.27L465.7,333.81L464.99,334.48L465.01,334.27M473.04,326.12L473.04,326.12M484.51,325.18L484.12,325.96L483.48,326.43L483.64,325.68L484.3,325.42L484.51,325.18M617.64,223.01L617.34,223.87L616.73,224.62L615.96,224.75L614.96,225.16L613.86,225.26L614.73,225.02L616.06,224.14L616.92,223.97L617.18,223.24L617.64,223.01M683.02,141.63L682.33,141.57L682.39,140.75L682.93,141.27L683.02,141.63M670.73,137.39L671.08,138.26L670.18,138.49L670.58,137.61L670.73,137.39M676.87,133.47L676.6,134.31L675.88,134.42L676.19,133.67L676.87,133.47M479.39,296.69L479.03,297.96L478.87,299.18L478.15,298.98L477.63,298.37L478.01,297.68L479.43,296.44L479.39,296.69M476.5,330.91L476.86,331.58L476.2,331.26L475.7,331.93L474.45,332.02L473.6,332.16L472.04,333.03L471.41,333.46L470.33,333.17L469.6,332.83L469.11,333.4L468.08,333.77L469.08,333.77L468.48,334.35L467.86,334.77L466.99,334.95L466.08,335.08L466.33,334.19L467.02,333.46L467.83,333.11L468.33,332.57L468.83,331.88L469.25,331.22L470.07,330.72L471.06,330.54L471.42,329.62L472.26,329.13L472.91,328.63L473.41,327.77L473.38,326.74L473.85,326.12L474.12,325.42L474.55,324.81L475.2,324.45L476.02,324.59L476.67,324.29L477.21,324.79L477.54,326.62L477.76,327.36L477.91,328.18L476.41,328.29L475.65,328.14L474.36,329.54L475.44,328.94L476.35,329.2L476.2,329.91L477.15,329.67L477.26,330.66L476.57,330.78L476.5,330.91M650.54,96.58L650.54,96.58M602.59,343.01L602.59,343.01M603.05,342.83L603.05,342.83M603.09,342.78L603.09,342.78M602.59,342.75L602.59,342.75M602.52,342.63L602.52,342.63M469.08,333.43L469.08,333.43M465.83,332.59L465.83,332.59M478.32,328.33L478.32,328.33M465.51,322.25L465.51,322.25M478.06,320.05L478.06,320.05M466.04,313.72L465.69,314.39L466.04,313.72M465.38,312.61L465.38,312.61M465.72,312.21L465.72,312.21M466.53,311.59L465.93,311.99L466.53,311.59M471.23,307.28L469.63,307.9L470.58,307.32L471.23,307.28M467.99,307.66L468.63,307.35L467.99,307.66M472.67,307.23L471.73,307.45L472.78,306.99L472.67,307.23M628.16,217.86L626.96,219.05L627.5,218.36L628.05,217.88L628.16,217.86" class="land"/><path d="M523.7,252.86L523.7,228.86" class="screen-arrow" marker-end="url(#screen-arrow)"/><path d="M523.7,252.86L534.72,231.54" class="geo-arrow" marker-end="url(#geo-arrow)"/><path d="M665.72,162.97L665.72,138.97" class="screen-arrow" marker-end="url(#screen-arrow)"/><path d="M665.72,162.97L677.12,141.85" class="geo-arrow" marker-end="url(#geo-arrow)"/></g><text x="418" y="62" class="label">Sinusoidal</text><clipPath id="clip-new-zealand-laea"><rect x="805" y="42" width="380" height="340"/></clipPath><rect x="805" y="42" width="380" height="340" class="panel"/><g clip-path="url(#clip-new-zealand-laea)"><path d="M982.03,270.82L981.72,271.49L980.98,272.91L980.47,273.67L980.22,274.76L980.17,275.78L979.62,276.24L980.61,276.47L979.07,276.86L977.99,277.41L978.8,277.6L979.9,277.02L980.67,276.97L981.44,276.6L981.36,277.71L982.01,277.36L982.68,277.05L983.54,277.01L983.99,277.69L983.63,278.31L983.5,279.04L982.84,280.09L981.79,280.8L981.2,281.29L980.72,280.75L981.02,280.08L981.19,279.24L980.28,280.1L979.96,281.06L978.75,281.79L978.02,281.53L977.4,280.63L977.95,280.03L977.18,280.29L975.86,280.59L974.43,281L972.89,281.57L972.14,281.67L972.73,281.22L975.78,280.18L975.01,279.77L974.49,279.21L973.61,279.5L972.8,279.85L972.13,280.85L971.84,281.55L971.25,282.07L969.9,282.38L968.98,282.79L968.18,283.08L965.87,284.16L962.08,286.31L961.36,286.41L959.43,287.38L958.54,287.65L957.81,288.15L956.81,288.6L955.92,289.08L955.08,289.56L953.51,290.65L952.8,290.8L952.06,291.3L950.5,292.85L949.87,294.07L949.3,294.69L948.65,295.18L948.1,295.81L947.42,296.13L947.37,297.04L946.74,298.38L946.51,299.21L946.15,299.85L945.4,300.35L945.46,301.36L944.83,302.42L944.2,303.07L943.69,303.6L941.71,305.57L939.34,307.17L937.81,308.72L936.84,310.02L936.06,310.87L936.1,311.65L935.28,312.25L934.89,312.88L934.45,313.44L933.47,314.02L933.09,314.67L932.41,314.85L931.99,315.56L931.23,315.69L930.6,316.82L929.59,317.35L930.25,317.92L930.32,318.63L929.53,318.82L928.69,319.39L928.01,319.69L926.89,320.51L928.15,320.14L928.94,319.85L929.65,319.25L930.41,318.83L930.34,319.91L929.5,320.32L928.79,320.6L925.42,321.38L923.96,321.86L922.52,322.64L921.14,323.75L920.55,324.38L919.95,325.25L919.11,326.15L918.25,326.64L917.32,326.98L916.37,327.56L915.54,328.19L912.88,329.58L912.07,330.21L911.41,331.14L911.06,331.79L910.11,332.23L909.3,332.16L908.29,332.4L909.39,332.47L908.79,333.1L907.57,333.62L906.91,334L906.01,333.86L904.4,334.62L903.64,335.02L902.72,335.46L901.95,335.23L900.99,335.7L900,335.99L899.97,335.29L899.43,335.78L898.46,336.18L897.88,335.8L897.08,336.6L896.22,336.38L895.37,336.36L895.2,335.12L892.91,335.33L891.98,334.85L891.84,335.53L891.02,336.03L888.54,336.05L889.17,335.56L889.94,335.44L890.87,335.56L888.99,335.34L888.26,335.06L887.91,335.71L888.16,336.43L887.49,335.93L886.9,335.38L887.43,334.8L888.89,334.33L889.43,333.31L888.52,333.81L887.82,334.08L887.8,333.18L887.57,332.06L885.47,332.16L884.98,332.77L884.13,332.68L883.41,332.7L882.83,333.13L882.13,333.06L881.42,332.98L880.8,332.26L881.4,331.83L881.26,330.86L881.29,330.06L880.54,329.92L879.74,329.57L877.88,329.55L877.33,330.14L876.86,330.67L876.21,331.39L875.46,331.48L874.61,331.83L873.54,331.79L872.8,331.94L871.49,331.58L870.7,331.68L869.77,331.55L867.67,331.77L866.72,331.72L866.1,331.3L866.02,330.59L866.72,330.29L867.54,329.72L868.34,329.09L869.14,328.25L869.92,327.71L871.32,327.06L870.35,327.33L869.59,327.59L868.84,328.02L868.48,328.65L867.81,329.11L866.75,329.38L865.57,329.66L866.08,328.94L866.91,328.1L867.85,327.56L868.85,327.3L869.74,326.7L868.54,327.14L869.09,326.05L868.39,326.23L867.19,327.16L865.14,328.01L864.39,328.47L864.38,327.73L865.25,325.63L865.86,325.04L866.9,324.83L867.95,324.74L868.84,324.55L869.79,324.46L871.13,324.05L871.99,323.98L872.81,323.56L874.05,323.03L874.82,322.42L874.08,322.68L872.78,322.73L871.21,323.19L871.68,322.4L872.91,321.96L871.67,322.09L871.7,321.28L872.4,320.84L873.76,320.33L874.94,320.38L875.79,320.09L875.07,320.1L876.07,319.59L876.97,318.83L874.55,319.87L873.2,320.19L872.19,320.64L871.46,320.81L872.2,319.17L872.95,318.11L874.04,317.48L875.23,317.98L875.81,317.25L875.07,317.37L874.38,317.05L874.83,316.16L875.55,315.67L876.28,315.95L876.17,316.66L877.18,316.37L877.88,316.61L877.56,317.32L876.82,317.78L877.68,317.66L878.33,316.99L878.99,317.36L878.92,318.32L879.55,317.84L879.14,317.09L878.15,316.01L878.79,315.61L880.52,315.09L881.11,315.74L881.99,315.65L881.34,315.33L881.61,314.56L880.53,314.79L878.81,315.13L878.75,314.14L878.89,313.02L879.55,312.51L880.27,312.65L880.69,313.36L880.61,312.3L880.99,311.28L881.8,310.99L882.03,311.71L881.76,312.38L882.29,311.79L883.45,311.68L882.57,311.31L882.14,310.64L882.57,310.07L883.34,309.98L884.04,310.15L884.84,310.6L883.42,309.67L883.85,309.02L884.86,308.42L885.84,308.17L887.12,307.16L887.63,307.67L887.3,308.56L887.34,309.3L888.02,308.92L888,308.18L888.13,306.95L888.64,306.13L889.27,305.71L890.17,305.93L889.64,306.67L889.42,307.43L890.07,306.91L890.59,306.35L890.51,305.39L891.03,304.76L891.65,305.23L891.45,304.52L892.02,303.9L892.92,303.63L893.44,303.13L894.62,302.47L895.55,302.31L896.42,302.94L896.66,303.82L897.1,303.08L896.52,302.36L896.56,301.57L896.71,300.83L897.23,300.18L899.04,298.87L900.33,298.13L900.89,297.69L902.46,296.99L903.08,296.32L903.52,295.66L904.68,294.88L905.88,294.25L906.71,293.7L907.45,293.12L907.98,292.38L908.65,291.97L909.24,291.43L910.22,291.28L911.46,290.83L912.06,290.47L912.86,290.28L913.58,290.03L914.57,290.58L915.56,290.26L916.59,289.74L917.86,288.88L918.76,288.4L919.51,287.93L920.69,287.38L921.25,286.83L922.06,286.31L923.42,285.44L924.11,285.15L925.51,284.41L926.38,284.11L927.18,283.6L927.78,283.16L928.51,283.04L929.33,282.66L930.01,282.45L930.69,282.05L931.62,282.03L932.65,281.42L933.31,281.14L934.13,280.42L934.74,279.74L935.62,279.3L936.27,278.47L937.17,277.84L939.62,276.75L940.28,275.97L940.97,275.63L941.47,275.07L942.11,274.76L942.86,274.37L943.7,274.48L945.29,273.03L944.29,273.41L943.74,273.91L944.67,272.79L945.45,272.2L946.68,271.87L947.56,271.21L948.2,270.74L948.86,270.44L949.78,269.89L951.35,269.32L952.14,268.84L952.9,268.69L953.56,268.27L954.46,267.82L955.7,266.78L956.4,266.38L958.59,264.27L959.41,263.85L959.97,263.41L960.56,262.88L961.47,262.27L962.14,261.59L964.44,259.34L965.18,258.69L965.75,257.69L966.95,256.59L967.63,255.74L969.19,253.05L969.75,252.35L970.34,251.48L971.26,250.7L971.95,249.92L972.7,248.76L973.47,247.78L974.09,247.05L974.25,245.94L975.45,245.76L976.6,245.49L977.9,245.07L979.73,244.06L980.29,243.61L981.09,243.37L981.55,242.81L982.3,242.22L983.36,241.02L983.82,240.44L984.38,239.93L984.91,239.23L986.02,238.55L986.57,237.89L987.05,237.3L987.46,236.46L988.22,236.07L988.32,235.36L989.02,233.38L989.46,232.72L989.85,231.62L990.67,229.65L990.95,228.77L991.66,228.39L992.57,227.51L993.1,226.99L993.75,226.53L994.93,225.95L996.28,225.13L998.57,223.21L999.49,222.53L1000.17,222.25L999.66,222.89L1000.4,222.81L1000.91,222.26L1001.56,221.84L1000.64,222.03L1001.36,221.22L1002.21,220.8L1005.4,220.24L1006.37,220.22L1007.21,220.34L1003.99,220.7L1003.18,221.39L1002.71,222.14L1002.12,222.71L1001.48,223.28L1001.82,223.92L1001.28,224.79L1002.12,225.68L1003.08,226.45L1003.98,226.07L1004.84,225.34L1005.64,225.03L1005.64,226.03L1006.03,226.8L1005.45,227.72L1004.97,228.6L1003.96,229.32L1004.3,230.14L1004.25,230.9L1003.48,231.66L1003.99,232.29L1003.82,233.01L1003.62,233.74L1003.18,234.29L1004.42,234.35L1005.13,234.08L1005.9,233.56L1006.57,233.2L1007.87,232.07L1009.2,231.1L1009.95,230.61L1010.88,230.56L1011.62,229.86L1012.38,229.53L1012.92,228.83L1013.59,229.27L1014.43,228.77L1015.35,228.36L1014.62,228.27L1015.09,227.56L1015.89,227.11L1016.93,226.79L1017.6,226.17L1018.01,226.76L1018.76,226.19L1019.39,225.63L1020.31,225.15L1020.86,225.65L1019.88,225.67L1019.34,226.47L1018.64,226.68L1017.93,227.36L1017.06,227.27L1016.28,227.61L1015.95,228.38L1015.63,229.09L1016.61,228.46L1017.76,228.07L1018.64,228.11L1017.96,228.65L1017.26,228.77L1016.58,229.61L1015.75,230.16L1016.37,230.6L1015.92,231.22L1014.98,231.95L1014.03,232.28L1016.26,231.64L1016.96,231.3L1017.74,231.09L1018.56,230.85L1019.52,230.43L1020.5,229.88L1018.73,230.16L1018.11,230.54L1017.07,230.64L1016.98,229.83L1017.73,229.3L1018.25,228.8L1018.27,229.7L1019.01,228.85L1019.78,228.55L1020.1,227.65L1019.38,227.91L1018.91,227.25L1019.49,226.77L1020.24,226.44L1020.83,227.05L1021.82,226.61L1022.57,226.36L1022.97,226.96L1022.33,227.35L1023.18,227.39L1024.54,226.32L1023.26,228.02L1022.81,228.74L1022.2,229.1L1022.2,228.29L1021.69,228.78L1021.67,229.55L1020.93,230.3L1020.23,230.75L1019.42,230.86L1018.59,231.32L1017.88,231.53L1017.02,231.77L1017.94,231.92L1018.84,231.4L1019.72,231.16L1020.47,231.27L1021.33,231.11L1022.33,230.77L1023.16,230.24L1022.34,231.19L1021.75,231.63L1021.23,232.2L1020.53,232.54L1019.79,232.94L1020.38,232.32L1019.69,232.49L1018.84,233.04L1018.37,233.6L1017.86,234.13L1017.3,234.62L1016.92,235.73L1016.95,236.53L1017.46,235.87L1017.89,237.2L1017.7,238.19L1017.51,239.34L1018.18,239.88L1016.3,242.22L1013.32,244.54L1011.61,245.82L1010.87,246.54L1010.22,247.37L1009.8,248.25L1009.18,248.88L1008.67,249.36L1008.15,249.87L1006.86,250.65L1005.62,251.72L1004.88,252.18L1004.14,252.74L1004.1,253.45L1003.29,253.48L1002.62,253.86L1000.98,255.07L1000.36,255.8L999.76,256.63L999.09,257.34L998.27,257.73L996.26,260.35L995.81,261L994.96,261.77L994.26,262.23L993.99,262.98L993.4,263.47L992.79,264.11L991.95,264.55L990.53,265.09L990.08,265.66L988.92,266.39L986.65,267.07L985.42,267.84L983.9,268.72L982.82,269.89L982.24,270.42L982.03,270.82M1076.91,194.5L1077.53,195.2L1078.58,195.2L1078.42,195.93L1077.93,196.57L1077.05,197.06L1075.95,198.6L1075.42,199.18L1073.73,201.38L1073.08,202.19L1072.59,202.72L1072.29,203.44L1071.84,203.98L1071.24,204.75L1070.55,205.51L1069.57,206.44L1068.64,207.12L1067.36,207.67L1066.87,208.39L1067.57,207.92L1065.76,209.95L1065.02,211.31L1064.18,211.84L1062,213.43L1060.71,214.41L1060.2,215.09L1059.49,215.89L1058.76,216.31L1057.56,217.79L1056.97,218.38L1055.88,219.7L1055.25,220.61L1053.96,221.4L1053.03,222.25L1051.45,224.43L1050.81,225.18L1048.36,227.38L1045.22,229.47L1044.41,230.09L1043.41,230.7L1042.32,231.25L1037.84,234.11L1036.62,234.64L1035.54,235.43L1034.03,235.81L1033.79,235.01L1033.96,234.15L1034.92,232.48L1033.26,231.79L1032.42,231.95L1030.88,233.06L1030.04,233.03L1030.31,232.34L1030.64,231.27L1031.58,230.1L1031.86,229.22L1031.01,229.3L1030.31,229.69L1029.6,230.45L1030.39,230.67L1029.94,231.26L1029.07,231.48L1027.91,231.75L1026.97,231.05L1027.44,230.04L1028.54,229.64L1029.78,228.66L1031.03,227.45L1031.74,227.06L1032.46,227.05L1032.58,226.21L1033.38,225.38L1034.05,225.05L1034.72,224.42L1035.1,223.76L1035.79,222.88L1037.37,221.54L1038.81,220.1L1040.17,218.52L1041.14,217.19L1041.73,216.46L1042.23,215.4L1042.58,214.75L1043.12,214.18L1043.38,213.47L1044.3,212.03L1044.68,211.29L1044.65,210.55L1044.95,209.36L1045.08,208.4L1045.01,207.55L1044.28,206.59L1043.36,204.83L1042.52,204.36L1041.8,204.11L1040.73,204.21L1039.05,204.05L1038.12,204.09L1036.37,202.69L1035.83,201.2L1034.8,200.38L1034.05,200.25L1031.5,200.25L1030.7,200.1L1029.13,198.95L1028.59,197.8L1028.62,196.98L1028.86,196.16L1029.28,195.3L1029.84,194.38L1030.63,193.49L1031.56,192.85L1033.47,191.95L1038.45,189.04L1040.9,188.72L1041.76,188.37L1042.65,187.79L1045.27,185.69L1046.06,184.56L1046.51,183.85L1046.85,183.14L1047.35,182.36L1047.74,181.74L1049.03,178.51L1049.43,177.79L1050.45,176.53L1050.9,175.84L1051.3,175.1L1051.8,173.99L1052.21,173.3L1052.43,172.58L1052.65,171.66L1053.46,171.63L1054.21,171.93L1055.05,171.51L1055.99,171.39L1055.95,170.68L1054.98,170.52L1054.49,171.09L1054.51,170.29L1055.29,169.82L1055.99,169.22L1056.48,168.64L1055.67,168.73L1055.08,169.46L1055.61,167.1L1056.37,166.15L1057.23,165.78L1058.14,165.63L1059.05,165.36L1059.28,164.62L1058.51,164.67L1057.46,165.21L1057.64,161.43L1057.48,159.5L1057.62,158.66L1058.15,158.08L1058.88,157.76L1059.49,156.92L1060.27,156.32L1059.32,156.59L1058.4,157.58L1057.77,157.18L1057.64,155.84L1057.56,154.66L1057.36,153.02L1058.13,152.48L1058.84,152.19L1058.75,152.91L1059.02,154.27L1058.93,155.3L1059.44,154.54L1060.19,154.1L1059.38,153.8L1060.8,152.8L1061.67,152.37L1062.55,151.95L1063.09,152.59L1063.49,152L1062.82,151.42L1062.27,150.79L1061.48,150.91L1061.87,150.24L1062.55,149.77L1061.7,149.55L1060.59,149.78L1059.46,150.38L1058.98,151.1L1058.46,151.58L1057.4,152.02L1056.64,151.79L1056.75,149.75L1057.02,148.04L1057.02,147.25L1056.68,145.95L1055.37,143.68L1055.19,142.9L1055.39,142.05L1056.02,141.46L1055.55,142.26L1056.21,141.75L1056.68,142.31L1057.06,143.11L1057.18,143.83L1057.92,143.95L1057.22,144.31L1057.69,145.09L1058.51,144.97L1058.96,144.15L1059.59,143.56L1059.65,142.53L1059.68,141.54L1060.1,140.85L1060.52,139.91L1059.63,139.98L1058.21,140.52L1057.49,140.23L1058.05,139.26L1059.35,139.19L1060.04,138.82L1060.63,138.36L1061.76,137.62L1062.35,137.17L1061.49,137.4L1060.56,137.96L1059.55,138.45L1058.81,138.64L1059.46,138.35L1060.17,137.22L1060.71,136.69L1061.21,135.87L1060.43,136.54L1059.85,137.13L1059.35,136.58L1058.84,136.07L1059.24,135.48L1058.29,136.12L1057.39,136.26L1057.86,136.8L1058.01,137.56L1058.73,137.21L1058.36,137.95L1057.71,138.39L1057.09,138.04L1056.84,137.32L1056.27,136.88L1055.5,136.98L1054.97,136.37L1054.81,135.16L1054.49,134.51L1054.37,133.79L1054.76,132.91L1055.1,132.13L1054.55,132.85L1053.82,133.27L1054.11,134.54L1054.43,135.27L1054.34,136.09L1054.52,136.79L1054.97,137.36L1055.74,138.78L1056.46,138.97L1056.42,140.01L1055.73,140.73L1054.87,141.16L1054.07,141.31L1054.02,138.99L1052.83,136.63L1052.61,135.63L1050.49,131.59L1048.33,127.56L1049.33,126.14L1049.73,125.37L1050.28,124.64L1051.06,124.93L1051.54,124.18L1052.23,123.81L1052.79,123.13L1053.46,122.9L1054.1,122.02L1053.44,122.29L1052.83,122.65L1052.76,121.56L1052.34,122.23L1052.25,123.17L1051.27,123.25L1050.71,123.86L1049.84,123.89L1049.34,124.57L1048.9,125.12L1048.42,126.51L1047.25,125.02L1047.4,124.22L1048.16,123.53L1048.52,122.76L1047.6,123.26L1046.97,124.22L1046.5,123.64L1047.37,122.78L1046.53,122.95L1045.87,122.34L1045.42,121.8L1045.81,121.06L1047.12,120.39L1047.72,119.46L1048.08,118.48L1048.17,117.58L1048.01,116.49L1047.2,115.44L1046.9,113.95L1044.42,110.09L1042.75,109.1L1043.41,108.39L1044.16,108L1045.12,107.88L1046.3,107.6L1046.9,107.2L1048.74,107.04L1049.5,106.55L1049.07,107.45L1048.79,108.46L1048.11,109.06L1047.99,108.18L1047.34,108.58L1046.78,109.02L1046.27,109.61L1047.04,109.62L1047.61,110.19L1047.27,111.27L1047.82,110.76L1048.1,109.68L1048.12,111.4L1048.07,112.11L1048.93,113.04L1049.2,114.35L1048.68,113.59L1048.75,114.59L1050.57,115.44L1049.97,116.12L1049.44,117.27L1050.24,117.37L1050.83,116.72L1051.51,115.81L1051.58,114.94L1052.15,114.33L1053.04,113.9L1053.29,113.13L1053.41,113.9L1054.19,113.52L1053.43,114.5L1052.74,114.62L1052.32,115.37L1052.59,116.14L1053.4,116.47L1054.22,116.24L1054.98,116.29L1054.76,115.38L1055.51,115.38L1056.2,115.55L1056.91,115.51L1057.59,115.89L1057.34,116.66L1056.67,117.17L1057.41,117.61L1058.13,116.52L1058.74,115.81L1059.8,115.51L1060.48,116.46L1060.6,117.16L1062.19,117.19L1062.87,117.42L1063.03,118.21L1062.28,118.52L1061.63,117.89L1060.95,118.32L1060.65,118.97L1061.39,119.3L1061.45,120.12L1061.9,120.84L1061.78,121.71L1062.34,120.94L1063.19,120.67L1062.52,120.21L1063.23,119.71L1064.03,119.68L1064.73,119.35L1065.55,118.46L1066.18,117.98L1065.89,118.83L1065.29,119.71L1065.83,120.26L1066.23,121.08L1065.54,120.9L1065.35,122.03L1066.26,122.24L1066.75,123.05L1066.09,123.46L1066.72,124.19L1067.25,124.84L1066.82,125.94L1065.91,125.86L1065.76,126.6L1065.59,127.37L1066.37,127.77L1066.14,128.64L1066.27,129.45L1065.51,129.49L1065.26,128.69L1064.22,128.63L1063.36,128.9L1063.24,128.01L1062.58,129.09L1062.16,129.88L1063.01,129.56L1064.36,129.41L1064.64,130.14L1063.75,130.96L1063.64,132.12L1064.22,133.05L1065.07,133.09L1064.95,133.94L1065.15,134.71L1065.78,136.14L1066.63,136.94L1066.53,137.63L1067.07,138.24L1065.58,138.6L1065.19,139.69L1065.2,140.46L1064.86,141.12L1064.85,140.28L1064.21,140.97L1064.02,141.69L1063.38,142.34L1063.25,143.27L1064.21,143.54L1064.99,143.18L1064.3,143.89L1063.6,144.11L1063.27,147.35L1062.6,147.13L1061.88,146.9L1060.93,146.83L1060.25,147.35L1061.2,147.32L1060.51,147.83L1060.48,149.04L1061.07,148.55L1061.78,148.06L1062.98,147.88L1064,147.72L1064.02,148.45L1063.43,149.03L1064.94,147.32L1065.09,148.14L1064.85,149.04L1065.67,148.81L1065.88,147.92L1066.78,147.74L1066.62,149.11L1067.38,149.17L1068.15,148.73L1068.98,148.51L1069.71,148.74L1070.15,149.37L1069.96,150.45L1069.28,151.8L1069.23,152.6L1069.96,153.38L1070.67,153.28L1071.47,152.99L1072.2,152.6L1072.83,152.14L1072.69,153.18L1073.45,153.14L1073.28,152.09L1073.37,151.37L1073.35,150.58L1073.73,149.59L1073.77,148.12L1073.23,147.36L1073.1,146.66L1074.06,146.28L1074.28,145.45L1075.13,144.76L1074.79,144.09L1074.8,143.37L1075.47,142.35L1075.1,141.71L1074.16,141.1L1073.96,140.39L1074.17,139.67L1075.1,139.33L1075.8,139.5L1076.35,140.03L1076.94,139.51L1077.12,140.26L1076.43,141.18L1077.3,141.37L1077.11,142.33L1076.4,142.64L1077.23,142.77L1076.83,143.57L1077.78,143.53L1078.68,143.18L1079.52,142.66L1080.23,142.85L1079.67,143.44L1079.16,144.04L1078.43,144.43L1077.79,145L1077.49,145.69L1078.24,145.16L1079.54,144.75L1079.59,145.66L1079.72,146.5L1079.49,147.39L1079.18,148.11L1078.76,148.74L1079.21,149.32L1078.37,150.33L1078.49,151.35L1078.02,151.89L1078.08,152.62L1078.11,153.8L1077.89,154.55L1077.92,155.38L1077.95,156.3L1078.58,156.83L1079.02,157.92L1079.48,158.67L1078.61,158.61L1078.29,157.85L1077.74,157.31L1076.53,157.62L1076.43,158.37L1076.71,159.05L1077.37,159.35L1077.76,160.11L1078.63,160.12L1079.24,159.74L1079.23,160.54L1079.98,160.48L1080.11,159.6L1079.98,158.84L1080.64,159.81L1081.34,160L1082.14,160.29L1082.96,160.66L1083.68,160.81L1086.34,162.37L1087.82,162.56L1088.64,162.75L1089.66,162.73L1090.33,163.11L1091.73,163.06L1091.08,163.51L1091.67,163.99L1092.42,163.68L1093.08,163.39L1094.11,163.22L1094.87,162.98L1095.57,162.74L1097.03,162.41L1097.88,161.83L1099.39,160.91L1100.02,160.44L1100.59,159.53L1101.16,158.83L1102.09,158.25L1102.92,157.14L1103.57,156.47L1104.03,155.9L1105.78,155.21L1106.72,154.75L1107.31,154.14L1108.34,153.78L1108.97,153.35L1109.61,152.71L1113.44,152.25L1113.89,153.1L1115.05,153.16L1116.09,153.34L1116.85,153.85L1116.59,154.73L1116.1,155.26L1115.27,155.96L1114.6,156.91L1113.48,157.89L1112.16,159.63L1111.48,160.33L1111.09,161.18L1111.17,161.94L1110.53,162.75L1109.84,163.36L1109.92,164.1L1109.37,164.9L1108.75,165.68L1109.05,166.54L1108.34,167.27L1107.97,167.96L1107.92,168.83L1107.04,169.4L1106.42,170.81L1103.73,173.15L1101.58,174.75L1100.85,174.49L1100.05,174.62L1099.38,174.97L1099.31,175.84L1098.76,176.78L1098.07,178.22L1097.44,179.36L1097,179.96L1096.65,180.71L1096.39,181.4L1095.82,182.01L1096.59,182.35L1097.02,182.96L1095.82,183.93L1095.05,184.94L1094.66,185.57L1094.06,186.05L1093.77,185.23L1094.15,184.08L1094.61,183.42L1095.1,182.89L1094.28,182.89L1091.3,182.88L1088.79,183.21L1087.86,183.45L1084.4,185.24L1081.85,186.54L1081.33,187.22L1080.63,188.07L1080.04,188.61L1079.24,189.27L1078.3,190.21L1077.81,190.71L1077.43,191.6L1077.66,192.4L1077.01,194.15L1076.91,194.5M1069.48,144.88L1069.38,145.68L1069.23,146.37L1068.44,146.62L1067.19,146.6L1066.54,146.24L1067.03,145.66L1067.85,145.51L1068.56,145.58L1069.48,144.88M870.75,321.46L870.95,322.3L870.59,323.04L869.95,323.51L869.24,323.57L869.03,322.8L867.43,323.32L866.76,323.6L867.23,323.04L867.84,322.56L868.37,322.02L870.33,321.49L870.75,321.46M1017.15,225.68L1017.63,225.03L1018.37,224.93L1018.26,224.01L1018.91,223.01L1019.71,222.62L1019.55,223.6L1020.3,223.2L1020.77,222.56L1021.39,221.78L1020.84,222.94L1020.3,223.64L1019.8,224.43L1019.12,224.77L1018.27,225.3L1017.59,225.88L1017.15,225.68M1078.55,135.23L1078.27,136.36L1077.6,135.92L1077.16,135.25L1076.25,135.1L1075.62,134.67L1076.31,134.26L1076.74,133.44L1076.23,132.92L1076.95,132.74L1077.05,131.89L1077.78,131.43L1078.42,132.31L1078.51,133.09L1078.63,133.8L1078.23,134.55L1078.55,135.23M850.24,362L850.11,362.12M849.87,362.13L850.24,362M868.27,348.15L869.01,347.67L868.29,348.34L868.27,348.15M876.38,340.11L876.38,340.11M889.99,338.07L889.68,338.8L889,339.29L889.28,338.56L889.99,338.07M1024.9,228.1L1024.72,228.95L1024.19,229.74L1023.34,229.97L1022.29,230.5L1021.06,230.76L1022,230.41L1023.33,229.39L1024.27,229.1L1024.42,228.38L1024.9,228.1M1081.24,140.89L1080.45,140.96L1080.35,140.17L1081.05,140.56L1081.24,140.89M1066.71,139.12L1067.28,139.88L1066.34,140.26L1066.59,139.36L1066.71,139.12M1072.7,134.3L1072.58,135.14L1071.8,135.37L1071.99,134.61L1072.7,134.3M878.3,313.3L878.11,314.47L878.16,315.57L877.43,315.67L876.77,315.32L876.47,314.66L878.29,313.08L878.3,313.3M881.48,343.99L882.08,344.44L881.19,344.34L880.72,344.98L879.22,345.19L878.24,345.4L876.52,346.33L875.85,346.78L875.06,346.52L874.31,346.63L873.54,346.41L873.06,346.96L871.89,347.39L873.09,347.29L872.47,347.87L871.81,348.3L870.79,348.55L869.72,348.76L869.85,347.94L870.54,347.23L871.45,346.83L871.95,346.31L872.43,345.65L872.8,345.02L873.7,344.49L874.48,344.48L875,343.83L875.36,343.01L876.29,342.71L876.88,342.15L877.13,341.19L876.92,340.45L877.4,339.92L877.95,338.79L878.65,338.41L879.46,338.44L880.2,338.15L880.95,338.33L881.9,340.08L882.31,340.72L882.65,341.43L880.87,341.68L879.92,341.63L878.64,343.01L879.82,342.36L880.63,342.45L881.45,342.65L880.93,343.13L882.02,342.82L882.72,343.04L882.34,343.7L881.54,343.87L881.48,343.99M1035.88,104.29L1035.88,104.29M1032.26,341.29L1032.26,341.29M1032.76,341.07L1032.76,341.07M1032.79,341.01L1032.79,341.01M1032.21,341.04L1032.21,341.04M1032.11,340.94L1032.11,340.94M873.02,346.99L873.02,346.99M868.94,346.58L868.94,346.58M883.18,341.52L883.18,341.52M866.55,337.48L866.55,337.48M881.24,334.2L881.24,334.2M865.55,329.88L865.08,330.58L865.55,329.88M864.54,328.97L864.54,328.97M864.87,328.58L864.87,328.58M865.72,327.94L865.09,328.36L865.65,327.95L865.72,327.94M870.55,323.62L868.75,324.34L868.02,324.42L868.71,324.05L869.78,323.72L870.55,323.62M866.72,324.3L867.43,323.96L866.72,324.3M872.28,323.41L871.56,323.67L872.36,323.19L872.28,323.41M1035.77,221.71L1034.66,222.99L1035.12,222.27L1035.65,221.74L1035.77,221.71" class="land"/><path d="M922.28,268.64L922.28,244.64" class="screen-arrow" marker-end="url(#screen-arrow)"/><path d="M922.28,268.64L931.61,246.53" class="geo-arrow" marker-end="url(#geo-arrow)"/><path d="M1066.5,164.14L1066.5,140.14" class="screen-arrow" marker-end="url(#screen-arrow)"/><path d="M1066.5,164.14L1074.99,141.68" class="geo-arrow" marker-end="url(#geo-arrow)"/></g><text x="813" y="62" class="label">LAEA</text><path d="M20,408L20,388" class="screen-arrow" marker-end="url(#screen-arrow)"/><text x="30" y="402" class="legend">screen-axis up</text><path d="M170,408L178,389" class="geo-arrow" marker-end="url(#geo-arrow)"/><text x="190" y="402" class="legend">geo-axis true north</text>
</svg>
