<svg xmlns="http://www.w3.org/2000/svg" width="1200" height="430" viewBox="0 0 1200 430" role="img">
<style>
  .panel{fill:#edf3f3;stroke:#8b9494;stroke-width:1}.land{fill:none;stroke:#555f61;stroke-width:.8}.route{fill:none;stroke:#b54736;stroke-width:2.4}.screen-arrow{fill:none;stroke:#6b7280;stroke-width:1.5}.geo-arrow{fill:none;stroke:#156b8a;stroke-width:2}.label{font:600 15px system-ui,sans-serif;fill:#243033}.small{font:12px system-ui,sans-serif;fill:#465558}.legend{font:12px system-ui,sans-serif;fill:#243033}
</style>
<defs>
  <marker id="screen-arrow" viewBox="0 0 10 10" refX="8" refY="5" markerWidth="5" markerHeight="5" orient="auto"><path d="M0 0L10 5L0 10Z" fill="#6b7280"/></marker>
  <marker id="geo-arrow" viewBox="0 0 10 10" refX="8" refY="5" markerWidth="5" markerHeight="5" orient="auto"><path d="M0 0L10 5L0 10Z" fill="#156b8a"/></marker>
</defs>
<rect width="1200" height="430" fill="#ffffff"/>
<text x="20" y="24" class="label">Trans-Siberian control polyline</text><clipPath id="clip-transsib-equirectangular"><rect x="15" y="42" width="380" height="340"/></clipPath><rect x="15" y="42" width="380" height="340" class="panel"/><g clip-path="url(#clip-transsib-equirectangular)"><path d="M33,242.09L33.73,242.33L33.53,243L34.21,243.57L34.94,243.83L35.85,243.56L36.78,243.83L36.98,244.62L37.52,245.08L38.3,245.09L39.19,244.89L39.85,245.3L40.63,245.66L41.36,245.96L42.07,245.69L42.63,246.13L42.72,246.22M45.75,246.22L46.63,246.05L47.34,246.02L48.15,245.84L48.75,246.21L49.19,246.22M51.09,246.22L51.85,246L52.65,245.47L53.38,245.34L54.2,244.87L54.95,244.34L55.52,243.7L55.85,242.79L55.55,242.04L55.25,241.09L54.92,239.98L54.27,239.5L53.59,239.2L53.01,238.68L52.17,238.26L51.48,238.11L50.8,237.83L50.31,237.32L49.64,237.07L49.04,236.54L48.43,236L47.81,235.4L46.88,234.72L46.36,234.22L45.73,233.82L44.16,233.42L43.56,233.03L42.93,232.54L42.37,232.04L41.71,232.31L41.05,232.01L40.78,231.35L40.15,230.97L39.21,230.59L38.37,230.38L39.06,230.13L39.18,229.33L39.97,229.67L40.82,229.98L41.45,229.64L42.14,229.87L42.06,229.17L41.77,228.53L42.45,228.19L42.79,227.4L43.42,226.98L43.17,227.75L43.59,227.09L44.31,226.9L45.01,227.08L44.13,226.38L43.53,225.77L42.8,225.65L42.36,224.98L43.06,224.86L43.77,224.58L44.68,224.75L44.52,224.04L45.45,223.92L46.09,223.61L46.74,223.28L47.47,223.3L47.43,222.51L46.74,222.34L46.11,222.72L45.29,222.88L45.84,222.41L45.12,222.49L44.01,222.95L43.24,223.09L42.29,223.12L41.37,223.27L40.88,223.85L39.9,223.87L39.25,224.17L38.88,224.77L38.14,224.32L37.4,224.7L36.58,224.66L35.79,224.84L35.12,225.31L34.5,225.66L33.96,226.22L33.41,226.76L33,226.93M33,226.83L33.68,226.51L34.15,225.93L33.68,225.4L33.37,226.08L33,226.27M33,228.23L34.12,229.6L35.34,229.75L35.81,229.22L36.45,229.61L37.22,229.26L37.96,229.32L37.81,230.05L37.86,230.75L37.13,230.98L36.4,230.97L35.64,230.79L34.85,230.56L34.26,231.02L33.58,231.36L33,231.63M377,189.97L376.33,190.4L375.66,190.64L374.91,190.96L374.42,191.57L373.81,191.97L373.19,192.33L372.25,192.6L371.58,192.97L371,193.39L371.06,194.1L372.46,194.26L373.23,194.57L374.06,194.46L375.43,194.53L376.15,194.38L376.41,195.05L376.16,195.71L376.22,196.49L375.91,197.39L376.66,197.37L377,197.36M377,229.86L376.36,230.28L375.96,230.85L375.49,231.41L374.86,231.8L374.39,232.41L373.78,233.1L373.08,233.43L372.63,234.06L372.28,234.72L371.9,235.45L371.35,235.89L370.84,236.4L370.17,236.87L369.48,237.42L368.77,237.72L368.15,238.09L367.48,238.36L366.64,239.06L365.95,239.28L365.24,239.29L364.52,239.51L363.72,239.8L363.21,239.3L362.51,239.08L361.78,238.89L361.15,238.52L361.41,237.84L360.6,237.89L359.98,238.34L360.14,237.66L359.52,237.33L359.06,237.88L358.66,238.47L358.07,238.88L357.63,239.56L357.51,240.26L356.75,239.98L356.05,239.93L356.22,240.62L355.77,241.29L355.01,241.13L354.51,241.69L353.93,242.09L353.33,242.48L352.95,243.21L352.35,243.75L352.24,244.45L352.58,245.11L352.48,245.9L352.46,246.22M84.47,230.97L84.47,230.97M99.58,246.22L99.22,245.6L98.43,245.04L97.79,244.71L97.22,244.19L97.14,243.44L96.78,242.84L96.73,242.12L96.01,241.87L94.97,242.02L94.26,242.02L93.57,242.48L93.1,243.31L93.38,243.98L93.08,244.74L93.38,245.69L93,245L92.51,244.48L92.34,243.79L91.8,243.3L91.93,242.56L91.78,241.86L92.31,241.17L92.58,240.51L92.27,239.76L91.59,239.25L90.9,239.04L90.18,239.22L89.63,238.71L89.25,238.12L88.56,237.98L87.85,237.99L88.04,236.93L87.67,236.3L87.04,235.57L86.7,234.88L86.46,234.15L84.75,233.63L84.36,233L84.6,232.32L85.43,232.43L86.14,232.51L86.86,232.66L87.54,232.97L88.2,232.68L88.9,232.82L88.2,232.53L87.64,232L86.86,231.59L87.23,230.99L87.8,230.58L88.3,229.75L89.08,229.64L89.92,229.51L90.65,229.56L91.69,229.45L92.81,229.69L93.71,229.79L94.42,229.73L93.4,229.25L92.81,228.87L93.23,228.1L93.71,227.57L94.06,226.89L94.23,226.17L93.82,225.42L94.19,224.79L93.99,223.96L93.28,223.57L92.41,223.6L91.59,223.77L90.71,224.12L90.03,223.86L89.29,223.55L88.66,223.17L87.82,223.01L86.86,223.18L86.14,223.73L85.51,224.06L84.81,223.99L84.16,224.36L83.51,224.8L82.89,225.13L82.17,225.31L81.41,225.1L80.84,225.64L81.25,226.21L80.51,226.09L80.07,226.64L79.36,226.76L79.34,227.5L78.6,227.39L77.87,227.81L77.29,228.26L76.57,228.29L75.87,228.32L75.1,228.47L75.16,229.18L74.8,229.79L74.4,230.55L73.99,231.21L73.48,231.7L72.9,232.17L72.48,232.74L72.93,233.3L73.62,233.5L74.08,234.04L74.54,234.59L74.91,235.25L75.01,236L74.9,236.7L75.18,236.01L75.34,235.28L75.3,236.23L75.1,237.01L75.18,237.72L75.03,238.54L75.82,239.12L75.92,239.9L76.64,240.59L77.17,241.09L77.59,241.75L78.15,242.66L78.79,243L79.35,243.52L79.89,244.23L80.48,244.86L80.74,245.59L81.03,246.22M93.46,246.22L93.59,246.22M359.87,238.54L359.87,238.54M76.34,234.82L75.64,235.02L76.34,234.82M82.99,226.01L82.99,226.01M377,193.29L376.27,193.26L376.93,192.66L377,192.64M84.16,231.66L83.54,231.21L84.18,231.55L84.16,231.66M361.65,239.27L361.65,239.27M86.1,231.44L86.1,231.44M92.67,229.26L92.67,229.26M76.83,229.23L76.7,228.54L76.83,229.23M354.29,241.81L354.29,241.81M356.47,240.68L356.47,240.68M358.32,239.99L358.32,239.99M361.28,239.56L361.28,239.56M358.99,239.13L358.99,239.13M359.27,238.91L359.27,238.91M359.18,238.77L359.18,238.77M75.22,232.96L75.22,232.96M85.56,231.67L85.56,231.67M76.79,230.16L76.79,230.16M78.77,228.11L78.77,228.11M93.76,225.53L93.76,225.53" class="land"/><path d="M41.81,190.12L44.9,189.63L48.02,189.17L51.15,188.73L54.29,188.32L57.46,187.93L60.64,187.57L63.84,187.24L67.05,186.94L70.27,186.66L73.51,186.42L76.75,186.2L80.01,186.01L83.27,185.84L86.54,185.71L89.82,185.6L93.1,185.53L96.38,185.48L99.67,185.46L102.95,185.47L106.23,185.51L109.51,185.58L112.79,185.67L116.06,185.8L119.33,185.95L121.2,186.14L123.07,186.34L124.94,186.55L126.8,186.77L128.65,187L130.49,187.24L132.33,187.48L134.17,187.74L135.99,188L137.82,188.28L139.63,188.56L141.43,188.85L143.23,189.15L145.03,189.46L146.81,189.78L148.59,190.11L150.35,190.44L152.11,190.79L153.87,191.14L155.61,191.5L157.35,191.87L159.07,192.24L160.79,192.63L162.5,193.02L163.84,192.96L165.18,192.9L166.52,192.85L167.86,192.8L169.2,192.75L170.54,192.71L171.89,192.68L173.23,192.65L174.58,192.63L175.92,192.61L177.27,192.6L178.61,192.59L179.96,192.58L181.3,192.58L182.65,192.59L183.99,192.6L185.34,192.62L186.68,192.64L188.03,192.66L189.37,192.7L190.72,192.73L192.06,192.77L193.4,192.82L194.74,192.87L196.1,192.65L197.45,192.44L198.82,192.24L200.18,192.04L201.55,191.84L202.93,191.65L204.3,191.46L205.68,191.28L207.07,191.11L208.45,190.94L209.84,190.78L211.24,190.62L212.63,190.46L214.03,190.32L215.43,190.17L216.83,190.03L218.24,189.9L219.65,189.77L221.06,189.65L222.47,189.54L223.89,189.43L225.31,189.32L226.73,189.22L228.15,189.13L229.89,189.63L231.63,190.15L233.34,190.67L235.05,191.2L236.75,191.73L238.43,192.28L240.1,192.83L241.76,193.39L243.41,193.96L245.04,194.53L246.67,195.12L248.28,195.71L249.88,196.3L251.46,196.91L253.04,197.52L254.6,198.14L256.15,198.76L257.69,199.39L259.21,200.03L260.73,200.67L262.23,201.32L263.72,201.98L265.2,202.64L266.66,203.31L267.14,203.38L267.61,203.45L268.08,203.51L268.56,203.58L269.03,203.65L269.5,203.72L269.97,203.79L270.44,203.86L270.92,203.93L271.39,204L271.86,204.07L272.33,204.14L272.8,204.22L273.26,204.29L273.73,204.36L274.2,204.44L274.67,204.51L275.14,204.59L275.6,204.67L276.07,204.75L276.54,204.82L277,204.9L277.47,204.98L277.93,205.06L278.75,205L279.56,204.95L280.38,204.89L281.2,204.84L282.02,204.79L282.83,204.74L283.65,204.69L284.47,204.65L285.29,204.6L286.11,204.56L286.93,204.52L287.75,204.49L288.58,204.45L289.4,204.42L290.22,204.39L291.04,204.36L291.86,204.33L292.69,204.3L293.51,204.28L294.33,204.26L295.16,204.24L295.98,204.22L296.8,204.2L297.63,204.19L300.86,204.44L304.08,204.72L307.29,205.03L310.49,205.37L313.68,205.74L316.85,206.14L320.01,206.56L323.15,207.02L326.28,207.5L329.38,208.01L332.47,208.55L335.54,209.11L338.59,209.7L341.62,210.32L344.63,210.97L347.61,211.63L350.58,212.33L353.52,213.05L356.43,213.79L359.33,214.56L362.2,215.36L365.04,216.17L367.86,217.01L370.66,217.87L370.16,218.71L369.67,219.55L369.19,220.39L368.71,221.22L368.23,222.06L367.75,222.9L367.28,223.74L366.82,224.58L366.35,225.43L365.89,226.27L365.44,227.11L364.99,227.95L364.54,228.8L364.1,229.64L363.65,230.49L363.22,231.33L362.78,232.18L362.35,233.03L361.92,233.88L361.5,234.72L361.08,235.57L360.66,236.42L360.25,237.27L359.83,238.12" class="route"/><path d="M119,222.27L119,198.27" class="screen-arrow" marker-end="url(#screen-arrow)"/><path d="M119,222.27L119,198.27" class="geo-arrow" marker-end="url(#geo-arrow)"/><path d="M280.68,199.68L280.68,175.68" class="screen-arrow" marker-end="url(#screen-arrow)"/><path d="M280.68,199.68L280.68,175.68" class="geo-arrow" marker-end="url(#geo-arrow)"/></g><text x="23" y="62" class="label">Equirectangular</text><clipPath id="clip-transsib-sinusoidal"><rect x="410" y="42" width="380" height="340"/></clipPath><rect x="410" y="42" width="380" height="340" class="panel"/><g clip-path="url(#clip-transsib-sinusoidal)"><path d="M433.06,247.36L432.71,247.99L432.39,248.62L432.61,249.34L433.31,249.28L434.06,249.1L434.38,249.72L433.89,250.34L433.87,251.05L434.65,250.89L435.3,250.58L436.02,250.9L436.3,251.56L436.83,252.04L437.48,251.69L437.72,252.22M440.75,252.22L441.43,252.03L442.15,251.96L442.86,251.91L443.6,251.77L444.17,252.21L444.19,252.22M446.09,252.22L446.8,252.06L447.5,251.82L448.51,251.33L449.27,251.22L449.98,250.92L450.72,250.64L451.42,250.4L452.07,250L452.8,249.52L453.54,249.12L454.15,248.7L454.72,248.18L455.21,247.48L455.66,246.8L456.08,246.19L457.05,244.89L456.91,244.2L456.96,243.45L456.39,242.86L455.66,242.54L455.89,241.86L455.38,241.38L455.5,240.58L455.49,239.84L455.57,238.71L455.48,237.99L454.59,237.18L454.55,236.47L454.74,235.73L454.04,235.97L453.42,235.52L453.79,234.9L453.81,234.13L453.15,233.88L453.81,233.34L454.56,233.15L455.1,232.36L455.15,233.11L456.15,232.88L456.89,232.69L457.6,232.67L458.31,231.92L457.69,232.31L458.23,231.66L459.39,231.1L460.09,230.74L460.92,230.09L461.57,229.7L461.09,230.37L461.7,230L462.46,229.42L463.12,229.73L463.74,229.41L463.64,228.65L463.18,228.04L463.66,227.25L464.44,227.12L465.1,226.85L465.84,226.62L466.51,226.93L466.73,226.21L467.55,226.03L468.31,225.88L468.98,225.64L469.72,225.31L470.45,225.28L471.07,224.93L471.52,224.24L470.73,224.27L469.98,224.6L469.19,224.75L469.96,224.31L469.21,224.38L468.54,224.72L467.78,224.88L467.01,225.24L466.01,225.07L464.99,225.25L464.16,225.7L463.38,225.81L462.55,226.07L461.89,226.3L461.32,226.71L460.46,226.56L459.5,226.93L458.3,226.96L457.57,227.19L456.82,227.55L456.04,227.83L455.29,228.18L454.34,228.72L453.66,229.12L452.98,229.41L452.52,229.55M452.65,229.43L453.44,229.14L454.15,228.8L454.78,228.45L455.24,227.92L454.5,228.26L453.76,228.66L453.4,228.77M450.8,231.07L450.04,232.68L450.97,232.87L451.65,232.52L452.41,232.58L453.37,232.28L454.06,232.5L453.38,232.93L452.75,233.32L452.22,233.87L451.41,234.14L450.7,234.13L449.79,234.38L449.31,233.84L448.62,234.15L448.03,234.6L447.23,234.76L446.62,235.13L446.34,235.07M761.67,186.11L761.21,186.7L760.55,187.05L760.2,187.76L759.75,188.38L759.2,188.89L758.47,189.27L757.89,189.98L758.02,190.9L759.06,191.15L759.71,191.51L760.52,191.35L761.39,191.46L762.06,191.21L762.27,191.94L762.34,192.71L762.44,193.41L762.23,194.16L762.33,194.93L763.05,194.76L763.16,194.79M769.25,232.99L768.72,233.48L768.45,234.16L768.11,234.78L767.57,235.27L767.25,235.9L767.12,236.59L766.48,236.93L766.05,237.66L765.73,238.29L765.41,238.96L765.18,239.8L764.53,240.06L764.44,240.78L763.88,241.23L763.3,241.87L762.65,242.23L762.05,242.72L761.41,243.1L760.76,243.8L760.1,244.1L759.39,244.15L758.56,244.42L757.88,244.62L757.17,244.37L756.94,243.69L756.24,243.91L755.53,243.94L755.38,243.17L755.58,242.43L754.78,242.42L754.22,242.96L754.19,242.25L753.56,241.93L753.21,242.58L752.99,243.3L752.49,243.85L752.03,244.48L752.01,245.2L751.36,244.87L750.65,244.92L750.77,245.64L750.38,246.43L749.63,246.23L749.19,246.79L748.68,247.31L748.14,247.79L747.8,248.54L747.38,249.11L747.08,249.76L747.43,250.4L747.41,251.47L747.46,252.22M495.41,234.3L495.41,234.3M494.58,252.22L494.81,251.49L494.55,250.84L494.25,250.19L494.39,249.5L494.91,248.8L495.16,248.09L495.62,247.56L494.07,247.28L493.36,247.29L492.24,247.82L490.95,248.8L490.4,249.27L489.76,250.26L489.28,250.86L488.9,251.59L489.19,250.78L489.23,250.02L489.64,249.43L489.79,248.68L490.37,248.19L490.74,247.54L491.24,246.95L491.91,246.53L492.53,246.06L493.22,245.51L493.72,244.82L494.05,244.18L493.3,244.09L492.38,243.91L492.33,243.14L492.57,242.48L491.85,242.53L492.47,241.3L492.74,240.63L492.93,239.7L493.27,239.05L493.81,238.13L492.81,237.42L493.07,236.77L493.59,236.19L494.58,236.02L495.3,236.04L495.84,236.51L496.71,236.41L497.42,236.54L497.26,235.73L496.99,235.03L497.49,234.44L498.17,234.2L498.85,233.94L499.55,233.34L500.31,232.86L501.15,232.73L501.85,232.35L502.55,232.59L503.78,232.51L504.58,232.79L505.3,232.91L506.04,232.83L505.59,232.27L505.69,231.57L506.33,231.14L506.96,230.79L507.65,230.29L508.3,229.85L508.86,229.36L509.61,228.66L510.05,227.93L510.48,227.31L511.14,227.04L511.52,226.38L511.69,225.63L510.72,225.63L509.79,225.84L509.09,225.96L508.37,225.94L508.29,225.22L507.52,225.03L506.66,225.05L505.88,225.29L504.91,225.78L504.16,226.07L503.35,226.22L502.63,226.56L501.85,226.82L501.09,227.16L500.44,227.46L499.74,227.52L499.04,227.34L498.58,227.95L497.88,228.05L497.61,228.75L496.87,228.75L496.11,229.21L495.49,229.55L494.78,229.84L494.33,230.51L493.73,230.14L493.05,230.46L492.45,230.83L491.73,231.11L491.03,231.15L490.37,231.56L490.15,230.9L489.73,231.49L489.16,231.91L488.52,232.39L487.69,232.91L487.13,233.44L486.45,233.8L485.69,234.39L484.86,234.93L484.04,235.31L483.32,235.64L482.61,235.96L482.02,236.45L482.36,237.17L482.15,237.84L482.06,238.55L481.77,239.22L481.41,239.86L480.83,240.27L480.23,240.69L480.9,240.36L481.58,239.81L482.26,239.27L481.75,239.86L480.99,240.48L480.46,240.96L479.76,241.58L479.31,242.19L478.76,242.66L478.21,243.19L478.35,243.87L477.87,244.46L477.56,245.6L477.26,246.97L476.86,248.03L477.21,248.64L477.06,249.34L476.95,250.09L476.79,250.83L476.38,251.47L476.03,252.22M488.46,252.22L488.59,252.22M754.14,243.19L754.14,243.19M483.53,238.82L482.89,239.14L483.53,238.82M499.49,228.47L499.49,228.47M762.35,190.01L761.64,190.14L762.17,189.27L762.22,189.24M494.38,235.1L494.91,234.09L494.38,234.59L494.38,235.1M755.94,244.05L755.94,244.05M496.43,234.85L496.43,234.85M504.89,232.29L504.89,232.29M490.21,232.25L490.56,231.62L490.21,232.25M748.97,247.03L748.97,247.03M751.03,245.71L751.03,245.71M752.77,244.9L752.77,244.9M755.61,244.4L755.61,244.4M753.34,243.89L753.34,243.89M753.6,243.63L753.6,243.63M753.49,243.46L753.49,243.46M484.52,236.64L484.52,236.64M495.68,235.12L495.68,235.12M489.13,233.34L489.13,233.34M493.27,230.93L493.27,230.93M509.88,227.9L509.88,227.9" class="land"/><path d="M511.78,186.29L514.8,185.71L517.79,185.16L520.74,184.65L523.65,184.16L526.53,183.71L529.36,183.29L532.16,182.9L534.92,182.55L537.65,182.22L540.34,181.93L542.98,181.67L545.6,181.45L548.17,181.26L550.71,181.1L553.21,180.98L555.68,180.89L558.11,180.83L560.5,180.81L562.86,180.82L565.19,180.86L567.48,180.94L569.74,181.06L571.97,181.2L574.16,181.38L575.31,181.61L576.45,181.84L577.58,182.09L578.7,182.35L579.8,182.62L580.9,182.9L581.99,183.19L583.07,183.49L584.14,183.8L585.21,184.12L586.26,184.45L587.31,184.8L588.34,185.15L589.37,185.51L590.39,185.89L591.4,186.27L592.41,186.66L593.41,187.07L594.4,187.48L595.38,187.9L596.35,188.34L597.32,188.78L598.29,189.23L599.24,189.69L600.31,189.62L601.38,189.55L602.44,189.49L603.5,189.43L604.56,189.38L605.61,189.33L606.66,189.29L607.7,189.26L608.74,189.23L609.77,189.21L610.8,189.19L611.83,189.18L612.85,189.18L613.87,189.18L614.89,189.19L615.9,189.2L616.91,189.22L617.91,189.24L618.91,189.28L619.91,189.31L620.9,189.35L621.89,189.4L622.87,189.45L623.86,189.51L625.04,189.26L626.21,189.01L627.39,188.77L628.56,188.54L629.72,188.31L630.89,188.08L632.05,187.86L633.2,187.65L634.35,187.45L635.5,187.25L636.65,187.06L637.79,186.87L638.93,186.69L640.07,186.51L641.2,186.35L642.33,186.18L643.46,186.03L644.58,185.88L645.7,185.74L646.82,185.6L647.94,185.47L649.05,185.35L650.15,185.23L651.26,185.12L652.28,185.71L653.3,186.31L654.31,186.93L655.32,187.55L656.32,188.18L657.32,188.82L658.32,189.47L659.32,190.13L660.31,190.8L661.3,191.47L662.28,192.16L663.27,192.85L664.25,193.55L665.23,194.26L666.2,194.98L667.18,195.71L668.15,196.44L669.12,197.18L670.09,197.93L671.05,198.69L672.02,199.45L672.98,200.23L673.94,201L674.9,201.79L675.26,201.87L675.62,201.95L675.98,202.02L676.35,202.1L676.71,202.18L677.07,202.26L677.43,202.35L677.79,202.43L678.15,202.51L678.51,202.6L678.87,202.68L679.23,202.77L679.59,202.85L679.95,202.94L680.31,203.03L680.67,203.11L681.03,203.2L681.39,203.29L681.75,203.38L682.11,203.47L682.47,203.57L682.82,203.66L683.18,203.75L683.54,203.84L684.23,203.78L684.91,203.71L685.59,203.65L686.27,203.58L686.96,203.52L687.64,203.47L688.32,203.41L689,203.36L689.68,203.31L690.36,203.26L691.04,203.21L691.72,203.17L692.4,203.13L693.08,203.09L693.75,203.05L694.43,203.02L695.11,202.98L695.78,202.95L696.46,202.92L697.14,202.9L697.81,202.87L698.49,202.85L699.16,202.83L699.83,202.82L702.42,203.11L705.01,203.44L707.59,203.81L710.17,204.21L712.74,204.64L715.31,205.11L717.88,205.61L720.45,206.15L723.01,206.71L725.58,207.31L728.14,207.94L730.7,208.61L733.26,209.3L735.82,210.03L738.39,210.78L740.95,211.57L743.51,212.39L746.08,213.23L748.65,214.11L751.22,215.01L753.79,215.94L756.36,216.9L758.94,217.89L761.52,218.9L761.21,219.89L760.91,220.87L760.6,221.86L760.29,222.84L759.98,223.83L759.67,224.81L759.37,225.8L759.06,226.79L758.75,227.78L758.44,228.77L758.13,229.76L757.82,230.75L757.51,231.74L757.19,232.74L756.88,233.73L756.57,234.72L756.26,235.72L755.95,236.71L755.63,237.71L755.32,238.71L755.01,239.7L754.69,240.7L754.38,241.7L754.06,242.7" class="route"/><path d="M536.06,224.07L536.06,200.07" class="screen-arrow" marker-end="url(#screen-arrow)"/><path d="M536.06,224.07L551.36,205.57" class="geo-arrow" marker-end="url(#geo-arrow)"/><path d="M687.24,197.52L687.24,173.52" class="screen-arrow" marker-end="url(#screen-arrow)"/><path d="M687.24,197.52L692.66,174.14" class="geo-arrow" marker-end="url(#geo-arrow)"/></g><text x="418" y="62" class="label">Sinusoidal</text><clipPath id="clip-transsib-laea"><rect x="805" y="42" width="380" height="340"/></clipPath><rect x="805" y="42" width="380" height="340" class="panel"/><g clip-path="url(#clip-transsib-laea)"><path d="M828.63,161L828.47,161.69L827.69,162.25L827.28,162.94L827.06,163.74L826.97,164.57L827.41,165.14L828.02,165.52L827.73,166.56L827.05,167.09L826.71,167.73L826.47,168.49L826.21,169.22L826.94,169.31L827.32,170.05L827.25,170.77L826.75,171.42L826.91,172.29L826.84,173.06L826.82,173.8L827.53,173.99L827.17,174.75L827.09,174.94M828.49,177.88L829.12,178.55L829.5,179.18L830.13,179.76L829.9,180.59L830.14,181.18M831.08,182.98L831.74,183.46L832.52,183.57L833.12,183.99L833.82,184.24L834.53,184.48L835.44,184.5L836.3,184.26L837.08,184.15L837.88,183.61L838.54,182.76L838.96,182.13L839.75,181.17L841.02,179.65L841.38,179.01L841.36,178.24L841.64,177.25L841.77,176.48L842.03,175.6L841.73,174.95L841.81,174.08L842.04,173.34L842.29,172.53L842.28,171.79L842.66,171.08L842.79,170.32L843.19,169.38L843.43,168.69L843.88,167.79L844.21,166.62L844.6,165.78L844.94,164.62L845.05,163.78L844.83,162.75L844.98,161.98L845.31,161.36L845.55,160.62L845.93,159.99L845.48,159.45L845.43,158.75L846,157.79L846.6,156.84L846.7,156.13L846.78,155.28L846.63,154.59L847.35,154.65L848,154.91L847.9,154.15L848.35,155.07L847.77,155.5L848.23,156.17L848.28,155.46L848.56,156.13L848.93,156.76L849.7,156.65L850.27,156.2L849.61,156.47L850.13,155.87L851.18,155.83L851.94,155.73L852.78,155.29L852.67,156.02L852,156.24L852.74,156.03L853.46,155.78L853.71,156.58L854.47,155.6L855.08,154.46L854.98,153.68L855.37,153.04L855.9,152.49L856.17,153.14L856.83,153.5L856.93,154.48L857.33,153.84L858.04,153.68L858.37,154.35L859.05,154.62L859.72,154.87L859.92,155.55L860.64,155.33L861.09,154.72L861.11,154.01L860.4,153.87L859.92,153.37L859.51,152.78L860.49,153.18L860.13,152.58L859.18,152.13L858.71,151.57L858.32,150.75L857.78,150.08L856.89,150.18L856.42,149.33L855.78,149.03L855.09,149.34L855.46,148.69L855.03,148.11L854.24,147.88L854.17,147.07L853.66,146.52L852.91,146.38L852.26,146.11L851.1,146.15L850.37,146.25L849.79,145.93M849.92,145.83L850.59,146.16L851.29,146.04L851.83,145.58L852.27,145.01L851.69,145.43L850.93,145.45L850.72,145.3M847.94,147.17L846.37,149.55L846.15,150.29L846.65,150.87L847.43,150.74L847.09,151.49L847.79,151.75L848.02,152.48L847.98,153.19L847.31,153.5L846.57,153.7L846.06,154.18L845.48,153.73L845.49,153.02L844.96,152.5L845.33,151.76L845.19,151.05L844.49,151.21L843.8,150.87L843,150.89L843.14,150.47M1155.14,236.06L1154.61,236.73L1154.04,237.14L1153.41,237.67L1153.16,238.34L1152.8,238.95L1152.25,239.52L1151.61,240.12L1150.9,240.51L1150.34,241.26L1150.5,242.36L1151.8,242.52L1152.59,242.87L1153.37,242.64L1154.7,242.58L1155.36,242.29L1155.67,242.94L1155.6,243.72L1155.86,244.37L1155.92,245.08L1155.73,245.79L1155.79,246.52L1156.52,246.41L1156.85,246.35M1163.84,292.16L1163.24,292.76L1162.92,293.55L1162.46,294.23L1162.16,294.88L1161.66,295.41L1161.33,296.11L1161.18,296.87L1160.53,297.18L1159.98,297.72L1159.69,298.4L1159.44,299.08L1159.12,299.72L1158.82,300.4L1158.75,301.13L1158.2,301.59L1157.86,302.2L1157.15,302.94L1156.64,303.43L1156.07,303.98L1155.51,304.4L1154.94,304.9L1154.29,305.24L1153.8,305.84L1153.28,306.44L1152.5,306.71L1151.8,306.91L1151.12,307.26L1150.4,307.63L1149.67,307.66L1149.21,307.1L1148.62,306.72L1147.96,306.98L1147.2,306.6L1146.65,306.16L1146.69,305.36L1146.57,304.57L1145.91,305.29L1145.37,305.85L1145.18,305.13L1144.61,304.69L1144.24,305.3L1143.75,306.2L1143.36,306.81L1143,307.44L1142.5,308.01L1142.46,308.71L1141.67,308.53L1140.86,308.68L1140.13,308.51L1140.92,309.04L1140.66,309.92L1140.31,310.58L1139.65,310.33L1139.09,310.79L1138.49,311.26L1137.94,311.81L1137.65,312.47L1137.23,313.05L1136.77,313.76L1136.43,314.62L1136.51,315.34L1136.98,315.94L1136.75,316.84L1136.79,317.62L1136.82,317.75M868.69,194.92L868.69,194.92M861.58,225.11L861.98,224.5L861.99,222.75L861.88,221.84L861.93,221.05L862.31,220.36L862.81,219.77L863.16,218.98L863.54,218.34L863.99,217.64L863.73,216.96L862.83,216.32L862.32,215.76L861.33,215.76L860.06,216.39L859.85,217.13L858.7,217.93L858.15,218.57L857.62,219.51L857.79,218.82L858.28,218.02L858.41,217.08L858.88,216.44L859.07,215.76L859.68,215.01L860.13,214.43L860.47,213.75L861.14,213.47L861.91,213.18L862.6,212.76L863.19,212.29L863.5,211.66L863.91,210.99L863.6,210.29L863.37,209.5L862.68,209.13L862.81,208.3L863.16,207.47L863.52,206.82L863,206.31L862.66,205.69L863.3,205.27L863.9,204.7L864.28,204.1L864.36,203.36L864.85,202.3L865.29,201.66L865.52,200.99L866.06,200.29L866.22,199.36L865.69,198.2L866.03,197.36L866.6,196.75L867.44,197.24L867.9,197.89L868.22,198.53L868.12,199.5L868.81,199.71L869.12,200.54L869.36,199.84L869.33,199L869.44,198.24L869.43,197.54L869.92,196.97L870.75,197.12L871.44,196.89L872.53,196.55L873.15,197.04L873.86,196.96L873.82,197.77L875.02,198.86L875.46,200L875.92,200.82L876.46,201.28L876.43,200.47L876.35,199.7L876.52,198.99L877.29,198.59L878.09,198.44L878.75,198.2L879.39,197.76L880.04,197.34L880.81,196.72L881.13,195.84L881.87,195.43L882.57,195.16L882.96,194.31L883.08,193.52L882.41,192.69L881.7,192.28L880.98,192.35L880.82,191.65L880.6,190.98L880.56,190.27L880.64,189.56L880.34,188.54L879.58,187.99L878.48,188.05L877.78,187.93L877.2,187.48L876.55,187.21L875.85,187.32L875.15,187.15L874.71,186.52L874.16,186.07L873.49,186.42L872.76,186.45L872.06,186.35L871.3,186.48L870.82,185.93L870.33,186.44L869.83,186.97L869.8,186.22L869.04,186.14L868.31,186.2L867.64,185.8L866.92,185.51L866.84,184.8L866.24,185.28L866.3,184.5L866.01,185.14L865.34,185.41L864.48,185.73L863.89,186.18L863.11,186.35L862.45,186.67L861.51,186.99L861.85,186.32L861.13,186.81L860.43,186.63L859.62,186.97L859.02,187.48L859.23,188.67L858.89,189.32L858.96,190.02L858.49,190.66L858.04,191.52L857.7,192.18L857.14,192.63L856.42,193.05L857.15,192.89L857.77,192.5L856.82,193.39L855.95,193.95L855.42,194.48L854.93,194.98L854.33,195.41L853.71,196.25L853.62,197.14L853.15,197.68L852.67,198.31L852.35,199.53L852.1,200.46L851.55,201.7L851.32,202.37L850.82,203.23L850.9,203.99L850.56,205.28L850.28,206.18L850.04,206.87L849.73,207.82L849.41,208.47L848.97,209.07L848.51,209.91M857.08,220.22L857.18,220.33M1145.11,306.28L1145.11,306.28M859.16,192.65L858.51,192.34L859.16,192.65M873.83,188.13L873.83,188.13M1155.92,240.68L1155.22,240.73L1155.7,239.81L1155.76,239.77M867.69,195.46L867.77,194.61L868.46,194.12L867.9,194.56L867.65,195.24L867.69,195.46M1147.34,307.18L1147.34,307.18M869.13,196.76L869.13,196.76M875.87,199.4L875.87,199.4M866.32,186.77L866.65,186.12L866.32,186.77M1138.71,311.33L1138.71,311.33M1141.25,309.58L1141.25,309.58M1143.41,308.48L1143.41,308.48M1146.92,307.63L1146.92,307.63M1144.12,307.19L1144.12,307.19M1144.44,306.86L1144.44,306.86M1144.31,306.66L1144.31,306.66M860.78,189.62L860.78,189.62M868.53,196.6L868.53,196.6M865.15,187.77L865.15,187.77M868.82,187.09L868.82,187.09M880.97,195.93L880.97,195.93" class="land"/><path d="M906.1,121.33L907.61,123.26L909.13,125.19L910.64,127.12L912.17,129.06L913.69,131.01L915.22,132.96L916.76,134.92L918.3,136.89L919.84,138.86L921.39,140.83L922.94,142.81L924.5,144.8L926.06,146.79L927.62,148.79L929.19,150.79L930.76,152.79L932.34,154.81L933.92,156.82L935.51,158.85L937.09,160.87L938.69,162.9L940.28,164.94L941.88,166.98L943.48,169.03L944.3,170.31L945.12,171.59L945.93,172.87L946.75,174.15L947.57,175.43L948.4,176.71L949.22,178L950.05,179.29L950.87,180.57L951.7,181.86L952.53,183.15L953.37,184.45L954.2,185.74L955.03,187.03L955.87,188.33L956.71,189.63L957.55,190.93L958.39,192.23L959.23,193.53L960.07,194.83L960.92,196.13L961.76,197.44L962.61,198.74L963.46,200.05L964.49,200.62L965.52,201.19L966.56,201.76L967.59,202.33L968.62,202.91L969.66,203.48L970.69,204.06L971.72,204.64L972.75,205.22L973.79,205.8L974.82,206.38L975.86,206.96L976.89,207.55L977.92,208.14L978.96,208.72L979.99,209.31L981.03,209.9L982.06,210.5L983.1,211.09L984.13,211.68L985.17,212.28L986.2,212.88L987.24,213.47L988.27,214.07L989.54,214.33L990.8,214.59L992.06,214.86L993.32,215.12L994.59,215.39L995.85,215.66L997.11,215.93L998.38,216.2L999.64,216.48L1000.9,216.75L1002.17,217.03L1003.43,217.31L1004.7,217.6L1005.96,217.88L1007.23,218.17L1008.49,218.46L1009.75,218.75L1011.02,219.04L1012.28,219.34L1013.55,219.63L1014.81,219.93L1016.08,220.23L1017.34,220.53L1018.61,220.84L1019.78,222.03L1020.95,223.22L1022.12,224.42L1023.3,225.61L1024.47,226.81L1025.64,228.01L1026.82,229.21L1027.99,230.42L1029.16,231.62L1030.34,232.83L1031.51,234.04L1032.68,235.25L1033.86,236.46L1035.03,237.68L1036.21,238.89L1037.38,240.11L1038.55,241.33L1039.73,242.55L1040.9,243.77L1042.08,244.99L1043.25,246.22L1044.43,247.45L1045.6,248.68L1046.77,249.91L1047.21,250.1L1047.65,250.28L1048.09,250.47L1048.53,250.66L1048.97,250.85L1049.42,251.04L1049.86,251.23L1050.3,251.42L1050.74,251.61L1051.18,251.8L1051.62,251.99L1052.05,252.18L1052.49,252.37L1052.93,252.56L1053.37,252.75L1053.81,252.94L1054.25,253.13L1054.69,253.32L1055.13,253.51L1055.57,253.71L1056.01,253.9L1056.45,254.09L1056.89,254.28L1057.33,254.47L1058.17,254.53L1059.01,254.59L1059.84,254.65L1060.68,254.72L1061.52,254.78L1062.35,254.84L1063.19,254.91L1064.03,254.97L1064.86,255.03L1065.7,255.1L1066.54,255.17L1067.37,255.23L1068.21,255.3L1069.05,255.37L1069.88,255.44L1070.72,255.51L1071.56,255.58L1072.39,255.65L1073.23,255.72L1074.07,255.8L1074.91,255.87L1075.74,255.94L1076.58,256.02L1077.42,256.09L1080.64,256.81L1083.87,257.53L1087.1,258.26L1090.32,259L1093.54,259.75L1096.77,260.51L1099.99,261.28L1103.21,262.06L1106.43,262.86L1109.64,263.66L1112.86,264.47L1116.07,265.29L1119.29,266.12L1122.5,266.96L1125.71,267.81L1128.91,268.67L1132.12,269.54L1135.32,270.43L1138.52,271.31L1141.72,272.21L1144.91,273.12L1148.1,274.04L1151.29,274.97L1154.48,275.91L1154.09,277.14L1153.69,278.38L1153.3,279.62L1152.91,280.85L1152.52,282.09L1152.12,283.33L1151.73,284.57L1151.34,285.81L1150.94,287.04L1150.55,288.28L1150.16,289.52L1149.76,290.77L1149.37,292.01L1148.97,293.25L1148.58,294.49L1148.19,295.73L1147.79,296.98L1147.4,298.22L1147,299.46L1146.61,300.71L1146.21,301.95L1145.82,303.2L1145.42,304.44L1145.02,305.69" class="route"/><path d="M901.74,210.17L901.74,186.17" class="screen-arrow" marker-end="url(#screen-arrow)"/><path d="M901.74,210.17L917.82,192.35" class="geo-arrow" marker-end="url(#geo-arrow)"/><path d="M1061.76,247.45L1061.76,223.45" class="screen-arrow" marker-end="url(#screen-arrow)"/><path d="M1061.76,247.45L1067.02,224.03" class="geo-arrow" marker-end="url(#geo-arrow)"/></g><text x="813" y="62" class="label">LAEA</text><path d="M20,408L20,388" class="screen-arrow" marker-end="url(#screen-arrow)"/><text x="30" y="402" class="legend">screen-axis up</text><path d="M170,408L178,389" class="geo-arrow" marker-end="url(#geo-arrow)"/><text x="190" y="402" class="legend">geo-axis true north</text>
</svg>
