<svg xmlns="http://www.w3.org/2000/svg" width="1100" height="650" viewBox="0 0 1100 650" role="img" aria-label="EMEA equirectangular standard latitude score sweep">
<rect width="1100" height="650" fill="#fff"/>
<g font-family="system-ui,sans-serif" font-size="13" fill="#3b4749"><path d="M80,575.00H1070" stroke="#d7dfe1"/><text x="68" y="579.00" text-anchor="end">0</text><path d="M80,488.33H1070" stroke="#d7dfe1"/><text x="68" y="492.33" text-anchor="end">5</text><path d="M80,401.67H1070" stroke="#d7dfe1"/><text x="68" y="405.67" text-anchor="end">10</text><path d="M80,315.00H1070" stroke="#d7dfe1"/><text x="68" y="319.00" text-anchor="end">15</text><path d="M80,228.33H1070" stroke="#d7dfe1"/><text x="68" y="232.33" text-anchor="end">20</text><path d="M80,141.67H1070" stroke="#d7dfe1"/><text x="68" y="145.67" text-anchor="end">25</text><path d="M80,55.00H1070" stroke="#d7dfe1"/><text x="68" y="59.00" text-anchor="end">30</text><path d="M80.00,55V575" stroke="#edf0f1"/><text x="80.00" y="608" text-anchor="middle">45°</text><path d="M179.00,55V575" stroke="#edf0f1"/><text x="179.00" y="608" text-anchor="middle">46°</text><path d="M278.00,55V575" stroke="#edf0f1"/><text x="278.00" y="608" text-anchor="middle">47°</text><path d="M377.00,55V575" stroke="#edf0f1"/><text x="377.00" y="608" text-anchor="middle">48°</text><path d="M476.00,55V575" stroke="#edf0f1"/><text x="476.00" y="608" text-anchor="middle">49°</text><path d="M575.00,55V575" stroke="#edf0f1"/><text x="575.00" y="608" text-anchor="middle">50°</text><path d="M674.00,55V575" stroke="#edf0f1"/><text x="674.00" y="608" text-anchor="middle">51°</text><path d="M773.00,55V575" stroke="#edf0f1"/><text x="773.00" y="608" text-anchor="middle">52°</text><path d="M872.00,55V575" stroke="#edf0f1"/><text x="872.00" y="608" text-anchor="middle">53°</text><path d="M971.00,55V575" stroke="#edf0f1"/><text x="971.00" y="608" text-anchor="middle">54°</text><path d="M1070.00,55V575" stroke="#edf0f1"/><text x="1070.00" y="608" text-anchor="middle">55°</text></g>
<path d="M599.75,55V575" stroke="#be4d77" stroke-width="2" stroke-dasharray="6 5"/>
<path d="M80.00,333.11L104.75,334.21L129.50,335.30L154.25,336.38L179.00,337.46L203.75,338.54L228.50,339.61L253.25,340.68L278.00,341.74L302.75,342.79L327.50,343.84L352.25,344.88L377.00,345.91L401.75,346.94L426.50,347.96L451.25,348.97L476.00,349.97L500.75,350.91L525.50,351.20L550.25,351.68L575.00,351.90L599.75,351.95L624.50,351.85L649.25,351.73L674.00,351.59L698.75,351.44L723.50,351.26L748.25,351.06L773.00,350.84L797.75,350.60L822.50,350.34L847.25,350.06L872.00,349.75L896.75,349.42L921.50,349.06L946.25,348.68L971.00,348.27L995.75,347.84L1020.50,347.37L1045.25,346.88L1070.00,346.37" fill="none" stroke="#246b72" stroke-width="3"/>
<path d="M80.00,131.60L104.75,136.38L129.50,141.18L154.25,146.00L179.00,150.85L203.75,155.71L228.50,160.59L253.25,165.50L278.00,170.42L302.75,175.37L327.50,180.33L352.25,185.32L377.00,190.32L401.75,195.34L426.50,200.39L451.25,205.45L476.00,210.53L500.75,215.64L525.50,220.76L550.25,225.90L575.00,231.06L599.75,236.23L624.50,241.43L649.25,246.65L674.00,251.88L698.75,257.13L723.50,262.40L748.25,267.69L773.00,273.00L797.75,276.07L822.50,271.53L847.25,266.93L872.00,262.27L896.75,257.55L921.50,252.77L946.25,247.92L971.00,243.02L995.75,238.04L1020.50,233.01L1045.25,227.90L1070.00,222.72" fill="none" stroke="#b66b32" stroke-width="3"/>
<path d="M80.00,222.40L104.75,226.79L129.50,231.19L154.25,235.61L179.00,240.05L203.75,244.51L228.50,248.99L253.25,253.49L278.00,258.00L302.75,262.54L327.50,267.09L352.25,271.66L377.00,276.25L401.75,280.85L426.50,285.48L451.25,290.12L476.00,294.78L500.75,297.13L525.50,295.53L550.25,293.90L575.00,292.23L599.75,290.52L624.50,288.77L649.25,286.97L674.00,285.14L698.75,289.66L723.50,291.38L748.25,289.46L773.00,287.50L797.75,283.69L822.50,279.19L847.25,274.64L872.00,270.03L896.75,265.36L921.50,260.63L946.25,255.84L971.00,250.99L995.75,246.07L1020.50,242.91L1045.25,238.14L1070.00,233.01" fill="none" stroke="#5c5c8d" stroke-width="3"/>
<circle cx="599.75" cy="351.95" r="6" fill="#be4d77"/>
<g font-family="system-ui,sans-serif" fill="#243033">
<text x="80" y="30" font-size="20" font-weight="700">EMEA standard-latitude sweep · lower is better</text>
<text x="80" y="635" font-size="13">Equirectangular + screen-axis · standard latitude</text>
<text x="608.75" y="75" font-size="13" font-weight="700" fill="#9f315d">recommend 50.25°N</text>
<text x="770" y="28" font-size="13" fill="#246b72">━ uniform 7-fixture</text>
<text x="895" y="28" font-size="13" fill="#b66b32">━ worst fixture</text>
<text x="1010" y="28" font-size="13" fill="#5c5c8d">━ full bbox</text>
</g>
</svg>
